<mxfile host="app.diagrams.net" agent="Mozilla/5.0 (Windows NT 10.0; Win64; x64) AppleWebKit/537.36 (KHTML, like Gecko) Chrome/130.0.0.0 Safari/537.36" version="24.8.4">
  <diagram name="Page-1" id="WOx3W0GyX0Wzc7Ekrpez">
    <mxGraphModel dx="2060" dy="1131" grid="1" gridSize="10" guides="1" tooltips="1" connect="1" arrows="1" fold="1" page="1" pageScale="1" pageWidth="827" pageHeight="1169" math="0" shadow="0">
      <root>
        <mxCell id="0" />
        <mxCell id="1" parent="0" />
        <mxCell id="rUgBYVzJ36tJDC_znr5l-1" value="" style="shape=image;verticalLabelPosition=bottom;labelBackgroundColor=default;verticalAlign=top;aspect=fixed;imageAspect=0;image=data:image/png,iVBORw0KGgoAAAANSUhEUgAAAwoAAAPbCAYAAAD8WnyrAAAAAXNSR0IArs4c6QAAAARnQU1BAACxjwv8YQUAAAAJcEhZcwAADsMAAA7DAcdvqGQAAP+lSURBVHhe7N0FXFRLAwXwY6AgoCgKdnd3d3d3d3c9u7u7u7u7xW7FDmwFxAIJKXl3hkEaAUHq/L/ffm9n9t5ld0GYc6dieWhARERERETkQ2z1XyIiIiIiot8YFIiIiIiIyB8GBSIiIiIi8odBgYiIiIiI/GFQICIiIiIifxgUiIiIiIjIHwYFIiIiIiLyh0GBiIiIiIj8YVAgIiIiIiJ/GBSIiIiIiMgfBgUiIiIiIvKHQYGIiIiIiPxhUCAiIiIiIn8YFIiIiIiIyB8GBSIiIiIi8odBgYiIiIiI/GFQICIiIiIifxgUiIiIiIjIHwYFIiIiIiLyh0GBiIiIiIj8YVAgIiIiIiJ/GBSIiIiIiMgfBgUiIiIiIvKHQYGIiIiIiPyJ5aFR94mIiKId8Wfu8+fPuHfvHt69e4dfv34hTpw4SJMmDUqWLAldXV3EihVLHU1ERF4YFIiIKNqysrLCsGHDsH37dvz8+VPVekuQIAFatmyJqVOnImnSpKo2bLi5uclgIgJJ3LhxVW3Esre3l6EpXbp0DEdE9EccekRERNGOuAZ29uxZZMiQATt27EDHjh3x5MkTuLq6wt3dHS4uLnj8+DGaNGmCTZs2IXPmzLh165Y8L6x8/PgRWbJkkWElsti/fz/y5Mkje1WIiP6EQYGIiKIdc3Nz1K5dWwYFEQgWLVqEbNmyySv7sWPHho6ODrJnz461a9fKIUkJEyZExYoVYWFhoZ6BiIgYFIiIKFoRvQVt27aVvQMXL14McpiNqM+aNStOnTolhya1a9dODhkiIiIGBSIiimbEkKP79+9jwYIFSJIkiaoNmhgiNGnSJFy5ckUOQfIiwoYYrhTUkCSvY8SQJkH8V5S/fv0qy9++fZNln88jwohXIBF1dnZ2MDMzw759+3Dw4EE8e/Ys0OFBoj64r0kc63Vf3MRrEmUnJydZZigioqAwKBARUbQyfPhwJE6cGK1atVI1fyZ6Frp27Qp9fX1Mnz5d1ULOa4gXLx7u3LmjavwTjW3RK9GrVy9ZFs8jzilQoIAMDXnz5pXl5MmTywa60LhxY5QvX172fsyaNUsOkRoxYgTu3r2LXbt2oVChQvLx58+fy+N9EgEoWbJkcHBwUDX+WVpayq955swZGRZEEBLlvn37yvMMDQ1luWzZskEGDiKK2RgUiIgo2hCN4EePHqFatWpy2dOQEPMUSpcuLa/sOzs7q9qQW7FihQwAYu6DWIZV9G6IsrW1NfT09NRRnvr3748LFy7IeRTiv+PGjcO6devw5s0bGQYKFy6Mt2/fqqNDR8zJePHihXwNYq6GCENi9SNRFu+Vqx8RUWAYFIiIKNoQQ3jEVXwxMTmkDWBxfJkyZeRVf0dHR1UbciIciMnSRkZGsiz+K8piIrXP1yQChAgHe/fuhYmJye/HxH/FkKktW7bIXgixYtPfrFIknk98ba/XJMoiRHm9JiKiwDAoEBFRtCEa+aJRnShRIlUTMqKBLsbuB7TnQlgToWb27NkyWAQkfvz4mDx5srzq//TpU1VLRPTvMCgQEVG04TXe3ueV+5AI7XmhIYYEFS9eXJUCJnpGRHAJao4EEVF4YVAgIqJoQwypEY39Hz9+qJqQEVf5xXAcMdE3vIk5CGK+QFDEpGwx8Vgs38pJx0T0rzEoEBFRtGFgYCCv1N+8eTPEDWtx/NGjR2VISJAggaoNP+JrBKcHQwyjevXqlSoREf07DApERBRtiEZ1+vTp5X4EId0jQMxLEMuTiqVJ/a5OFBQRMLz2UAgJMWE6OGFGzLsI6ZwL7o9ARGGBQYGIiKKVTp064ePHj7J3ICTE/gVic7TBgwerGm9BrTokGuWhWSXJxsbmj0OkRHj58uULatWq5a/3IaiQEdqhV0REPjEoEBFRtNKzZ08kTZpUbnwmJgIHhwgIYjMysRxphQoVVK3nykNCUJubiX0bxPkhJcLHxYsXVSlgt2/flgEhc+bMqgZyXoN4X0G9t507d6p7REShx6BARETRipj8u2HDBnklXmy8JjYXC4y4Km9rayt3QRZX7/fv3+9ro7YUKVLI5xO7IQdEnL9s2bIAr+579QAEtnmb2MdA9F6Ijc8CIoYzid2as2fPLjeC81KsWDH5nOfOnVM1vonHNm3apEq+ifkbogckOEOeiIgYFIiIKNqpXr06Fi5ciLNnzyJLlizYuHGjDAReDWTx3+/fv2PlypXycbEz8tq1a1GkSBH5uBcRGmrXro1jx47h9evXqtaTeA6xWZoYQiQa836J3gixR4K4uh9QwzxVqlRInTo12rRpI+ch+CRCwpIlS3D58mXMnz9fhgov4muJFZNmzJjhb8iTCAFDhw6VrzkgYq6DCES3bt1SNUREgYul/fLiZQUiIop2xJ+3a9euoV27drCwsJATlNOlSycb8KJh/vbtW9lozpYtG7Zu3Yo8efIEuAqRlZWV3O9AjPtv3LgxmjdvLs8TvQziecRciBYtWshhS6J3wYto7FeuXFm+howZM8rGvThWhI/69evD3Nxcrs7UrFkzGULEf2vWrClXOJo5c6asE19DBAm/r+vEiRNo2LCh7PFo3bo1qlSpghcvXmDu3LmoVKkSpkyZIt/nyZMn5Wvw8vnzZxQoUECGpKxZsyJv3rxYs2ZNgO+biIhBgYiIojUxF0BsWCYa16IxLRrw4gq9GPcvGvjiqr4YkhMUEQjEcB6xKpKYr2BsbCwb9WLIkug1EGFC/FeEAZ/E17K0tJTBQjwugor4Wl5BQbwe0UgXz7t79268f/9eHleiRAkZSMRyr4ERE7ZFb4XXZmxitaemTZsiR44csizCUcqUKf0t9SqGJolzxWsToUX0bDAoEFFAGBSIiIj+MZ9B4U8hhYgoovC3ExERERER+cOgQERERERE/jAoEBERERGRP5yjQERE9I+9fPlSTnAWE485kZiIIisGBSIiIiIi8odDj4iIiIiIyB8GBSIiIiIi8odBgYiIiIiI/GFQICIiIiIifxgUiIiIiIjIHwYFIiIiIiLyh0GBiIjCzf79+5EoUaI/3qpWrYpDhw7B3d1dnRm+XF1dkSdPHgwePFjVhL+3b9/K93r16lVVE3zOzs5Inz495syZo2oAMzMz+XwfP36UZbHaeaNGjVCgQAF536dfv37Bzc1Nlbw5OTkhRYoUWL58uaohIvLGoEBEROFGNMh//PiB6tWro3fv3gHe6tSpg+vXr8v/Nm3aVG5E9i+I1yUayv+KaKzb2dkF2GD/E9HwF+eKwOBFfLaiTjyvF0dHR9jb26uSt4kTJyJVqlSq5M3reV1cXFQNEZE3BgUiIgp34kr45MmTA7xt3LgRVlZW6NGjB/bu3YtRo0b5uyIe08WOHRulS5dG6tSpVU3ARC9J4cKFVenPxPOWKVNG9ioQEfnFoEBERBEqVqxY0NXVxaJFi1CxYkWsWrVKXhknb/HixcOBAwfQpk0bVeOf+BxnzJiBrVu3yvvBIT73Y8eOoXHjxqqGiMgbgwIREUUK4up2ixYtYGtri1evXqnakBHDlsSY/ffv38Pa2loOzwkuMSRInBOSc0XPhxjq4/U1xX/FUJ7gEoHI69wvX774GkYUWYjhWZaWlsH+XMRn4uDgII8Xt0+fPoXo+0BEkQeDAhERRRq5c+eW//3+/bv87/3795EvXz5ZFg3QFy9eyDAh6iwsLOQxgmjMjhs3DunSpUP+/PlRqlQp5MiRAxkzZsSSJUuCbICLx3bt2oWsWbMib9688txcuXLJc8XV+cAmWH/+/BkNGjSQX1O8HnGeGPojyl26dAkyMIjXO3LkSPk1ChUqJM/NlCmTHDZ069Ytf0OvxBwCMURo9erVqsY/cU7Pnj3lXA9xX4SmcuXKydcmhn6J1yvui9vw4cPlOeKYYsWKyffpl3jfYm5D2rRp5echXmO2bNnkbcuWLf5eoyDCTt26dZEhQwaULFlSnpM5c2Z5E689oHOIKPJiUCAiokhDNNjjxIkjG9CCuOJubm4uexkGDRqE7Nmz48KFC7KxqqenJ48RDXLR+BXnipu4Qv/mzRt8+PABc+fOxYgRI1CpUqUAr2rb2NjIRvPo0aPl/AhxjjhXXAmfNm0aOnfuLBv9fsOCmAgtQsXr169x6dIlOcdCnCeuuJ89exZHjx6VcwoCmrj8+PFj2Yh++vQpbt++/fv1Pn/+HGXLlpUN9507d6qjPYkw8/DhQ3l1PiiiJ+bJkyfyvhiutGHDBvm+xGRyAwMDeV/cBgwYII8Rz/vgwQMZInwS77do0aKYPXu2DAVe7098Lv/99x86deqEhQsX+mr4izCXM2dO2TN0584ducqTOEf8V3z9bt26cXUloqhG+0dOREQULrQGr0esWLE8tAamqgmc1lj1SJ06tUf69Ok9nJ2dZd3Vq1dFS9RDCwkeiRIl8ti2bZt8TGvgyse1hrhH5cqVPVKlSuWhNVRlnU/iuIsXL3ro6up6TJ8+/fd5Li4uHunSpZNfTwsd8msH5Pjx4x5aw1e+D5+0BrR8Ti1oqBrfzpw5I1+31rhXNR4eWiNe1mXKlMmjadOmHlpwUY94E6+vR48e8r1qoUXVeng4OTl5JE6c2GPKlCmqxsPj1KlT8vnevXsny+JcrUHukTlz5t/v08u4ceM8TExMVMmbg4ODR4IECTwWLFigajxNnjzZQwtiHjdu3PD3XKKshQcPHR0dj+vXr6taD4+JEyd6GBkZeWihTtV4E9+nBg0aeJiamv7+3hJR5MceBSIiCnfiqr+4Sh3QTVydP3HihBy2I65ci8nM4mq4T2vXrsW5c+fk8qniMa/JumKYjtYox7Jly+SeAn6J48TV+169emHSpEn+rpyLsffiXGNjY1XjmxZCUL58ebmMq9ZAlnXa3055Vb5IkSKBnle8eHHZ4yGWffVL9CCIYThx48ZVNd7E6505c6YcaiQmJouv9a+J78esWbPQqlUrOSzK78RoUW7evLkcTjRw4MDfr1H0rmhhBoaGhrLsk+glEj0KYi8IMX+BiKIGBgUiIgpXoiEphqSIhnFAt4QJE6JatWqycXz48GG58pFfVapUkcOLfDZaxfOuXLlSNk7F+YER54iGvmgAX7lyRdV6MjU1RYkSJVTJPzGMpnv37nKIks9hP2KloOPHj/trRHsRx4v3I4YT+SXmDYhhQIHR19eX4UZsQOcVTv4lEcjEZyWGegX2/kT9sGHDZBASxwpinwYxdOvIkSMBBhzxPRKbzYnvFxFFDQwKREQUrkSjUswT2LZtW6A30YAUY9lFIAiocdq3b98A60WjVkxaFoEjKGJCrggkO3bs8NWIFVfM48ePr0oBE3MNxNf2Gvsv7ovGvNccCUFMChbhQMw7EA18sUOy6C0JSIcOHdS9wIl5EeIK/b/cEM6L+Lri8xRX/4MiPncRhkQvkCAClVhutWHDhrLHQfT0iB6cgEIDEUUNDApERBTuxGo8zZo1C/QmJvAmSJAgwDAgmJiYqHu+iav84up7YOd5EY+L3gMRRnxKmTKluhc48bpEmBCTfr2Ixq8IBWIolLhCLo4Rzy/eh5gcLSZj+x0+5SV58uTqXuDEMSJoiPDxr4lhYmIHaBGGxJChwG7ivQpeYUZs2iZWpRKBQUzwFsO2xPdNDAkTwUmEwYjoISGi0GNQICKiKEs0WEVYCM5V64Cu8Ad21d8n8dziJr6WV1ksxSpWPRIrHIkdpfft2ydfh1gV6O7du1i/fv3v4/0KTmPZ63WJoU//mghVomdA9CyI9xTYTYQY0WMglk71kixZMsyfP18uXSuGIYlVl8RmbidPnpRDvPr168ewQBSFMCgQEVGUlTp1arl86p+IpVFFI95v78OjR4/+GDJEo1hcYRdDkAQxAXry5Mly+dCXL1/K+2LvgKRJk8q5B4EFBC8iSPzJvXv3ZGNdXKX/15IkSSIb80ZGRnKy9p9uAQ37Ej0w4rW3bt1aTtx+9+4d2rVrh6VLl+LgwYPqKCKK7BgUiIgoShINftEQFfsLiN2RgyIa3mI8vVjP3ycx7+BPOymLScuCV6NdDF8S4WL79u1yhZ+Ahj2Jq+0iXAREXGUPKpyIx9atWyfnCPxp7kV4ED0lokdD9AgERTy+Zs0a+dmLlYzEylQBnSM+HzH8SKwuJcLH5cuX1SNEFNkxKBARUZQl5giIhui8efNUjX/i6vioUaPkqjxe4+q9fPv2DRs3bgy04S4a++K5xdKt4uq5FzEkKLBGvFeICGyIjegBEWP5AyN6KUT4EfM6wnLoUXCH/IidrUWvgthwLrDPRdSL5U7Fzs2i50P0ogwdOhRTpkxRR/ino6MjP7OICD9EFDoMCkREFGWlS5dOzhGYOnUqrl275q9hKxrHovF6/vx5GQh8rlQkiKVKJ0yYADMzM3/nirJoLIur5OJcr54DETjE8/rdmVgQZbHajzheTG4WvRWizudxVatWlUOVxJAmv0QwEasipUmTRu5+HFbEkCixc/Kfel4EMTFbvDexI/OKFSsCfI9iCVSxROycOXNkw18MNapdu7Z836KXJqBzxARn8RrEcUQUNTAoEBFRlCUa72JzMNG4FhujiWVUxd4Ftra2cs+EFi1ayI3WRBgQj/sl6kSjuF69evIYMWdBnHvz5k05TElsfiaGCuXOnVud4Tkvom3btnJuwpAhQ+RQJHGOmLArNinr37+/bEiLvSPE+Pw+ffrAzc1NnQ05EVosyyqu3ItJzyKIiPN37dqFbNmyydcvJkmLBntYKanmZoiViObOnYujR4+qRwImJiB37NhRblQnXr+YVyFe4+PHj+XSrQ0aNMDIkSNRv359ebx47tmzZ8vPRmxEt2DBArx69UqeI/ZaEM8hPk/xfGIzOiKKIrSUT0REFC5ev37tsXHjRg8HBwdVEzI2NjYeWkPdw87OTtUE7NevXx4PHjzw0Br8Hrq6uuJytoexsbFHmzZtPCwsLOTjPrm7u3vs2bNHniMe0xrrHp07d/YwNDSU5xoZGXl069bNw9LS0t+5gqurq8fmzZs98ubNK48Xt0yZMnksXrzY4+fPn/KYjx8/ymN27tzpoQUFjx8/fsj3ojWe5dfXwoiHFlR+n58+fXqPOXPmBPhZifO3bdvmcf/+fVXjIV+beD57e3tZFq/z1KlTHnv37vX3mkVZC0EemzZtkudcuHBB1ov3sWXLFg8tAMiyT+I13rlzx6NatWoeWmiRr1H8t2LFivLrBPS5ODs7e2jhx6No0aIeWniQ54jvgxY8fn/WRBR1xBL/p/1DJiIiivIC+pPmNWToT0Jzrt9zgvu1vPzt+f9CWHwuQmR8b0QUNAYFIiIiIiLyh3MUiIiIiIjIHwYFIiIiIiLyh0GBiIgonHGULxFFRQwKRERE4Wzx4sW+lkglIooKOJmZiIgoHDk4OCBTpkxyb4WCBQuqWiKiyI89CkREROHo3LlzsLa2xsSJEzkEiYiiFPYoEBERhZNfv37JnYpv374NAwMDvH79GsbGxupRIqLIjT0KRERE4eTVq1cyJAj29vZYu3atvE9EFBUwKBAREYWTBQsWqHueFi1axEnNRBRlcOgRERFROBA9CClTpsSPHz9UjafTp0+jYsWKqkREFHmxR4GIiCgcHDt2TIYFv4YPH67uERFFbuxRICIiCmPu7u4oXLgw7t69q2q8xYkTBx8+fICpqamqISKKnNijQEREFMbu3bsHc3NzVfJNhAi/cxeIiCIjBgUiIqIwJDrqZ82aJZdG9St2bM8/u1u2bIGzs7O8T0QUWTEoEBERhSFbW1vs3bsXVapUwc6dO1Wtp8GDB+O///6DlZUVjh8/rmqJiCInBgUiIqIwZGZmhv3798sgUKZMGVXrKXv27Jg2bRru3LmDmzdvcqdmIorUOJmZiIgoDIkhR15DjKytrZE8eXJ5X1izZg06dOgg74vjYsWKJW9ERJERexSIiIjCkFdI+BNxHEMCEUVmDApEREREROQPgwIREREREfnDoEBERERERP4wKBARERERkT8MCkRERERE5A+DAhERERER+cOgQERERERE/jAoEBERERGRPwwKRERERETkD4MCERERERH5w6BARERERET+MCgQEREREZE/sTw06j4REVGIiT8j4vb9+3f8+vVL1ZLw7NkzlCpVSpWA0aNHo2/fvqpEXhImTAgdHR3EihVL1RBRZMCgQEREoSL+fDx8+BDDhw/HmTNn4OjoqB4hCpk4ceIgV65cGDt2LOrWrYu4ceOqR4goIjEoEBFRiLm7u6NPnz5YtWoVXF1dVS3R3xE9CiVLlsThw4eRKFEiVUtEEYVBgYiIQkQML+revbsMCfwTQuEhc+bMuHfvHhIkSKBqiCgiMCgQEVGI3LhxQ171dXNzUzVAytSpkDFbRqRNlw6xYnOcOQXfF5vPsHhmgVfPX/r6mWrbti3WrVvHeQtEEYhBgYiIgk38yahUqRLOnj2raoDq9WpiwISBSJIsCRt1FGLiZ8rR3gkHtx7AvEmz4ebqGRbEBOf379/D0NBQlono3+PyqEREFGxiwvLFixdVCUiTPi2GTB4CYxNjhgQKFfFzo2+YAM26NEOthnVULfDjxw+Ym5urEhFFBAYFIiIKtm/fvvmavFy8bAkkTMJJp/T3RGCoWLOiKnmvqkVEEYdBgYiIQi1hokSRridBNDCdfzrj2f3n2LBkvbwd230MH19/hLube5hOwBYTu8XX+un0U7vPkbx/yzhZUnXPk1hdi4giDoMCERFFGyIEXDhmhjZVW6FPy544suswju89ipVzl6NJ+Ybo0bgbHt99rI7+Oz9sf2DqoMmokqsiSmcsIYOI8O7VO9hY2sj7RERRGYMCERFFG5dOXsK4AWNQpnJZrD20HptPbMXmk9uw6fgWLNi0GK4urhjYrh8e3Hqgzgi9vRv24tLZi5iwcBJW7V+LZCk9r4ZPGzIF21Zuk/eJiKIyBgUiIooWfjr+xIrZy1CiXCn0HNkLKdOlRJy4ceRjevp6KFS6EOasnwfDRAmxaPICOVzobzy8+wDFypZA+ZoVkL9ofsTXja8eISKKHhgUiIgoWvhq8xWW7y1RtX41xInjGRD8SpwsMZp3bIH7t81h/cFK1YaOlaUl4uroqBIRUfTDoEBERNGCGFYkNuz65Rb0BNhy1ctj4oIpSGycWNV4e2r+BPPHzUOLSs3kbdaIWTC/Zo5f7r/UEcCNC9exd/MefPv8Fa9fvJT3zx4+gwsnLsj7n6ys8ezRU3n/8M5D6izA7LgZ3rx4DSeHn9i4eCO6NuiMllWaY96YOXj74q08xtnJGbvX70af5r3k15/QbzxuX7olH/PL4okFlk1d+vu1Dm4/EHs37oHLTxf5uJhoLV6rmKchelv88vjlgRtm1+VrDOhxIqI44zTqPhERUZDs7Owwd+5cVQIKFiuEImWKqFLEEr0IJ/Yf1xrpz1C2alnoJdBTj/iWwDABMmTLgPh6uqoGcjWkHSu3Y+LgCbJcpkpZZM+bHa+fvcSKucvxzeYbipYtithxYmPz0s3Yv20vPlvb4NuXb3hs/hjWHz7hzfPXOL7/GKwtP+HLJxs8uvcITx88QaO2TeRzTuyvPbeWN9YtXAsbLUwULl0E6TOlx4WTZtixbjsKlyiC+RPm4dWzV9pjhZAxWyY8f/gM65esQ7qMGZA+a/rfK0yd2ncKw7sNhY5OPJSuUhpZc2WDh7sHtqzchBcPX2h1ZRBXJ672um3lce5uv1CgeEHEju15fVBM+r5y5gpG9BiGQtr3MHfhPJFi9arPVp+xZ/NuVQJq1aqFIkUix88XUUzEnZmJiCjYxE65adKkUSWgU5+u6DGihypFvGM7j2LKsEkwTWmK6vVrIleh3MieOzsSGQe9jOvF4xcwvOcw9BraG407NpGNbEH0JJw+cBoTBo9Fn+H90bRzU1kvtKvZBllzZMfI2SNVjadejXtoISMn+ozpo2o8da7dCbbfv6Nh60Zo1rX570a71XsrdK7fUV7hr1SzknZeP+jE8xzS5OLsgv86DYWdrR2W7lyGeLrx8P2LLVpUaorGWgBp37fD73kY4s/5jfPXMaB9Pyzesgz5S+aX9bvX7sLi6YswevZYVKhVQdbZfLRB14adkSt/LoxdOF4LHJFjCNWTO0/QumYLVQKWLFmCHj0iz88XUUzDoUdERBRtVG1UDXM3LEDaDOmwZtFq9GvTB821RnWPRt2wfPpSPLv/zN/a/K4ubli9YDVKlS+FRh0a/w4JguhBqFSvEpp1aIEtqzbj++fv6pHQEQ39eq3q/w4JgmkqUxQrVRwOP+zRslub3yFBiBc/Hqo3qIH3r97C+afn8KD7N+9pAcYddZvX+x0SBBGEsufLieQpU+DRfe+Nyuq0rItyVcth9piZctlWN1c3TB46CQaGBug/bmCkCQlEFPkwKBARUbQhGuCFShXC7A1zcezOSSzctBj1WzSAi4sLdm/chZZVm6FP0154/uD5743XxJChV88t0KBNI1+NdC/iOZu0a4qP797D/MY9VRs6xcuUkEOffBIN/ESJjZAidUqYpEqmar0l0NfHly9f4KJ2xBZDiNYd2ogkJklk2Sd72x9wcnSCg4O9qvEMGwMnDIZpClMM7/Yf1i9cjwe3zTFkyn9Imtz3BmdERD4xKBARUbRkaGSAouWKovuwHlh9YC3WH92E4VNH4bXFKwzpNAjvLN7J414+fyl3V86cI4ssByRpiqRIkTIlrD5Yq5rQCWgCtRcTU1NfPQ2BMUhkgBTpUsgJyHeu3MHhHYewfv46TOg3DuP6j8GPH3bqSG+GRoYYMvk/vHxqgRVzlmLAmMHIWySvepSIKGAMCkREFOWJ3gEnByc4Ojj+7inwKVbsWEiRJgUatW+EOevn44fdD+xat1MeK+YBIBagl8B7crNf4nx9AwO4u7qpmtCJFYwg8CdiZaRVs1aiZeXmWLdgjZzwnDBxQtRr0QDjF0yEaYrk6kjfjE2MoaunJ9+zkbGRqiUiChyDAhERRXliIvDIHsPRr0VfX0uZBiRzjszImjMrXj9/JctGSTwnOn/7Evj8A7Hk6Mf376Fn4HvYUETYuHgDDmzfh2nLZ2DelgXoP34gGrRtiHzF88HQKGGAk7Yd7R0xvv84pMucHnWa1MO0YZPxzsJzSVYiosAwKBARUZQnrvinSZcWFs9eyF6FoIgr6mJCczy1k3LWnNmQIEECXD13WZYD8uTeUznPIX2W9KomYojAcuboadRsXBs5CuTwFwqcnX7KOQo+ife6YeE6PH/0DMOmamFqbH8YJDTA1KFTYG/nPZeBiMgvBgUiIoryRIO5fI0KcHF2xvYVW+W+CIG5d+0uHt17iNKVS8tyspTJUKpCGexYux2frT/LOp/E1fjls5ciV77cyJEvh6oNmpuaeBzWRG+Jq/bcDj8c/A2xEo8d3HZQbvjm0+WTl7Bl9Wb0Hdkf6bKkk8OUJi+ZhhdPn8uVoMQmdUREAWFQICKiaCFPkTxo3LYZVi9aLXdXfnz3kWxQC2KXYusP1tizfg9G9ByOHHlzoWKdSjJgiFv3/3rIq/Fj+4zB43uP5RKiwtvnbzFl8GQ8e/gEfUf3R3w9z16IoCROkgRXza7gwgkz3LoS8K7KoRU/QXzkL1IAJw4cx5XTV7Rg5CoDgtgXYc3cNXhwyxyZsmXGm+dvYPvVFu9fvseUYZNRr2l9VGtUTT0LkCF7BvQc2hv7t+2D2dHzqpaIyDcGBSIiihbE/ge9RvTCgDGDcOGUGbo26owWFZuicZkGaFK2EdpUb4VFU+ajev0amLpiGhIaJVRnAsnTJMfsdfPg6uKC7o27oGm5RvK8DnXbweLpC8xYOVsGkeBo3rUF4sbVwYB2/TCk40BVGzZEqOkyqBvSpEuDoV0GoVn5RmhSriFaV2+JW5dvYMjU/9CgRUOcOnRSLoU6Y+R0JDNNhs6DuvjaH0I8T63mtVG9Xg1MHzlN7uZMROQXd2YmIqJgi+w7Mwviz5qY3Gz1zgr3bt6Vuxpr7WLkyJMLmXNmhm4CXdlQDog4V/QiXL1wRZYLFiuM9FnTa43sOP7O8frzGVi9F6/HAzteCM5jgtfjYmiVxeOXuHfrjlxStWDRQkibJS3ixIkjjxe9DGKzOC8BPa8Q0HNHpEc3H6FtnVaqxJ2ZiSIagwIREQWbpaUlUqZMqUpAxZqVMW3FdF+NUqLQOrrzKEb3HaFKwOrVq9GxY0dVIqJ/jb/ZiYgo2JIlSwYjI+81+G9fuYVXzzyXGSX6G2IDud0bdqmS1kCJHRsFChRQJSKKCOxRICKiYBN/Mtq1a4eNGzeqGiBV2tQYPnUksuXNFqydhYn8snxvibXzV8ulX72aJaLn6tWrV4gXL54sE9G/x6BAREQhIhpvefPmhb299xr8Ymx88pQpGBQoVGysP+Hnz5+q5InDjogiHoMCERGFiPizcfr0adSsWVOu6U8UlkTYrFWrFvbv3x8pJlgTxWS89ENERCEiGm+VK1fGiRMnkDp1alVL9PfEDtkzZ87Enj17GBKIIgH2KBARUag5OjrCzMwMc+bMwdevX1Ut+eXs7Iz48f+8WVtMJT4bMfelbt26MDU1ZUggiiQYFIiI6K/xT0nQhg8fjvHjx3NibhAYDogiHwYFIiKicPT9+3dkyJAB+/btQ7ly5VQtEVHkxzkKRERE4ej48eMyLIwbN449L0QUpbBHgYiIKJy4u7sjS5YscklZMQ7fwsICqVKlUo8SEUVu7FEgIiIKJzdu3JAhQRATmpcuXcpeBSKKMhgUiIiIwoEIBDNmzFAlTytWrICDg4MqERFFbgwKRERE4eDTp09yfoJPNjY2OHXqlCoREUVuDApEREThYPv27XKfCb+GDRvG4UdEFCVwMjMREVEYc3FxQY4cOfDy5UtV4y127Nh49uwZMmXKpGqIiCIn9igQERGFsWvXrgUYEoRfv37JuQu8TkdEkR17FIiIiMKQ+LNao0YNnDhxAnHjxoWrq6t6BHKJVNHbYGRkhHfv3kFfX189QkQU+bBHgYiIKAxZWVnh4sWL6N+/Py5cuKBqPYlN1zZu3CgDw86dO1UtEVHkxKBAREQUhu7evYvHjx9j9uzZSJ8+var1ZGpqilatWsk5Cjo6Ohx+RESRGoMCERFRGKpevTrSpEmDWLFiqRr/DA0N0bJlyyCPISKKaAwKREREYSi4jX+GBCKK7BgUiIiIiIjIHwYFIiIiIiLyh0GBiIiIiIj8YVAgIiIiIiJ/GBSIiIiIiMgfBgUiIiIiIvKHQYGIiIiIiPxhUCAiIiIiIn8YFIiIiIiIyB8GBSIiIiIi8odBgYiIiIiI/GFQICIiIiIif2J5aNR9IiKiEHF1dcW9e/ewbNkyvH37VtWSF3t7ezx8+FCVgBQpUiBt2rSqRF6SJUuGFi1aoFy5cjAwMECsWLHUI0QUkRgUiIgoVERAaN68OZ4+fQr+KaGwYGRkhIULF6JVq1YMC0SRAIMCERGF2K1bt1C2bFk4OjqqGqKwESdOHMyYMQMDBgxgWCCKYAwKREQUIh8+fECePHnw7ds3VQPEjh0biRIZQSdePFVDFDy/3N1ha/tdDmPzaefOnWjcuLEqEVFEYFAgIqJgE38yxo4di4kTJ6oaMb7cFEP+G4NChYtDTy+BqiUKHjd3N7y0eIaF82fg1s1rqhbIkCGDHNamo6OjaojoX2NQICKiYHN3d4epqSm+fPkiywYGhli9bicKFiomy0Sh9fXLZ7Rv2wCPHz2Q5bhx48p5MDlz5pRlIvr3uDwqEREFm42Nze+QIBQtVgr58hdSJaLQS2KcFO06dFMlwM3NDTdu3FAlIooIDApERBRsovHmU9Zs2REnTlxVIvo7mTJlVfc8cbI8UcRiUCAiohjH3v4HalUviVkzxquaoN28cQWVyhWApeV7VUPhgaGTKHJhUCAiohjJ0dEBLi7OqhS0X7/c5fGc1kdEMQmDAhER0R+kz5AZU2csRKJEiVUNEVH0x6BARET0ByYmyVG+QjXo6xuoGiKi6I9BgYiI6A/evXuNTRtWws7uuyyLYUjnz52UZVvbb9i1YyM6tG2E9m0bYt6cyXj0yFwe55e7u5uc7zB9ymh5bM9urbFzxwZ8//5VHeHbo4fmmD9vqjxW3KZOHonLl87j169f6ghP27etw6qVC+XQqEcP72HOrIkYMqj779dLRBQaDApERER/YPnxPRYvnCknQQs2n6wwqH8XXLl8Hu1bN8C+vduRPUcuZMyYGceO7pd1584e9zWnwcXZWU6e7tyhKSwsniFHjtwwTpoMixfMQpuWdfH6tYU60nNOxLYta9CuTX3cv3cb2bPnQvZsOWVw6N6lBTasX+bruV+/ssCzp4+wZ/cWGVgeP76PTJmzIS4nBxPRX2BQICIiCqW1qxejdbvOWLdxH/4bPgFjxs3A7n1nkEELDLNnTMTPn07qSGDPni3Yvm0DZs1dhhWrt8vjJ06ei30HzyJDhszo07O97KkQnj55qIWKCRg0ZAxWrd2JYSMmYtjISVi/aR969x2KRQtm+luBycrqIzasW4Ylyzdhxart6N5jABJwqBQR/QUGBSIiolAyNjZF/QYt5C7CXsQ8hnbtu+HZs8f4/PmTrBOBYdmSuWjbrisqVqoh67wYJTbGiNGT8fWrDU6dPCLrLl08i+TJU6F2nUay7CV27DioXqMuXFxcZC+CT7duXEXf/sNRqHBxxIoVS9USEYUegwIREVEoNW7aEnHixFElb6lSp5PzCH46efYoPNdCg+gtqN+wudbY9/+nV4SCIkVK4Ob1y3JIUdVqdTF7/gokSJBAHeFNDH9yc3WFg4Nn74OXZMlMUbZcFVUiIvp7DApEREShZJzURN3zLV68eOqep3v3bsHB3gEzpo5Fv94dArw9eHAPjx7dh5ubK9Kmy4Bs2XJpocAe983v4NTJw9ixbT3GjxmMieOH+dshW8iaLQd0dHRUiYjo7zEoEBERhTMnJ0fEjhMbCRMZwcAwYYC3YsXLoELFavJ40Wswd9ZENKpfCTOnj8XJ44fh4GCPMuUqY9jIiQEGgjg+hj8REYUFBgUiIqJwJjZqS6CXAEP+G4vJU+cHeuvVZ4gWAuJh4rihOHnyCBYtXY+1G/Zi2szF6NCpFypWqi73dOAcBCL6FxgUiIiIwlnu3Pk8JyD7WALVr0Xzp2P1yoWwt7fD4cP70LP3YDn8SMyB8BkMftjZ+dtHgYgoPDAoEBERhbPMWXIgibExNm9cpQUGZ1Xr7e2bV9iwfgWSJjORgUJMVhabs/ncK0EQdVs3r4Gr9jgRUXhjUCAiohjr29cvePr0UZC3L59t1NGhJyY3i6VLjx89iOlTx/zeiVlMSn7x/AmGDOyGLFmzo2q12nKYUpYs2bFp/Uq8evlc9h64u7vD2tpS7rhs7/ADenp6eP/ujZz7QEQUXhgUiIgoxtq3dwdqVy8V5G3rljXq6L9Tu05DjBg1CYcP7UWTBlXQqnlttGxWS97i6uhg6vSFWgDQl0ONho+ejE+frNHy9zE10axxNVi8eIahwyagStWamDt7ElatWKienYgo7MXy8NuvSUREFIj3798jTZo0qgR079kfg4aMVaWoQ1ylF1f13d3/PNZfP4G+XGXI7ocdjIwSy4a8GAL0/ds3uYpRQCsQiSVOv2mPJ06cxNdmbOLr2thYyf0Snj17ijixY6Ns+UrIniMPdHX11FGQQ46+fLHBzRtX8PjRA7mfQrESpZEzZ17EixdfbuBma/tdbu5mYGAIB3t7+ZrE64nK7pvfRsN6lVQJWLJkCXr06KFKRPSvMSgQEVGw+Q0Krdt0wpjxM7kKD4WJixdOo0PbxqoELFu2DN26dVMlIvrXOPSIiIiCzcjI9xX0G9evyFV6iMLC2TPH1T1PJiYBb2hHRP8GgwIREQWbvr4+ChUqpEqQk33nzZkiNwhjBzWFlqurCw4d3I2d2zerGs+ftXLlyqkSEUUEDj0iIqIQuXDhAipUqCBX4vGSPUcuFCtWCoYJE6oaouARzZAb16/i7p0bcmlYL82aNcPWrVs5rI0oAjEoEBFRiIgJuQ0aNMCBAwdUDVHYSpo0KZ49e4bEiROrGiKKCBx6REREIRI7dmzs2bMH9erVkysAEYUV0XuQPXt23L9/nyGBKBJgUCAiohATAUGEhdOnT6NYsWIyPBCFlggIqVOnxoIFC3Djxg0kT55cPUJEEYlDj4iI6K+IoUg/fvyAra2tqiG/li9fjo4dOwa45wJB7jSdJEkSGTg5J4Eo8mBQICIiCkeurq5yOM2xY8eQJUsWVUtEFPmxr5iIiCgc3bt3D69fv5bDaoiIohL2KBAREYUT8Se2SpUqci6HGFrz5s0bGBgYqEeJiCI39igQERGFk2/fvuH8+fPy/tevX7mkLBFFKQwKRERE4WTx4sVwc3NTJcjhR2LyNxFRVMChR0REROFATGIWk5fFcCMvYkUfMWchT548qoaIKPJijwIREVE4MDMzw7t371TJk7g2N2fOHFUiIorcGBSIiIjCmAgEYu+EgIYZbd68We47QUQU2TEoEBERhbH3799j3759quSbmLOwf/9+VSIiirwYFIiIiMKYGF4k5igERPQ2TJs2zdckZyKiyIhBgYiIKAy5uLhg1apVSJUqFfr06aNqPdWoUQMlSpTAs2fPcP36dVVLRBQ5MSgQERGFoRMnTqBfv354+vQpRo4cqWo9NWnSBBcvXpTDknbv3i17F4iIIisuj0pERBSGHB0doaenJ5dCtba2RvLkydUjwJo1a9ChQwd5/+fPn4gfP748jogoMmKPAhERURhKkCBBsBr/urq6DAlEFKkxKBARERERkT8MCkRERERE5A+DAhERERER+cOgQERERERE/jAoEBFRqIhF83gL+uZ3UzVRDug43iLvjSgm4/KoREQULOLPhZOTEx4+fIjXr1/j6tWruH37Nr59+6aOIL/EEqhiPwUvpqamvpZLpcjNxMQEFSpUQI4cOZAlSxZkypSJS9pSjMKgQEREQXJwcMCZM2ewbt06nD59Gra2tuoRophDhIMkSZKgfPny6NixIypXrox48eKpR4miJwYFIiLyR/xp+P79O2bOnInFixfjx48fHIZBpMSOHVuGhmnTpqFVq1bsZaBoi0GBiIh8EcNllixZgjFjxsjehMAkMzFBooSJkEA/AWLH4pS3gPx0/oknjx+rEpAiZUqYmpiqEkVmvzx+wd7eAV+/fJahOTDJkiXD/Pnz0axZMxkgiKITBgUiIvrt/fv3aNCgAW7duuWvByFu3LgoUaIkKleugiJFiyBjhgzQS5AAuryaGqinz56jTOmSqgQMHzESA/r3VyWKzMTPvwjN9vb2ePHCAlevXsGJEydw585t/Pr1Sx3lSfz8161bF2vXrkXixIlVLVHUx6BARESyUSTmH9SpU0c2jnwSk2/btGmLNm3bIl3atLJRxGAQPE+ePEWRIoVUCRg9ZhyGDhmsShSViH8j4iYmpy9esgQHDxzA169f1KOeYUGEBBEmChXy/p4TRWXsIyMiiuFE42f37t2oVauWr5Cgr6+Pnj174cyZs3IYUob06eXQCoYEionEz734+RcrIC2YPx8nTp5E4yZN5fwEQfw7+vr1K8qVK4fDhw/LMlFUx6BARBSDeYWEli1bwsXFRdUCadOmw+49ezFlyhSkSZNG1RKRIAJDtqxZsXzZMqxYsQomPuadiHk9TZs2lT0LRFEdgwIRUQwlQsL58+dlSHB1dZV14qppxYqVcPLkKZQqWRJx4sSR9UTkn1getWHDBjIUFChQUNUCjo6OqF+/Pt69e6dqiKImBgUiohhKDJNo3Ljx75AgNGrUGOvWr0fKlClUDRH9idiIbeOmTShcuLCq8Vw9TOy5YGdnp2qIoh4GBSKiGMjNzQ01atTAly/ekzHFikZz581DYiMjVUNEwSUm+m/atBk5c+ZUNcCrV68wdOhQzlegKItBgYgoBtq+fTtu3LihSkDGjBmxbNkyGCVKpGqIKKRSpUqFFStXwdDQUJZFQFi1ahXu3Lkjy0RRDYMCEVEMI4ZEDBs2TJUAHR0dTJ48RYYFIvo7efPkwegxY39vvubu7i4nN/vde4EoKuA+CkREMczy5cvRo0eP38MhmjRthtWrVoV62VPREBKbUjk5OcHZ2VnVkmBh8RL16tVRJaBP3/7o1rWLKpEgGtQGBgZyOV4xOTg6ECsfNdHCwQWz86oGOH78OKpWrapKRFEDgwIRUQwiGvVZsmSRY6cF0Tg7b3ZBLvUYUuK5zC5cwMYNG3Dn7h18sv4EOztb9ShR8IiVtdKkSYtMmTOhcaPGcmdw8XMZ1Z03M0OD+vV+LxZQrVo1HD16lPuQUJTCoEBEFIOYm5sjf/78v3sTWrRshaVLloR4GVQxGXrs2LFYsWIFfv50UrVEf0f0LpQtWw4LFy5EunTponSjWgTp6tWr4+rVK7Ksq6uL58+fI3Xq1LJMFBVwjgIRUQwyfvz43yFBDPNo3apViEOCuEI6YsQILFgwnyGBwpQYx3/u3Fm0aNEcNjY2qjZqEv+uOnbsqEqec4O4CRtFNexRICKKIcSv+6RJk8r9EwSx9ruZ2QUkTJhQloPr8OHDaNO2DVx97OScOEli5MiREXHjcoM2CikPvH1jjdev36qypy5dumLOnDmqFDV9/PgRxYoVw/fv32SZw48oqmFQICKKIURASJYs2e/VV9q0aYslS5bI+8ElJis3atwY58+dVTVAhQrFsWDRYKRIkZgNIAqVHz+csGb1YUydsvL3mP5ERka4fPkK0qZJI8tRkYsWpsWcCzM1qdlIe0+ipyRu3LiyTBTZMSgQEcUQz549Q/bs2X8PPZo7dx46d+4s7wfXh48fUCB/frnCkZAqdQqcObtUhgSiv+Hu9ksLrxNw6KB3CF22bDlatWqlSlHTlClTMHXqFFUC3rx5g7Rp06oSUeTGOQpERDHE1atXf4cEMX46T5688n5IfP785XdIEMqVLQRTU+7kTH8vTtzYaNasmip5evvunboXdaVLn17d8+RzN3SiyI5BgYgohnj71nsMuFhdRgxD+lsmpsm05wq74UZubu74+NEGX7/Y/g41oeHk5Cyfx909+JtcOTu7ynNcXd1VTfCI86ysvsibuB9Sv3554NOnb/L8P71n8biNduz3bz9UTfSSIqXvn0mxclBUlzJFCnXP048f0fN7R9ETgwIRUQwhNoHyEksLCoYJDVUp8jh31hzZs4q19Ifj58+QN7q9HDt2DblyNMWXL46q5s9u3Xoqv/aLF1aq5s9u3HiGFs3HIXfO5trXa4YmjUfj0sWH6tHgcXJyRZ3ag5E3d0tcu/pU1QZMhJi6dQZh2LAVqiZ6iY5zXMSyqF67NAteczCIogIGBSIiijS2bj2BdOlS49HDFzA3f61qIydrazu0bzcWceLEwuGjC3Di1BIkTZoIrVuNwPv3IR9eIpbPHDJkHr5/9w50FDKWllZ48vSJKkUOSZIkgaGh98piPgM7UWTHoEBERJHC8+eWOH3qMmbOGowcOTNh9ap96pHIaffuM7D/YY9ly4ehWLEcKFQoK+YvGIAECfSwfdspdVTwZc+RBS8t3mHKlI2/V6aiP7O3t8fJU6fQsmVLVKpUEUmN/35IXVgSvQlcDYyiKgYFIiKKFA4dvIRkJklRsVIeNGpUGadOXoWNTeQdz+3k5CInhSdIEE/VAPr68ZEokaF8LKQKFMiOvv1aY/3afTh37r6qpcC8e/8e8+bPQ61aNdGoYQMcPHgAffr2hbFxEnUEEf0tBgUiIopwdnZO2L3rFJo0qYx48eKibr0yciy3CA+BcXR0xvLlB1G75hDkyN4EVSr3w7y5u2FrG/i8BDHZeNOmk2jYYIQ8p1zZnpg2bStsPtmpI4KvfLmC8vnMzt+Xk4zFzfzeK7z/YI0yZfKpo4JPXHnu0aOeFhhyYtSIxfj0yVY9EjwuLm5Yt+4YGjb0fG+FC7ZD/34L8PDhWzlh2qdOHadjzeojnuesPYY6tYeiWdNx8jgzM3M5x0OEnRXLD6FKpb7y+RrWH6F9P67I3g4xyXjjxhOoW+c/+VjVyv2xZPG+UE3mDi7x+YqficuXL6NLly4oU7o0Ro8ahdu3b8vH8uXLj8aNGsljxP4Ff7q5ubnJ84gocAwKREQU4a5de4K37yy1oFBRljNkMEHZskWwY/uJACc1f7K2Rf26/2Hu7I0oXDQnRoxoj/r1y+LMmeuoW3tQgI3sb98c0Kb1BIweuURr3GbA8OHt0bJlFdy6+RhVq/bGu3chm1dQqHBm1KpVHhPGr8DHj1/x+PE79O07CzVrlEHpMrnVUSGTMFECzJs/CG/fftSed43WoHVTjwTNxsYO7dtOxrgxS5EhfUoM095b124NtPdkjcoVu2G1Fgp8rgD1+bOtdo4tevaYjQULtqJ48Txo374GxAiZ48duYPu20+jXdz727z+Lxtr3ZOjQtjBMqI/27UZrweKE1kBfi507zmjvv7j8HPPkzYKJE5Zj+LDl4dL4/vDhA1atWiV3Nq5WrSq2bduKL18+q0c9iV2Qq2qPFSte7I+3EiVLonbt2hg0aBD27Nkrn/+XB4d7EfnFDdeIiGKI4cOHY9q0afJ+vPjx8eTJUyRLmlSWg+ueuTlKlyqpSkD/AR0wYWJ7VQq99u2mwtXVBevWj4KOThxZt2/fZXTvOgEHDs1H0aLZZJ0gVv4ZOGChHJq0c/d05M6dTj3iORxo9KiVMDO7g+fPLPD0+UGYmBjIq+ATJ2zQGrn7sXnrFJQsmUOdIXoZ3DB3znbs3XNOa+w/w7UbW5AjRyr1aNCsrL6jXt3BSJTQQAadxo2rYMjQlkikNfiDy8HBBRUr9EDBgrmwdNlAWbd0yUGMGb0QK1eNRf0GpWSdIIJDuTJdkS9/LixbPkjWic9jyOAlOHzoPHbsmo78+TP+HhMvjp8xfSsWLtiEvfvnau87p6yvV3cEHB2cYGycCAsWDdA+o0SyXhg5YrX2WZxG5SrFMH1GD+jpeQ6tEl+nWZNRWqgzR5GiebFl6zgkSBBfPiZCyIL5ezBnznpcvrIOadIYy/qQunHDApUqdFQloEWLVnLOx5GjR2CpBYHwkiJlSi3g1USXrl2RM0eOMJ1T8Pz5c1SsWBHfv3+T5f3796Nu3bryPlFkxx4FIiKKUB8+fMOxo+fRrFnV3yFBKF8+H4yTGmPPrrO+hs68emWpNWRPYey4Hr5CgiAataNGt0fcuL7/vH35Yi9DwoBBbVGiRHZV6yl+/LgYOKgpEicO2XKxouF88aI57OzscfvOQxQvnl97Te1DFBIC0659VVSqXALD/lugNZA9G5iBefHiA3ZsP6a9764oUCCTr0auGMYl3lsx7bXNmrnF19X+t28/YOq0Hr5CgpfPnz9j2PC2v0OCIL43DRtVxo8f9ujVu8nvkCDEiRMbtWqXxi8tMLx6+UHV/r1kJiaoUqWKFtxyal/v7z/XwIgQsnr1KlQoXw5jxo7F169f1SNEMRuDAhERRagd208jVSpTlK+QX9V4SpgwAerWLYfdu09rjXHveQe3b1toDeB4qFAx4J2ljYz0Ub++5xAmLw8evNEa9q6oVq1wgFeL48XTQfOW1VXpzxwcfmLUyFXabbHWoO6AlasmyBWbtm458zvU2No6aQ1ue3k/pEQjfOy4TnI4zMiRy4IcgnTu7B0YJjRAzVrFVI1v4rkaNa6ICxeua6/He2nOIkVzI116E1XyLXfuHEiZMrEqeRNfJ2HChMiWNbWq8aanF1+O+//2LehgExJ6erqoVasW9uzejVOnz2DAgIFIm9Z3OPSSOHFiLQSWRMmSf74VLlwYGTNmkj9HPoldx+fNnYOGDRvi0aNHnMNAMR6DAhERRZgfP35i+7ajME6aWAsEp7B27cHft/XrD2kN5J+wtv6EkydvqjOAVy/fIqUWLAwMAr/CnDqN7yUyxTlJkhjB2Nh/49dLGj/nBEYMY5o2dQsOHjyLnTunoV27aqhXrzj69m+NsWOW4M7tF/K4JYv3Y8TwlfJ+aOTIkRZD/2uPfXtPYfcuM1Xr3717T7XGc3IYGgb+eeTLmxk6ceNqn+V3VQNkypQ20F21kxj772XwYpjQEHoJdFXp3xCrS+XJnRvjx4/HmTNnsGr1GpQuU0Y96klf3wBr1qzB8eMn/ng7ceIkzpw9iyNHjsrwYWJqqp7F061bN2VYuHXrlqohipkYFIiIKMJcvvwAr159gOVHS8yZvdnf7cSJy0iY0ABbNh//PRn3+3dbOdQlqGHkYjiRT+Ic0SgOrGEs+D0nMI8fvcfiRZsxY2Z/5M6TXtaJ5+3btyFq1S6P9u3Hae/JGg8fPtNe599NkG3fvjrq1KmEUaMW48ULS1Xrm+htEK9dfCaBiR8/vmxsu7m5qxrxmgM/PnYYjtEPS6I3yFRr1Ddr2hQHDxzUfn6uonuPnjAxMcWHD+8xZ86cYPUC6OjowDhJEhQrVkyGj+vXb6Bfv/5a2PIefiaer1WrVnj0+JGqIYp5GBSIiChCiEbr5k3H5HKgd8234P6DbQHeJk7qjWtX72oN7zfyvMyZM+LHD0c5RyAwXz773n9BnOP00wU/tVtgPvs5JzBXr5ojRUoTFC2a09cwpvjxdTBpchekTZMcbVqN016zOcqXL6QeDZ24ceNg3IRO0E+gi5EjlsmJ136lSGGMr18dglyaVEy0dnR00hrCeqom6osbNy7y5MmNmTNm4NKlS5g7d76cOPzo8WN1RPCI76EIDRMmTMDGjZu0IJJcPSJWUvqAXj174cuXkO+0TRQdMCgQEVGE+PDhC86dvY6mzasGeXW7Zq1S8mr4wQOX5NXizJlT4dWrN3j9ykod4Zub2y9cv/5QlTxlzJQSn6xttLDxMsArzqLu6pUHqhQ0Ma5dzEMIaPdkMT9i4eIh+GhprT0Of/MuQiN9ehOMGtMVZ89cwYYNJ/y9/lKlCuLJk+d48SLgVYHEa71wwRzGSZOEejWiyC558uTo1Kkjtm/fjpQpU6jakBE/g5UqVcLWbdvlJGovN2/ewKJFi4PVU0EU3TAoEBFRhNi+/bRc+rJataIBTjD2YmqaUA7p2bXrJL5+tUeBgpmRM0cWzJ+/M8BJvleuPMKZ09d9PWeWLClQvHgBLFm8Gw4OzqrWm9gDYbf2/EEFFi9FiuSCtZUN9u01k41wn8TwqPvmr+Bg7yiXw9yy+WSAgSIkxPto1KiMFqhqYcqk5Xj71ndAKlkqJ7Jny4RpU9YH2ONw754FNm44gA4d6mkhx3tVqehIrIyU2CjweSjBUaRwIaxYvgL6+vqqBli8eJH2MxKyngqi6IBBgYiI/jmxidqeXadRqXJxpEjx54Zdy1bV5ITka1cfy6v2g4e2waGDp+UGX+/ff5VXe+3tnXHgwFV06zoJzbRGtZ6e9zAbMSzov+HtcPXKHfTrOw+vX32S5zg5ueLkiTto1XIkGjaqJlf0+ZPMWZJrx1aVG4wtX7ZfDvsRrK1tMX3aFvTuNRl9+7XCqNE9MG/uJpw8eUc+/jfE/IOxY9sjWbIk2vv0vfO0+DzGju+Ky5dvo2+fuXj69IMMMOIzPn78Fjq0n4Bs2TKgc5fa6gz6kwoVKqBdO+/9QZycHLF02TJVIoo5GBSIiOifu3zpodbA/oZGjSvIicB/IvYHKFw4D/bsOSsb+PXqlcSqNePlpmtlSnVE5owNUCBfC7kz8YiRndG0WTkkSmQAnx0VZcvmwZat03Df/DkqlO8qz8mbuxkGDZyNTp0bolu3Wto5+n98PWLewMxZvdGqdR1MmbwahQq0RKYM9VGiWHvs2HEcc+YOxn/DWqJP3wZawKmN0SPF1eh36uyAiRWLfO5LEJCkSRNqX7c/TE2T+ju2SpVC2LR5Cm7deoRqVXoiS6b6yJWjCbp0GocSxfNh46ZxWsjwXslIX18Xurq+lwb1IurF4wEReykkTKjv63P1Ino+xGeuoxO8SeGRmRjqNnjwECROnETVACeOH5O7PxPFJNyZmYgohojMOzOHlhhGJIbWvHv3ASlTJkehQln/2OAWV9rv33+Nly9fa43npFoAyaE1fkO33Ke1tR3u3H4EW7sfSJM6JfIXyKJ9ff8NcDEkKLirKv0N8XXu338JC4s30NPVRYGCuZA6dWJfw7Ais2vXXqBKpU6qBC1wDceokSNV6d8boX3thQvmqxKwbt16NGrUSJWChzszU1TGHgUiIgq1t2/f+xun/y/p68dHyZI50axZFZQpk+ePIUHQ1dVBkSJZ5DkVKxYIdUgQxPyJ6jWKy+cqWSpXgCFB+BchQRBfp3DhrPL11K1XBmnSJIkyIUF49cp3z4tYxjQi1a5VS93zdOPGDXWPKGZgUCAiomBLmSIFjIyMVAk4e+YGnj37oEpEoSeWrt286agqiaFMsZE1SxZVihjZsmVD+vQZVElMDL8HF5fAl9glim449IiIKIYIi6FHrq6uaNuuLQ4dPKhqgHz5cmLGrL7IkSN9sOYbEPllZfUVC+Ztx6ZNB36vEiU2Ubty5Yr2X++lSv81p58/UaNGDdy66dmTkDNXLi0cn4VYXSm4OPSIojIGBSKiGCIsgoJw7tw5NG3aBE5OTqoGcoUhY+NEiMWgQCGltULsHZzw7et3VeFpyND/MGb0aFWKGKKJVK9eXZw9e1aW02fIgCuXr8DAwECWg4NBgaIyBgUiohgirIKCuOI7b948TJo0UfYwEIW1ypWrYPPmzSG6ch9e6tevh9OnT8v7DAoU03COAhERhYjYlKxPnz6YOm26r+Ujif6WmHjdoUNHrFixIlKEBKKYjj0KREQxRFj1KHgRPQsvX77C7t27cObMWTx9+hg/f/5Uj5IgPiOfQ7R0dOIhXryIXcknMsqSNSvy5M6LFi2ao3jx4hG+2pFP7FGgmIxBgYgohgjroEB/Jj7jIkUKqRIwesw4DB0yWJUoKmBQoJiMQ4+IiIiIiMgfBgUiIiIiIvKHQYGIiIiIiPxhUCAiIiIiIn8YFIiIiIiIyB+uekREFEOEx6pHLi4uuH3nDq5evQabT9ZyJ1vyZmf3A6dPn1IlIEeOnMiePZsqkRdDw4TImSsnypUrB6NEiVRt5MBVjygmY1AgIoohwjIoiD8dDx8+xIgRI3DlymXun0B/LU6cOMicOQtGjByJelpDWpQjAwYFisk49IiIiELswoULqFmzBs6ePcOQQGHC3d0dT58+QZfOnbB4yWK4ubmpR4goojAoEBFRiLx6/Rq9evfCt2+eV0iJwpIYzjZ+3HgcOnxY1RBRROHQIyKiGCIshh79+vULQ4cOxfLly1QNoKunh5bd+6JE5RpIYJhQ1RIFj6uLMywemGP9gpl4+/KFqgVy5syFc+fOQU/7+YpIHHpEMRmDAhFRDBEWQcHW9jtKliyFt2/fyLJ4nkkrNqF4tdqyTBRaVq9fol+TGrB891aWdXR0tEb1AZQpU0aWIwqDAsVkHHpERETB9tHS6ndIEPIXK4XCFaqqElHoJU+fEU0691IlwNXVFXfu3lUlIooIDApERBRsYvy4Tzny5kfcePFUiejv5CpQWN3zZGdnp+4RUURgUCAiolCLFYt/RijsxNXRUfeIKDLgb3giIiKNy08njGjTCC1L5gny1rZsAbx+ZK7OijhiEvDAJjWxZ8VCVUNEFLYYFIiIiDRibQ/rD+9gZGSEJl17B3pr1LkXjJIlV2dFIO31Wr17A7tvX1UFEVHYYlAgIiLyIX3mrGjQvlugt3ptO2tBwUQdTUQUfTEoEBERERGRPwwKREREf+HXL3e8efIQu5bNw+Q+nTB7SG9cPX4Qjj8CXrHH/vs3nNu3HXOG9tGO74y9qxbjg8UzOfTJL1H33cYaZ/dsw/QB3TFzUE+c2rkJdl8+qyOIiMIPgwIREVEoubu5YdfyBehVvzLOHtijteyB71ojfvqgXhjepgFs3ntuHubl5cN7GNC4BhaNGw7br1/goYWMw1vXo1c97XwtDPj14Ool9G1QBSumjsVPJ0ft5oTdq5aiX6NqsDC/o44iIgofDApEREShdPnofqyZNRk9RkzAvH0nMXLRaoxftQXLj12Arq4exnZtJVdTEmw/f8KEnu2RLHkKrDp1FeNWbNKOX4NFB8+iff+hmDNyIO6YnZHHClZvXmJy307IkC2n9nwXMWbpeoxavAYLDp5B3VYdsXjcMDg62KujiYjCHoMCERGRDzcvmWFUx+aB3t48fiCPc3Nx1kLCJNRu3hY1WneETrz4sj527NgwSZ0Og2YshNX7d7h8/JCsP7FzM5wcHDBo5iIYJTVBLO24WLFiQTeBPup17IkyVWpi+/IF2vO6wOPXL+xbuxxx4sbF0DlLkdA4mTxW3MTXqdexO3IVKYavNp/kcxMRhQcGBSIiIh/i6+ohcTKTQG9eO1F/sHiOz5+sUatVey0cxJF1PpmkzYACxUvh3mUzWb52+jgq12uMJMlTyrJPIjTUaNYaFg/NYff1M346OuCm2RlUqN0Q+okSq6O8xY4TB9WbtYVhwoSqhogo7DEoEBER+ZCnUBEMmr4g0FuqTFnlcfdvXYeToyP2rF2B+aMGBXh7bfECD+/exk8He9y7eQ2P793BgtGDAzz24LaNsLaylHs5OGnHf7a2RJ4ixeTXCkiylKmgb8igQEThh0GBiIgoFJy1xrzcpO3je1i+eR3gLVnK1MhVuBh+2tvJY+1svwV4nLj9sLVFySo1EV9XF05OTvj65Qt09RKor+ZfPF09xNXx7N0gIgoPDApEREShoGtgCL0E+hg1fyWmbdwd6K3f5DnQT2wshxfVa9UhwGN83jLmygc9PT0YJ00KJ0cH9dX8c9HChKuriyoREYU9BgUiIqJQyJY7r5x0bPnmparx78C65fIWN64OcubOh9dPH8lzAvJWe2z+iAH4ZmMNPX0DGJskx/0bV9Wj/n368A4OdgHv1UBEFBYYFIiIiEIhbdacMDQywoENq+Dm6qpqvX21/IAN86Yjlvhf7NgoWK4izh7eD8vXAQeL3SsXweLBPRkSdLVb4TIVcPbgHjh8/6qO8PbL3R1Ht22AfSCbuhERhQUGBSIiolCIp6eH1r0H4djeHdgyfzqcnRxlvegx+GpthTn/9UWixElQsUETWV+rZQfEix8fY7u1gc2Hd/ilHSfmLbj8/Imjm9fg1IE9aNq1t1wuVSyD2qBTDzg7O2NK3y74Zm0pn1cc7+zkJDd5u3nxHHLnzS+fm4goPDAoEBERhVKNlu3RadAI7Fi5GH3qVsQ4LQSM7tQc3aqXguX7txi5cPXv5U2TpkyNCSs3w8PdDV2rlcKoDs3k8f0aVMai8cPRceAwlKheVx4rmKbNgPHLN+L9qxfoXrMsxnRuibFdW6NPnQo4sXsrhs1dBqNkJupoIqKwx6BARESk0Ymvi7ErNqH90LGq5s/ixNVBs96DsHj/KdRo2goJDAyQyDgZ+k+ejTm7jiJj7nzqSE9Z8xfG3N3HMHDKXJimSg19Q0NUrNcYC/edQsOufeUGaz7lKloS83efQO+x02QoMDYxQbsBwzBPew7xXH2mzEPd9t3U0UREYYtBgYiISCN2VE6bOStMUqdVNcETJ05cpMueCw269MHQ2UsxZNZilKpZH4mSJFVH+GaY2Bhl6jZCPy0siOObdO+PjDnzyHkMfokhSEYmpvJ4sYdDv8lzUapWfRgYJZGPp0iXAUlMk8v7RERhjUGBiIiIiIj8YVAgIiIiIiJ/GBSIiIiIiMgfBgUiIiIiIvKHQYGIiIiIiPxhUCAiIiIiIn8YFIiIiIiIyB8GBSIiIiIi8odBgYiIiIiI/GFQICKiaOPg+pVoXTr/H2/bFsxUZ8Rcj25ek5+Fzfu3qoaIyDcGBSIiijbsvn3BZ8sPqN6kBRp06BroLVfREuqMmMvZyRFvXzyFu6urqiEi8o1BgYiIohVdPT3UadkejTr1DPSWp3hpdTQREQWGQYGIiIiIiPxhUCAiohhPDMO5duooFo0Zgqn9u2LzvGl4eucG3N18D8v5/OEdFowahJ/2P/DT0QFXjx/CwpGDYH7xHJ6a38GP79/Ukd7Ec7x8/AAfX79UNb59/WSF108f4devX6oGsrx31WL5WsTtwNpleP/yuXrU28H1K3DxyH54eHjg7bPH2Ll0LtbNnAg3Vxf5uIfHL7x6dB87l8yRz7N66hjcv2IGNxdn+TgRUVAYFIiIKEazfvsKE7q2wugurWVj3NXFBTfOn8ag5nUw77++cNJCgRd7LQic2bdTTgAW58we1g/WH9/Lhvng5rVxaudmdaS3T+/eon+jahjdsZm/4PHL3R2LtKCxcNRgeV/cjm5chb4NquLM/l1wdXbWAokjdq5agl51KuLmmePqTE/3Lpvh2b3bOL51Hfpo51w6cVh7LdrX8NACivbfzfOmo2/Dajh/eL98rlfPnmBav26YMaA7XH46qWchIgoYgwIREcVYouE/qWcHfLKyxJqTlzFl/W6MWbIOs3YcxoTlG2F29CCWjvvPs/GtiCv/WxbOgkmK1Fh18iomrN6KghWqoli5Srhw/BDctKDh08MbVxAnThxYf3iHDy+eqVpPTvb2uK019ivVbYg4cePKYxdNHIVeoydhzu7jGK29lnHa61h+7CKKl6+MheOGwcFPr8Xb50+wZ80y+Xpn7TiCziMmII6ODk7u2IQNC2ahx8iJmLv3hHyuCau3YeGBM7D79lX2RhARBYVBgYiIohV7OztMG9QTY7q0CvC2f+0ydSRwevdWvHr+FCPnr0TqzNkQW2vQC3F14qFg+SroN2kWTu7bCYv7d2S94PzTCQ72P9B9/HQkSpoMsWN7/imtXL8JXjw0l0OJvLi7u+PauVOo2rA50mbIjFsXzqpHPD27e0Mek7dEWVm+cuIwMmXLjspN20AnXjzEihVL3hIYJkT9dl1g9e4NPlt7P79w8+J5dNfCQL7S5eXrFhzsbLFx4Uw0btcZ1Vt10J4rvnwe8VqTJE+BkYtW4+Vz36GFiMgvBgUiIopWRIPYIGEiGCYyCvCmq5dAHQmcPbALJSpVQ9psOVWNb8Wr1ESKNOlw7uBuVeP5/OXrNYZuAn1V4ylbgSLyuZ/fu6VqtFDh4CD3KyhctiKKVKisBYVzcHdzU48Cl44fRpZceZA8XQYxoQClq9dG91GTf4cPn8SwJCcnJzj5GTKUKn0G5C1VTpU8vX3yAJ8sLVGxUfMAn8sgsTFqNW+jSkREAWNQICKiaEXf0BC9x07FkFmLA7xVa95WHufq/BN3rl9FgRKlf/ck+KVnYIAc+QrixQNzVQN5dT573gKq5C2RcTIUKFkGp/buUDXAm6cPxHQBZM1XCCWr1sTzh+aw+/pZPubi5IjrZmdQqlptxNXRQSytQZ+zaCnkLFYKzo6OsH7/Fo+1kHHj5BGsmzkJi8YPk+f5JV5fXO01+fTu5QuYpEgJ01RpVI1vIuykDyQcERF5YVAgIqIYydnBXv5XP1Fi+d+AxIoVG8mSp/C1SpBoZIs5AH6JsCHCwN1rl7SGvoOsu3zyKHIXLgbDxEmQKmNWxIsfD8/veQ5jevXoAb7YfEKpKjVlWXC0s8WW+dMxoHE1jO/SEqtnT8b9m1dhkjIl2vYZrI7yTYQMv96/eyuHLgX0Or2I4UxEREFhUCAiohgpvr6B/K+Drf8lTb2I5UVtrCz9XbEPTN5ipWW4eHrnphwqdOP8GeQvWVaGCNEwz1O0JK6dOS6XM71ldhqZs2WHqRh2pBGrLS0cORDHdm5B30mzMXvnUczcsh8dh09AzVYdYZomnTwuOFKnSSufL6hdlx1/2Kl7REQBY1AgIqIYSSe+LvIXKYY7Vy7KRn1AxKpEj+/dRtos2VVN0BKbpkChkmVw8dhBfHr7GtaWH1CkXEX5mJgrULxiVdy5dF72OFw9exLlazeUQ46EL1YfcHzvDgyasRA5ChWDnoGh7L3w4qh6QIIjTcbM+GT5Ua60FBARVF4/fahKREQBY1AgIqIYq1ztBrhy+jjePn2kany7evIIPrx+iUr1m6iaPytRpSZuXjyHKycPI026DEiaKq16BMhVuDi+ffuK+5fO4f0rCxQuX1k9ArmJm5ubm1wm1S8xAfrQ5nWq9Gdps+VCUlNTnNm9zddGbl7sv33B4W2bVImIKGAMCkREFGNVadIa6TNlweR+XfD+xVP8cvdckUhsoHb73EnMHzUYleo1Rtb8hWV9cIjG/xdrK+xdvxKFylb83WMgJEmeEtny5MP8scOQOkOm38OOBNEbkTSZKfavWSaHBYmr/qKRL/Z62DJ3KpwcPDd++/H1i6+VkwKin8gILXv2x441y3Fs81q4ujj/fr6vVpaY2KsjMmTOAgMDQ3UGEZF/DApERBRjiUnGo5aug3EyE3SsUhIj2jbGhB7tMbhpLYzu2hpla9RBn0mzETee5/4EwSGWHs1bpDheW7yQKxr5JEJD0QpV8faVBcpUr4148XXVI0BC7bz2g4bj8pnj6FGzLMZ3b4uxnVugZ62yuH/rOvpOmYc8BQtjUu+OOLV7mzorYGLIUo2WHdGu3xAsmTQS/RtUxcSe7TGmU3P0rlsRCbUg0fG/sQEunUpE5CWWh7jEQERE0d7w4cMxbdo0eT9e/Ph48uQpkiVNKsvBdc/cHKVLlVQloH2fweg4cqIqRbyv1lb49sUG6bNkD3LFH7+cnRxx79J5XDc7ix9235E2fUYULF0eWfMXQpy43s8jjhNLj6bLnA062mcYGBvLD/hq8wmZcuT6vQmaFyf7H3irPUfKtOlhaOR7xSUxV+LV4/u4fuYkXr98joQJE6FY+crIXawU4ifQxzcba3z68B4mqdIgiYkpLN+8kkOVRDkgv35pz/fQHLcvnMOLZ4+RImVqLahUQdZ8BfFL+/P/9vkzpMsS9Hv5l57fuYFONTw3nxP+GzYco0aOVKWIUb9+PZw+fVreT58hA65cvgIDA8+J8MHx/PlzVKxYEd/Vjtr79+9H3bp15X2iyI5BgYgohogJQYGiNgYFosiFfY5EREREROQPgwIREREREfnDoEBERERERP4wKBARERERkT8MCkREFGrOP53k+vxEYcHB3k7dI6LIgEGBiIiCzdDAAHF97Bx889J5udwn0d8SgfPqqeOq5Cmkq3IRUdhiUCAiomAzTZ4cOXLmVCXgxeNH2L1s/h93CiYKiggJ9y6cweHtm1QNoKurhxIlSqgSEUUE7qNARBRDhMU+CuJPxoqVKzFk8KDfQ47E7r458hVAvpLlQrTJGZGk/Rx9tHiGy6dPwMnJUVUC5ctXkHsORPTu0dxHgWIyBgUiohgiLIKCYGf3Ay1aNIeZ2XlVQxS2jI2NcfjwUeTK5d17FVEYFCgm49AjIiIKkYQJDbFq1SoUKVJU1RCFHWPjpFi8ZCly5MihaogoojAoEBFRiKVIkQL7D+zHqFGjkT59esSPr6seIQo5MbwoWbJkaNmqNc6dP4+aNWpodbHUo0QUUTj0iIgohgiroUd+fbe1xfNnz/Dm7Rs4O7uoWvLp6tVrKFy4kK8Vo8iTCAnJTU2RLVt2LYAmR6xYkSsgcOgRxWQMCkREMUR4BQUKmp2dHapVq4oVK1YhT57cqpaiCgYFisk49IiIiCgcmV24oIWyJ1i6dKmqISKKGhgUiIiIwombmxs2b94s/3vq1ElYW1urR4iIIj8GBSIionDy+vUbnDxxQt63tPyIvXv3yvtERFEBgwIREVE42bhpI5ydf6oSsG37Njg4OKgSEVHkxqBAREQUDn78+IHdu3epkqd7d+/izp27qkREFLkxKBAREYWDY8eO493bd6rkScxVWLN2tSoREUVuDApERERhzMXFBRs3bsCvX+6qxtvhQ4fw6ZONKlFkJoKd+F56EXs+EMUk/IknIiIKY4+fPMH169dUyTdHR0c5d4Eiv58/f+Lb9++qBCRMmAhxuGkexSAMCkRERGFI7GO6YcP6ICct79i+Dfb29qpEkdWXr1/x7u1bVQLSpkmNeDo6qkQU/TEoEBERhSGxE/OB/QeQMGFCtGjZWtV6qlKlKrJmy4Znz57hwoULqpYiq+vXrsPW1laVgOLFSyBOnDiqRBT9MSgQERGFoSNHj6J06dI4ffoM+vfrp2o9FS9REqdOncLAgYNw8uRJuLq5qUcosvn165evIWLx48dHkaJFVIkoZmBQICIiCkMltDCwdu1aZM+ePcDJr4mNEmP06NEYPGSIGKekaimyuXTpMs6dPaNKQI6cOZE3Tz5VIooZGBSIiIjCUPp0adW9oKVMkQI6HO8eKYnhRqPHjJLzTYRYsWKhS+cuSJBAT5aJYgoGBSIiIiJFrHQ0fPgI3Lp5U9UA2bPnQNOmTVWJKOZgUCAiIiLSiJAwdtw4bNy4XtUAenp6mDxlMnR1dVUNUczBoEBEkuhiF+u7iyUdeQu/m5OTk/rEiSgy+fDhA7p264qlSxarGs8hR3369EWF8hVUDVHMEktrHHAmFVEM5O7ujkePHmHz5s04cuQInjx5Iuso/IkrlLlz50aPHj1QvXp1JEuW7J/s+Dp8+HBMmzZN3o8XP772PX+KZEmTyjKFD/EZFylSSJWA0WPGYeiQwapEEU2sbGRpaYkDBw9g+vTp+PL5s3rEU9NmzbXgsATx4sVTNSH3/PlzVKxYEd+/f5Pl/fv3o27duvI+UWTHoEAUw7i5ueH06dMYMmQI7t+/r2opoog12StUqIApU6agUKFC4RoYGBT+Pb9BoVv3HmjXtq0qUUT59u2b3Mvi6tWrOH/+PKysLNUjnuLGjYs2bdth6pSp0NdPoGpDh0GBojIGBaIYQvxTF70GLVu2hLm5ubySRpGHaJjUqFED69evR+LEiVVt2GJQ+Pf8BgVxZZorHUU8Z2dnedEkIIkTJ8G48ePQqmUruXfC32JQoKiMQYEoBhChYNasWXLtdhcXF1XrSTRQU6ZMiapVqyJ16tSyTOFHzAMRPTniSubnz59/L7/oJUmSJHJDrvz588vx0WGJQeHf8xsUKPIyNDREterVMWrkKGTKlEnV/j0GBYrKGBSIojnxT3zcuHGYNGmSr14EEQjEcn+jRnn+UfybMbgUMuJ7Iq5oPnjwAIMGDYKZmZl6xJOYwyDqChcurGrCBoPCv8egELmJoX9i6dPKVaqgUaNGyJM7d5hfLGFQoKiMQYEoGhP/vEXDUPQkeE1UFlepixYtKicxZ8yYMcyvWlPIiO+R6F1o3rw53r1797uHQV9fHxcvXpQ9C2GFQeHf8xsUypUrj1KlSqkSRRQDA31kyZoNmTNnRqqUKeXSp+H1u5BBgaIyBgWiaOzGjRsoU6aMvHrtZeTIkRg7dizHSUcyYnKlmKNw7do1VQOYmJjIXgexKlJYYFD49/wGBa56FPMwKFBUxn0UiKIpV1dX1K9f31dIGDx4MCZOnMiQEAmJCcxibkKBAgVUDfDp0yd07dpVlYiIiP4tBgWiaGrdunX4+PGjKgGVKlWSV5M51CjyMjAwkGEhXbp0qsbz6qPPXgYiIqJ/hUGBKBoSvQhi8rIX0QDduHGjnLhHkZtY9WjZsmW/v1de80w4SpSIiP41BgWiaEismCMmxnpp27YtUqRIoUoU2YmlanPkyKFKwMmTJ2FlZaVKkZMIMrwFfPMpoMd587wRUeTDycxE0Yz4J92qVSts3bpVlsWVaUtLyzCbEEv/xsGDB31NeNy2bRuaNWumSqETHpOZbW1tcV4LpsePHcPXb56TNcmbg709zp49o0qQATBT5iyqRF7EvKmSJUqgihaSM2RIj9ixos91TE5mpqiMQYEomhG7jYp9Ed6+fSvLefPmxd27dzk3IYr5+fMnjIyMfk9GF8unbtmy5a++j2EdFI4cPYqpU6bg3r27vCJMYSJZMhP0698P3bp2k0uWRgcMChSVcegRUTQj9kvwOYm5S5cuDAlRkNgAL2fOnKoE3LlzJ9I0xsXr2L17N9q2aa2F0Mjzuijqs7H5hDGjR2Po0KG+VmwjoojBHgWiaObZs2fIli2bKvHqVVQlfjX3798fCxYskOWkSZPKeQp/MyE9rHoUHj56hBrVq+Pbt6+qxpORUSIuvUuhYmPzWd3zNnfuPHTu3FmVoi72KFBUxqBAFM34DQpHjhyRG3lR1DNv3jwMGDBA3tfT08OPHz8iPCiIHqv+/fvJ5Xe9mJgmw7jx3VGyRC7EZVCgEPPA48evMW/ONly6dFPVAalTp5FLAydMmFDVRE0MChSVMSgQRTMMCtHH8uXL0b17d1Xy3EQvbty4qhRyYREUxA7SJUqUwIcP72XZ0NAQu/fOQvHi2WWZKLS+fXNA3dqDce/eI1kWoXjr1m1R/vcXgwJFZZyjQEREwWZpZfU7JAilSuVH4cJcxYf+XuLE+ujQqZ4qefZeiWFuRBRxGBSIiCjYRK+GT9myZ0LcuNzIj8JGjhwZ1T1PYvUvIoo4HHoUw/369UtetXn9+rVcKcfOzg5OTk7qUYqKLl++jPnz56sS0KJFC9SvX1+VKDBiEm6iRInkpOGsWbPK8t/MBwgLkXHo0T1zc5QuVVKVgP4DOmDCxPaq9PesrL5j1sx12vcgPTp1rqt9D0J3PevevRfYvPEwRo/tDkPD+Ko2aC9ffsSSxTsweEh7JE9upGqD5urqhmtXn+L48Yvy92nVamVQvHg2xI8f/Lkazs5uWLhgO2xtf+C/Ye1hYBD4sqBubu6YP28rUqVKgeYtKqna6OPGDQtUqtBRlaB9HsMxauRIVYqaOPSIojIGhRhIfMs/ffqk/WE7jkWLFuHp06cyIBCRJ7F+e5YsWdC6dWs0atQIGTNmjJAlZmNiUJg7ZyfGjlkEU1MTXLi4AslTJFaPhMzevWbo2H4snj4/CBMTA1UbtMuXH6B61V64dmMLcuRIpWoD5+b2CyOGL8f2bceQN18WGWru3H6KmrVKY+GiQdr3Knghx8HBBRUr9MCTxxYYPLQjRoxoHWhAcnFxQ7kyXZEvfy4sWz5I1UYfDApEkQuHHsUgIiA8efJEbtwkNuRq166d9kv5BkMCkR9iuMP9+/fx33//yb0MxB958W+F11XCl6OjC/bsPoMOHZvAzd0Nhw5dVo9EThcvmGPTxoOYv3Ao9uydjl27p2Htugk4sP8cTp64oY4KvlixY2HZku24du0Jf9b+wi9+dkRhhj0KMcTXr18xePBgbNiwQQ41Coy4WpkwYSJwf66oS+zMbGtrq0qAgYEB4scP3tCLmMzBweGP46FLlSollwUVQftf9DDEtB6F48duoEvnibh4eR3GjVmG168tceLUPO09h3wI2L/oUZg5c7vWsN+Kx093IV48z++LGH5UplR3VK1WCmPHtZN1f+LVo5AlS0Z8/GgFRwcnHD+5AIkSJVBHeGOPQsBEU8bGxganz5xF1qxZUKhgQfVIxGOPAkVlDArRnPj2njhxAu3bt5ebNfllZGSEAgUKonz58siSNStSp0qp/XFKzKAQhd26fRsd2ns3UMaMGYfGjRupEgXG3t5erujz6tUrmJ0/j5s3b2qNtg/qUW9iP4NJkybJzdBixw7fTtmYFBTE2PtePedoIdce27aP10LDLbRvNxqHjyxEwUKZ1FH+OTm54M6dF3j37gOSm5qgQMGsSJhQL8igIBrb9+69xMuXb2CcJAkKFc6BxIkThDgobNxwUmvELsDlK+uRKnUSWWdv/xPFirRD7z4t0KNn8OYGeQWFggVzoU3bGmjSaDDad2iAiZM6+vsZ+1NQEPMd7t9/CQuLN9DT1UWhQrmRMpWRv2B77txdJE+eBNmzp9UCsivuap+hvb0DKlUu5OtY8X5u3nwCa2sbZMyYTvt7kfn3kCrxWm7ffoE3b95pz2Wqfa1sMDD4u4sSIQ0K4sKXWBJ646ZN2L9vLxInMcZJ7W+e+HcaWTAoUFTGoBCNiW/t1KlTMXbsWHmV2Yv4w5MlS1btD1F7rQHZBEmNjf+q8UGRy8VLl1CjejVVAubPX4iOHTuoEgWHaHzY/fiB06dPY/myZbh166ZspHsRDSkxSXzt2rWIFy+eqg17MSkovHxphYrlu2P5itGoVr2QbDyXKdUVFSsVxcxZPfw1dH/98sDRI9e0RuQSrQFmp/1e8/zdZmBgiKH/tdPeXxx07jjOV1AQ51y8cB9Dhy6EtZWNPCeW9n96egm0Rn0T5MmTAbVq9Al2UBDr/pct3RUNGlTCGNV7sGjhPqxcsQunzy7TGs+JZN2f+AwKi5cMwIL5ezF92kqsWTcB1asX9vXeAwsK4r1du/oEffpMx2ebb4gTx/McV1d31KlbAWPGdoSpqfcE7Xp1R2iN14IoUjQH+vebgy+fvyK/9pw7d0/E5Emb8FkrN2tWBQMHaI99/ab9m3CDi7M78ubNhpWrR8DO1hFdukyCzacv8u+L+DpGiRNhzdoxKFw4q/oqIRecoCD+ttna2eH8uXNYvXo1rly5LHsDxb/F7dt3olKliv5+XiISgwJFZeF7OYwijIuLC1q2bImR2i9YnyEhRcqUmDV7Ds6ePYvevXojuakpQwKRH2K1o8RGRmjcqBEOHz6M9Rs2Im++fOpRz4bKli1bUKRIEc7xCSOHD1/RGvRJUKJkDlnW14+H+g3Ka2HgAqytvYfSeTlx/BY6aUGgYqViuHBpDV683Is797Zi/MQemDJlNczOm6sjvYmx/61ajkSuXJlw9twKec79B9sxZ+4grFq5GwcPXFVHBo9Y93/suG5Yt24fduw4j3Hj1srnmTm7f7BDgl+xY8dCt+51UKBALowZtRQfP35VjwTt1Kk7aNZ0KAoVyoXjJ5fgucVePHy8U2vUj8PlS3fRts14fPnyQx3t6fXrT1pImIvmzavh0pV12L13kvz6P3+64NUrSwwbthjDhrfXPqNtePZ8L7bvmKGFSwv06T0HPbpPx5Ch7XHv/lb5OZ44uVQLIsbo0W2qnGsSHsSwrsePH2PK1KkoW6Y0Wrdupf0tO/N7yGDu3Hnk67906SIuXrwQ5O327dt48/at9lod5blEFDAGhWhINGLGjRun/eHaoWo8VapUGUePHkPnTp3kbqpE9GfiKmWd2rVx+NBhdOzYWYYIL+bm5mjTpo2vME4hJ65Gr1t7AHXrVdR+N3kPGWnUuKIWEj7j/Pl7qsaTra0jJk9ajZq1KmDqtG5InTqJvIIshr3UrVscS5cOx4EDZ9XRnsSV+EkT1qBwkTyYv6A/0mcwkefo6emgSpUC2LR5EvbuPamODr5atYsjZ64s6N93Gi6Y3cb2ndNQo0ZR9WjoiNc0bXovWFnbYOqUjao2cLa2DpgwbgVKliyIBQsHIFu2VLLBrKurg2rVCmHNurFaA/8lNqw/rs7wdOjQWfTq1RT9BzTxF2yuXL6NwYPbaGGttHweMdyoVOmcaN++Hk6dvIjqNUqiXr0S8jHxOWbPkRqjR3eBpaUNXjz/qJ4lbIietKNHj8p/a1WrVsG0qVPkEEG/bt++pb2munIn5z/dxPNUKF8O5cqVQ+/eveUqgM7O4RNwiKIyBoVoaOnSpXJ4gbj6IoiGTb9+/eVW+JkiaJlHoqhOzOeZPXsWFi5cLCeIezl48CC6du36+98bhdyVy4/xSWsUN2pU1tfvpyxZUqJ4iQJYr4UIESa83Lr1HA8fPtN+rzX5PYnYp+IlcqJSpWKq5OnZs4+4fPkWevZqBH19/+Poc+RIowWTKqr0Z+KCzKNHb1GrxiB8/fINhQrlgZv2GpMkMQyT37F58qbXGt5dsWXzQezaaaZqAyY+v8ePn2PYiHaIH9//55EvX0a0aVsXa9bs1wKT9+doapIYjZuUk6HCL2PjJFoYKKJK3nLnza4dHxu1ahVXNd7SpkshQ/P792EXFCxeWKBOnTpo1qypFv724/v37+qRv+Ps7CwnPz958hjr169DkyaNUbx4MaxeswY/fvjueSGKyRgUopkXL17ISZbij5gghhX17t0Ho0aPhp5e4Jv4ENGfiX9PrVq1xOw5c39PlhT/1tavX4/t27fLMoWMu/svrFm9H0WL5UPWbKlVrScRApo0rYSrV+/i5UtrVSsajx+QPkNa7ZZc1fgmrn4XLZpLlTy9tPgIE9NkyJUr4Isloq548dyq9Ge3br1As6YjkC9/Fhw/uRAbN4+Tz9G/7xw4OjjLY86de4Bdu0K3xKt4rrbtqqNipeKYOHElXr/yfv9+XbhwE9myZ0HmzClVjW8iCJQpkxcfP1ji3bsvqhYoUbJggKFJyJotg/b5+19tSuzvYGJqot08J2/7JB4T/x58zuf5W5kyZ8KqVaswYeIkFChYyFePXlgSr/vFi+fo36+vFhgbgcshE3liUIhGxC/npk2b+vol3bJlK4waNQq6XB6TKEyIq6nNmzXDuHHjfzdaRG+C6FUQyxBTyIiGq5nZTVy9cgf587ZEnlzNfd0mTlgmr1Jv2nhUnSEuiLyEoWEC6OgE3mg0Tup7eKU4R083HnS1W2CS+jknMHZ2jujRfSpKly6AadN7yLkK4tzFS4fi9u3HmDFzq2xkHthvhr17zqizQk4M6xFDkOxs7TF58no5fCoglpZfkSSJfpC7QadNkwIJEujhxw/vnfcNDPwvv+pFN37gn5P4ufe7GlN4Sp06Nfr17YujR45g7979qFOnrvZe9NWj3goXLoIFCxdh8eIlf7wNHfof6tVvgOTJk/t7L1cuX0bz5s3k8F32FFJMx6AQjYjJlXfu3FElIEfOnJg2bbr2x4Y9CURhSTQsOnfujMZNmqoayOVV+/Tpw6uQISA+q927z2qfZxxMmNQNgwa38ncbNaojqtcoIzcxE3MTBCOjRLInIqiPWiwT6pM4R6wMJG6B8XtOYC5degQrSxv0H9DMV+NcDPFZsmwE1qzag0WLDuDunUfImvXPqycFJVOmFJg4qZf2OR3Hzh3nVa1vYriReO3iMwmMGGojVvMKzZ4UkYHoYdHX10eFCuXl3zoxGXnEiFHImTPX78AuhhHl0spt27b942306NFa+NyIhw8faeFjH6pWq+Zrv5lPnz7JFceWLl0Gd4YFisEYFKIJscqRWPrQixgWMX36DBgaBm+jISIKGTHJeeyYMUiZ0nu4x969e/H+/XtVoj9xcnLGnl2nUat2WXTsWBftO9QJ8NZ/QCt8+GCFUydvyvMyZEyLjx+stXAW+Io179/ZqHuexDlfv37Hly+eS1QG5J2fcwLz0uINEidOiKRJvZcb9VK5cgEMHtoOE8cv0RqhL1CnTln1SOiIBnKTpuW056mIMWMW43kAE4XFkqVv31rhx4/AP4975i/g6Ojka4nUqCxVqlTa37xhcp+gjRs3o0aNmvLqv9jjJKhNRf0S/47F0qXbtm7D+vUbtGCXTT0i9vZwxcSJE3DgwAFeAKAYi0EhmhDrMltaWqoSUL9BA5QpXVqViCg8pEmTBgMGDlQl0fB1wowZM9ioCKZr155pDd9Xch6CaBAHpkiRrMiWLaPsfRCTcQsUyISfP51x9oz/JVCF798dsG+f7yE/uXOnlVeejx+7GeD3x9nZFdu2HFOloGXNmhGfP3/Du7f+5w2I99GqVVUkMU4MXd34MEz49xt/iV6LyVO6w0BfH6NGLJObzPlUpkw+2Nna4cjha6rGN0dHZ+zedQZlyxXTwo3/ITtRWaJEibQQVRubN2/BxYuXULhIYdy46RkoQ0JHRwc1a9bUQsFBFCpUWNWKPS7sMWTIYDx5+lTVEMUsDArRgPijJxonXvT1DdCjR0858ZKIwlfzZs2RPn16VYLWYNn8e113CtraNQeQN192FCyYRdUETMxFaNGqBi5cuIVXLy2RMWMK1K9fEePGLsGDB2/UUZ5EI3rihLX45R5LXi32YmxsiHbt62H2rHW4cuWxqvUkhu3MnbNDa/zbIkGCwMfteylUOAsSJjTEpElr8fWrvar19O6tDfr0mgvd+HGRPHlS9Oo5A9+++T4mNFKnNsbEyT1hZnYdL1++U7WesmVPgyZNqmHSxBW4c9vCVxAS8xrmzN6Bq1fuaqG2RZCBLCrT0YmLLFmyYMzo0ShezPeKV8ElPptUqVJi27ZtWjj1XuLW2soKI0eMCFFPBVF0waAQDYgJlA8ePFAloGTJksiTJ48qEVF4Elc0fc5V+Pbtm6+5QhSwd+++4tzZa6hdu4zWOP/z7tZiOc5fWkNt//4LclWjkaPbI02a5GjccIgWGNZiw4bDWLxoN5o1Ga0FAXMMG9HB18USMa+kb7/GWgMwN1q1GIkRw1diw/rDWLZsL1q3moCtW45iktYQ9xkuAiMmL0+b0Q+XL91G9Wp9tPCxHRs3HMGUyRtRt84gWFi8wZZtU7Bx8wRYfvyMMaNWyR6Lv1WzZlE0a15DlbyJIDV6bEfkL5BTC1ADMXjQYqxfdwgrlu9Di2Zjtc9lCyZN6YuyZfl3ITjEBGcxN0FsUOpF7NJ+4eIFVSKKOWJ5sI88yhMrMzRv3vz3VSSxooOYrBVdifcp1tJ+9eo1bD5/FhXqERIeP3mM0aNGqhLQvUcvVK5USZXISxLjJMiYIYPW6Ev81yu43Lp1S27i5OTkOUZc7Iouehb+1vLly+WESi9iRbO/6SkU85jEHitCvPjx8eTJUyRLmlSWg+ueuTlKlyqpSkD/AR0wYWJ7VQo+83sWMDO7jabNqsLE5M+7GLu5uWPXrrOIHSs2mjStIK/+2tv/1BrEx3D06CW8tHiNdOnSoHadMmjdppocmrR712m0a19X7vLsRfQ4bN92BgcOXMCTx8+QPEVyLYSURpu2NbSQEFsLDCe011RF9kAERfwesrCwxqqV+3HB7KYWEL8jQ8Z08uu3bVtN+5qei0jcu2uBc+duoFr10sie3ffyr17EcKrt207A1DQpqlbzv3eBT2J35R3bTyJjptSoVs33xm6i92DLllM4eMAMjx89l70jJUsVRJcu9ZErd1rt59y7N2HPbjPt6yVBqdL+l4Q1MzPHt692qFff//BVMUfi/Plb2s94Ve35fa+mZ2f3UwtfB7T3WhxZsqRVtSFz44YFKlXoqErAf8OGY9RI799n/4r4/m7S/g337OH9709sWrpr164Q/xt8/vy5nAfx/bvn/BgxVLhu3bryPlFkx6AQDYzUfolOmTJFlYCHjx4jbZo0qhS9WH/6hCVLFmPvnr1aUHipaolCR8wxqFmrNgb07y8nR4aW2KCpTJkyWsPxhSyL5RzfvfM9PCQ0okJQ6NylKebM7aVKRH/n5Mm7aNSgnyoBw4aPkMN+IoJYKapU6VJ4+uSJLIvew5MnTyFHjhyyHFwMChSVcehRFCdWeRBdol4yZMiIFMkD3oQoqnv58iXq16+HObNnMyRQmBCN+eXLlqJ27dow1xrAoWVoaIh8+fKpEvDx40e5Ell0lChRQl9h5dKlO7Cz816bnyi0xHXLY0cvqZKn5Kam6t6/J5ZLbd++gyoBtra2uHb9uioRxQwMClGcmFxlZWWlSkC69On/ehhFZCTWtG7StAke3L+vaojCjtiRtVGjRvjw4YOqCbkMGTOqe57s7OzUvejFJJkJ8uXPr0qQQ1xGj1rpayMvopDyHDZ1BhvW71M1YmEOfZQuU0aVIkaVKlV87UV0+dJFbsJGMQqHHkVxomtUDHP4LMbqaxo1bow1q9dEq7AgfkTHjx+P2bNnqRrPnUFLly6EMmULwzBh9Fruj8Kfg70Trl69i7NnrvnaybxDh06YN29uqP79LFiwACNHeg6REOPn3759K/9t/o3IOPRIWK39jhk0aICvVWDy5c+JEiXyI4lxIu39q0qiYHBw+Il7dx7j8uU78m+al1q1xLKnm39vqBYRRC9CpUqV8PSp5/CjokWL4fCRI9D1sTnbn3DoEUVlDApRnFiGUazQIH6ZCe3bt8fChYvk/ehChCDxS9ZruJFohE2a0h9du9bytSsqUUiIK5g7dpxH395T4ObmuSOviampFh7OIW3akM/x2bBhPXr18hyrL35GX7x4gYx+ehlCKrIGBQcHB7Ru0wanTp5QNURhK3mKFDhy+CiyZMmsaiKGGEJYu3YtXLlyRZazZM2KC2YXZG9HcDEoUFTGoUcU6T179szXnITy5YuhR486DAn0V+LFi4vWrSuhdp0Kqgb4ZG2Ne+b3VIkCIxpJq1auRJWqVSP0ai9FT2I/hK1bt0V4SBDEcrk+99YQYZ3XVykmYVCgSM9Ka7z5VKZMQcSNy8YJhY3y5b13YRWsrPzvtkv+GRsbY8OGjZg7bz4KFCykaolCL23atOjZsxcOHjyEwoX4M0UUGXDoURQXE4Ye7di5E506eq88MWlyf/Tt10CV/t6bNzZYv24fcuXKgoaNyslhI6Fx88YTnD17A737NIOe3p83bRKePH6DHTtOYOCgtjAwCN6YV1dXd9y7+wonTlxAfN34qFqlFHLkTKOFp+Dn/p8/XbF06S7EiR0b3bo3DLJ3Rny9RQu3I1furKha1XejOjrYtPEMevYYr0rAjJmz0aN7N1UKvpg09Mgn8SdEDM+w1gK9pZUVfrlzoqdPb9+9Q+dO3r+/OnbqLHfzJt+MEhshTeo0SJBAL9LNsROr7XmtLpg+QwZcuXxF+31tIMvBwaFHFJUxKERxDAp/b/y4dZg9ay3Sp0+LazdWB7uR79eqlQcxaeJK3Lm3DYkTe3dVB+XggUto1XIEXrw8BBOToDd4EkSj/b+hS7B71ylkyZIav355aH+E3qN7j8YYNrw14sQJ3h9YW1snFCvaDp+sv2D6zIHo1Kmmr82YfHJyckWBfC3QqHENTJ7SSdVGHwwKfxcUKGjiMy5SxPvq+Ogx4zB0yGBVoqiAQYFiMg49on/K2cUFP37Yq1LEc3Bwwf5959C6dQPY2HzBmTN31COR06lTt7B92zEsXPQfjh5fgGMnFmDmrAFYtHArbt58po4KPjGJd+rkVXj50nuJXSIiIiKBQYH+KTHUZdDgQejdpzdu3LwJp58/1SMR4/ixa7B3sMfwkW1RsFBObNxwFO6ReOjE+XN3kSKlMarXKAYdnThyQm6TpuWQMKEhbtzwXL4vJJo2qwMjo4QY0G+uHI5ERERE5IVBgf4pMWyif79+2LVzF2pUr4YGDepj0+bNv/eB+JfEMJ5du86gYsXiSJMmCVq1qonLl2//8eq6o6OLvHp/9Ohl3L79Qpb/xNnZFXfvWshzrl9/Anv70AUkExMjOGlfz+fmVuLrOzo6IkmSPw9d8it58sQYP6EHrl27i5UrDodqNQ8RMO7d83xv58/d0b6XAfcYXbp0H+/f28j7Tk4uuHXrmfY5PpVln8Rnc+XyQ/l8T568l8OrvIjP8dat5/KxO3deMNwQERGFI85RiOIico6C+NEJzY+POGfkqFFYvGihLIuJa+I91KvXAJ06d0LmTJlkndek4vCao/DgwWtUr9YH23dMR6lSOfH9uxPy5m6Ofv1bY+Cgxv4mNYvXfeTIDUwcv1xr8FppjVYX6OnpIkPGtBg3rgtevHiLyZNW+ZqjIM65dOkhRgxbhFevPsjvV/z48ZE6TQoMH9EBsfALrVuNDPYchffvv6Bk8Q4YMaoLunatLZ9/7uyd2Lz5iByGZGqaSB0ZNK85Co0bV9OCQgcMHbIMe3afxO69M1GgQCZf7z2wOQria1+98gSDB8/F2zcftffmLJfKTJTIEK3b1MGAgU1hYOC9o2npUr3QvXt9ZMqcCoMHzcebNx9QpkxRbN02BiOGr9LOS4AyZfNjyKB5eP36g5wgKz7fKlVLYvacvnj/7jN6956OlxbvtNf0Uy5bmDVbBqxdNxrp05uqrxJynKPw93MUxE61Iqx++fpV1ZCXly9foW6dWqoE7ffLAHTp0kWVyIv492ycxBg6OnH9/e6NaJyjQDEZg0IU9y+DgovWSLH8+BHm9+/j8ePHePzoERy0xkFo2Nvb49LFC/62wtfRiYfixYtrf0i7oly5slqDOzF27toV5kFB/NhPnboFx45cwqnT87VGk+eqPz27z8adO49x/ORCJEyoJ+u8HDxwFR3aj0K79g0wcGALpEqdRPvF74hdu85j3pyNqFCpOA7uP+UrKJw/dx/Nmw2Va/WPGNFe+yOTTHvvzjh65JoWLpaiVq0KWL5sS7CDgnjdixbuw+xZ67Fy1RhcuHAXO7Yfx5Klw1CxUgF11J/5DAqTJnfC588/ULvWABjo62PPvqnae/eejB1YUDhy+Do6dxqPmrXKYsjQ1siWLZXsDdi/7xLGjV2CosXyYdXqYb8nh4ugUKlSMRzYfxqt29ZCq1bVtJ9dz2DTvdscfP1qC2vrz1pDqrn2uZSQjYUjh69pj01AvfqV8ejhSwwc3Bo1axbRGstxcOvmc62BPxUmpkmwd98MLYCFrgHNoBD6oCBez8WLF7Fi5QqcO3tW/rsmCq2MGTNp/9broVvXbkiVKpWqjXgMChSTcegR/ZEII/v3H9AavE1RtmxZtGzRHBMnjNcayDu1Bu/hUN0umJ33FxIEV1cXrfFrhnbt2mi/WCtojelxeP/+vXo07IihO9u2HEXjJpWhE8+74dW0eRXtl/obObzFJ9GQHj9+OZq3qI2p07Q/YlpIEIyMEqBTp+oYN767FhLOyDovotE8YfxKlC1XDAsXDUCGjCayAWloqIumzcph8eLh8ip+SIjz27StipSpTNGmzUhcunQHu/bMQIWK+dURoWNsbKAFhl64f/+JFkT2qtrA2djYYeyYZaheowwWLxkkQ4IgehBatqqIRUuG48zpy1oouCzrvezccQz/De+AQYOa/g4JXi5fuqWFqQ5o2LCMbPTHixcHdesV1wJKFWzdclD77MVQtZJyKVexulPRYtkwclRXGSA+fPiinoX+FdHjM378eDRt2gSHDh5kSKC/9vKlBebOmSMb0ZcuXZIXRogoYjEoUKDc3d1x9uxZVKteTWu4t8XJkyfx9eu/aZCJPxAfPnzAtWvXwiUoXLr0SK6+VLu255VrLwULZpHDWTasP6RqPF28YI6XFm8waHALOYHYJ3F+nbolkDdfNlXj6d69l7hz5yEGDGwOXV3/+xSUKZsb5cp7L5v4J+IzEWP2mzQaIcNb+vSptdBhgDRpkvl6D6Ehzq9YMR+6dW+KhQs2wczMXD0SsLNn78BC+zxGjmrv70q+eK7KlQuiVu0KWLlyH9zc3NUjQOrUyVCvXklV8i2VFn7KV/AdeMQQtHz5c8jnrBvAedmyp4OtrR1sPv37OS4xmZjwP3nyZCxYMF/+LBKFpWfPnqJNm9Z49OiRqiGiiMKhR1FceA09Es83a9YsLFmyWF459EuMRTc2TooE+gkQS/tfSIkhCx8+vA/wipHocm7QoCGaNG2KfHnzYveePWE69Eg0cho3HgWjRAZyaIzfvQdmzNiGubPX4675tt9j/qdP34YD+8/j3PmFcgxtQCZP2oSVK3b8Hnq0bu0JzJu7GWfPL9HK+uoo31auPIJBA6YHa+jRtWtP0KHdONSsVUY20L99+4H6dQejXLlCmDOvr1wF6dy5B/L9VaqUV50VML9Dj7yIXpAa1ftrDfQ42LV7CpIlS+Rv6JH4nvXuNVv7Y/4BR47Okl83IJs3ncSwYQtw5eoGLSAklkOPatYshREjW6ojvImhRz9/umDd+mGqxtuaNScwd85GXL22Evr63nMehGfPrFC4YDPtdcxH6TKh61Xh0KOQDz06b2aGpk0ay3kJXkySGaNYwVxIbpJM1RAFj/gzcPveAzx89hrOzs6qFihZqpT2e/cg4scP3d42YYVDjygmY1CI4sIjKIjn6tK1K44fO+preJBo/OTNl19rXDZG8WLFtMZfaujq6YU4JoifuDVr12LSxPG+gkKRIkXRsWNH+Qs1RYoU8usJYT2Z+flzS5Qr0wkJEuhqQSCxqvX2/bs93r2zwtTpA7SGX31Z17XLFHz8aIt9+6dqDbWAO+JWLN+PKZNX/w4Ko0cu0xru93DsxDytgRvwrsv79l1A29aj/hgUrK2/o1aN/tofzgKYM7e3HKMvPrtTp+5on804jB3bA50610D7dlNhaKiPhYv6qjMDFlhQEC5dfIgmjYdqz9cQEyZ21H7G3HwFBdFD0LTJKCTQi48Nm8bIq/4BuXHjBZo0GozjJ5ciW7YUMig0b1EVvXvXU0d4E0FBfLuXLhuoaryJoLBwwVZcurxM+575/hwZFEImLIKC6GkUk3F37tyhaoBqFUth4fgeyJTWBLHVv1uikPjp4oY9J66hy6BpcHTy7KUSE5z37t0nh7xGJAYFisk49Ih8sbOzk2FDzCPwCgmiIZg3bz7s3bcfZ7Rflv369pUTjkVQSGpsDOMQ3kSyWLZ0iXxuY62R0q5dB5w9ex7Hjx9H69atkTJlyt8hIayJxvWWzSdgZJRICxtN0ax5FX+3bt0boGjRvNi96/TvpU/FHwXRQNKeQZYDIpZb9Umeo32GQWVxv+cE5uyZu/j85TuGDm0pQ4IgPqPKlQtgytR+GD9uCbZvM8PDB8+QKXMK+XholSiZA/0HtMHiRZtx/vwDVetNfF0dLSw5a3/Yg3hrclUo8d4DCxIUNdk7OODmzZuqBCRJbIQFWkjIks6UIYFCTTdeXLSoVRIDe3j3OIrebLMLF1SJiCIC/4LTb+Jq5eQpU3D69ClVI1Yh0kG/fv1x+PBhVKpYUV7h+ZtGvAgfYkhT2rRpMW3aDFy4cBGLFi1E4cKF5NcKb2KVov37z8hJzH37NQ/01q9/K5jfe4ybahOzjBnT4c3rj77G2/slli71KUOmdLC2+gx7e+89D/zye05gnj2z0AKUKRIZ+e51EN+Lli0rokXLWhjQfzrevPmIOnX+7uqbaNj37FVfC4MFMHjgbFha+l7yUgzVypkrM168eB9k0Ll546H2/7+0cBj8K28U+Tk5Omo/Z69VCcidPQPSp/z7JVaJxO+zhtXLqJKnLxGwxw4ReWNQIElc+T169BhWrFju6wr42HHjMWbMGBgZGamavyOuMjdp0kQGj549eyBN6tTqkfAn3teliw/w/p0VGjWqqGoDVq58PiRLlgx7956XY/4LFMwMG5vPcjhNQL58+YGTJ3yv8JM3b3o4ODji4kXRYPbPwcEZhw6cV6WgZcyYXmuwf5LzEvyKHTsWevVuLPccMExoqDXM/7zM6p+I1YtmzekPa+uvmDF9s7+AVLZcQbx98z7I93bkyCWULFX491KxFF14+BqSaJggHuIFMk+FKKQM/cxDIqKIxaBAkpiXMHz4MLi5eu50KyYrDxs2HH16i/HwoR8T7ZdozBYqWBD6+gFP7g1PIiisWrUXJUrkR46cQQcUsYSp6HU4dNBMLo1aqFBWrXFcGEOHiM3FPHcX9iIaxePHrtYa7Dq+htlkypQS9epVxOhRi/D8+UdV68nFxQ2zZm7RGv72spfmT0qWyoVfWmCZNnWjnPTr0/v3nzFwwHwkTKgvhwT17jVLe01/vxJNzpxpMGp0F2zfdgifPvnuVShRIicqVS6JYf8tgIWFla9wKXZLnj5tE+7eeYSBg1r+VQ8UERERRRwGBZK279iJt2/fqBJQqlRp9O3bN1qNL3/9+jMuXbyN+g0raI3zoIc5icZtvfpltABlh+PHrsnlTSdP6QlnrZHeqOF/WLRwD/bvO491a4+gdctxMDd/hn79W2qfl/eVVbEa0IhR7WBqkgQN6w/G7Fk7sG/vOWzceAwd2k/BwQPnMWJkx2ANuUqf3kR7rs7YueOo9lzDsGb1Yezbdw5z5+xAnVoDYWX5CZu3TsLGzZNwUXuPc+fsDHKYVHC1bVdVCwQlVMmb+DxmzeoDA3091K7VD9OmbZGfx+ZNx9Gu7USsXrVHTgYvVCiTOoMo5G6Yv8DuIxdw+dZjX2E0KHcevZLn3H74UtWE3Hurrzhy9gZ+OnteOAnKW8svOHruppyMGxwuru7yue898R6+FRjRm3nkzHXcffznY/8V2x+O8vO1+eq/d5OIoh8GBZIrJ23csF6VRCNQFyNHjYKh4d8PYYlMRGN6yNA2cu+E4MidOwPGje8KXT3Phnz27Klx6Mg81K5TVmsQH0OvntO1oHBYDsPZvXcaSpbKgR49G2mfn3cPTLp0JtizbwZatamNA1ow6N1rBpYs3oOcOTPg4OG5KF06pxYwmiFBgqB7FURg69y5lvb1F8nN1mbOWI/ePWfg4MEL6NCxLo4cm6s9Z1oUKZIVq1eLlYjc8P69714An8TeB2LSdrly+VRNwPT04mP2nH4YNryDHI7lU9p0ybB3/3R06FBPC1OX5ecxaeIaJEpkiIOHFmj11XwFzbZtq8memYDUqFEU1bVbQPLly4BOnWv/nsTtU5Ik+hg8pDVSpzFVNRSdLNx4BI27T0DbQbPh9PPPjfYfDs7oOGSuPGfF1hOqNuSu3LVA91GL8f2Hd8/c01eWmL9mn/waPl289Qw9Ry+BnX3wevEctffRfcQCrN19VtUEzkUL+91HzA/Wsf/KOy0Yic/3kYXvXlIiip4YFAjm5uZ4+tRz0q5QukwZlCwRvMb0vxBWQ1dKlsqNof+1kXsDBIe4at6zVyM0bVpB1QApUybG2HHtceXaCrz/eATnzBZjwMAmMDZOiAwZTDFocEutce270Z8kiQGGDWuJ89qx4pwrV1doQawNUqRIjOQpkmiN8HYwMAh4+VSfxCTiYsWyYdXq//D46Q75XGfOLkTffo2RMKH3PIBKlQtixMgOSJ8+8PXsxXsbMKAFqlQtrGoCJ8LOiJHtUTWAYxMnNtA+05Y4d97zvT1+uh0rVg5BwUKZ/PVGde1WFyVK5FAl3+rVL4169Uqrkm+FCmVB796N/G10JyRNaogxY7to7/XvVnqiyEsExNdv3uO8WlggKFfvPsOjpxZaEP7zv6eQeqw1jKcv24kfjr6Dgp5ufKRKYcohdkQULTEoEK5evSZ7Fby0aO5/Q6yIlDix770OXrx4g1+/gjcMgehPnj/3PaxDLPdJkUfqlCmQK2c2bNrrvRpbQMRSxJv3nUGuHJmRJfO/G/JWrXQe7FsxGkkS6qkaIqLog0EhhhPjfm/duqVKnpOYS5YsqUqRQ8YMGZAokXcvwL69Z2Bu/kqViELvxQtLbNl8RJWABAkSIFu27KpEkYHYCb1l/co4ee4q3ll9V7X+WX6yxYHjF9GlRcDD1MKLWEAgga5OhPQouLq5w+arHT5YfZb/FeXAuLn/wtfv9vJYcbP30zPi1y/tb8P3H47yWOvP3+HsGrw5GEQUvXBn5ijub3dmFtvl16xZA9evX5fl7Nlz4Ny5cxGyKlFgxP4OYiO2I0cOqxogVarkGDS4rRZq8oTpqkwUM4jlPa9ff4i5czbDwsJ7En/x4iVw4MBBuTpXSMWUnZmtrCyRJUsWVQJqVSqGQ2snqVLYajtkAa7evI+D66eiVN2emDi0M3q0rKoe9W3p1pMYP3sNrh1YiAbdp6Bo3qxYNsnzs3ts8QGTF27CjFE9kTKp/7lX1+8+xazlO7BixhAYGepi57EbGDRxMa7vXwiLd1aYtWQzLG2+4+7D56hQMj904+mgb4f68v7Bc/ewZOMhbJzdH0mN/vx7U8x7yFu1CxrWroh5I713nA+Ik7MrspVrjwa1K2P+KN/HXrr9DDOX78LFa/fw5etXJDVOgnIlCmBUnxbInyOdOsrTk5eWmDB/E8yumePDRytZlzdXNrSqXxF92tWBnhZ0fPr46TtmrdyN/Seu4OWrNzA0NEDJIvkwsHNDpEhmhLxVOuHc7kUoVySbOiPsvHj3GVlKtVAloHPnLpg7d64qRQzuzEwxGYNCFPe3QUHsxFylShU8euS5Hn6JEqVw8NBBxA/Gkp3/0o0bN1CrVk04OfnevEz8AfO50hBRcIhfe+Jn36/9+w9qf9C956SEBINC2PMKClf3L8DASavw6s17HN8wGbrxfX8GYthRkbr9USB3Nqyc0hOF6w/yFRQu3nqKOu1H4PqRFciSxljW+XTg5BU06TERb6/vhGkSfV9B4eOnr1i9ZT9evrOB2dV7aFK7HPT1dNC2YRUUK5gDWw5dwcjpK3FNe40mSf7ceAyLoHDy0gM07zkeJbTGe9/2dZHaNBHeWdlizqrdePT0JXavGK+9f8+fvTcfv6Jyq/+QIU0KDOjcCOlSGMkJ1UfO3sbcVTvQv3NTjO7dRPs96tkjYv3FDnU6joGVzTdMHdYV+bOnwk8Xdxw1u4uFq3di1IBO6DtiBoMCgwLFEBx6FMOJBpO7u3d3ta6err9JqJFB4cKFMW/+Qujq+h4H/OOHvQxJvPEWkpvfkBAvXnxMmDgZFSqUVzUU2XRsWg23zJ/C/Kl3D5AXsUrR85dv0bJe+d8N3rBSMGc6LJ7UF93a1Jcrek0Z1kWWRUj4G9++2+Hpy3dB3p6/eg9XN99Dfr58d8CQyctRu0op7F02HFVL50XOLOlQrUxeHF49BmVLFEKvUQtkGBBmr9qLRIYG2LV0BGqUzSePLZwnM0b3aaK9p3rYvO80nF28V5QaNXszPn+1xZltM9GqbinkypoehXJnwsgeDbF18WjMXrpFHUlEMQGDAkUJ4gpt82ZNsW79euTMmUvVEv29jJkyYfnyFejTpzdXronECmgN9swZUmP7oYu+9lQQY+m37j+LjOlSo3ShsL/CHV42bD+E7OU7BnnLV7UrrPxsdnju+kO8fvsREwa2hY6fuRhibsZ/3RvhhRYw7j19J/dh+Pr9BxrUKIeEfnY8Fj/rObKkl0OLvMLIF1tHbN93Ar07NkSmNL5XTRPHVyyeC5XL/nmlNCKKPjj0KIr726FH4rxKlSr9Xh61QsVK2L17t/YHKPKO+xev2ezCBVwwM8N39b7Jm42NDU6d9F5Dvlix4rIxTL4ZGhigVKlSKF++PJIkSaJqQ49Dj8Kez6FHiQ11MWnJbizbsB8vzNZAL77nuHoxnr5Eg/7oozVuB3fyHM5RsO7AMBt6lFzNadh36hZ6jpiDm4eXImWyhLJO8Dv0SMx/ERu1eWj/8yl+PB3EjRPn99CjKuWLYWzvpurRgP10cUX5JoPQpH41OfRI/LkeOGk1bt5/gUOrR8tg4Je9owvKNx2M7q3roG/72nBydkOc2LG0rx9Xni9WjBPhSuzwPmDyWqzevBe2j/YjoUECXLxtgVpth+DCngXImzXg3esPnruLutoxHHrEoUcUMzAoRHExMShQ0C5euoQa1aupEjB//kJ07Bj0WGj6ewwKYc9nUBDLjz588RGlG/TBxoWjUbt8ftnwXb3rLAaPXwzzkyuRNoVn4IvIoGD+7ANK1e8Ne3t7dYSnbcsnoVmNYn81R0GsXFSvywQcOXVJHRG43h0bY+G4bvL+8zfWuHT7Ka5cu403lt+gp28Ii5cvYWryP3t3ARdV08UB+P+KdEkogolY2IHYimBjYHd3d3djt2JhYhAWFioqdnchNtIpXfp9d2YvwlICFgvneX/3dWf23i025tyZOVMQF6/c/BEo7HVyxbRlO/Hg7DYUSfYck3v08iNqtBxCgQIFCiSPoKFHhBBCZEI5w8Koa1IF+5wu8DPjrOF84JgrWlvUg0Gh7K9/wSZD/y5GxXRxwW4ZbhxdJ7VZ1Kkg7vHrGtauhmuOa1PdR/Jt/MD2/DWydbrCexjOXb6NurVrYN647lg/ZyBuHl2Lfl2kM0jReUNCSEoUKBBCCJEJ+eXyoYeVOS5fv4/3XoF4+c4Ht+89Qa+O5vy6jLAmcHoNYb/gKPHSr1NVVkSd6uVRz6Si1KarlTota1axIUQli+oh/vt/MK1unOo+2FanRgWUMyoG/YJaPC0s621ZOGUg7NZORv8OjVC3hjHveVFTUUz1ehiVKsmHJIWEhos1qXkF0HBPQvISChQIIYTIjLYWtXij/8yle9jjeB7lSpdEg5oZZyCSl5fH/77/j2caSon1Stx5LBl6mdOxIW2mNSri2Qt3fPIOEmulvf3sD2OLITjj9gQvPDyF5xyKbq3rQi5FIMXmKTx7Jb1wpXEpAz68zfXG43SDKucLN8VLhJC8gOYoyLi8Okfh6bNnuHnjhvD4U//w53WfPT9j3949YgmwbNMG1avVEEskkZq6KurUrovq1av9lpTANEfh90s5RyHRsFlbcevhC/j5B2HUgE6YO7qzeI1EyjkKnn5fUdliACYM6455Y6QnED948RFtB8zmiRE+3Dqc7hyFk5ceYtCk5bjjvAWliibNc/jb6yh4+YWgTvsxqFW9Ig6unwIlhaT3AxtCNX6RLU673sT9Uxtx/d5LtB8wEzecbVCvqnRCg/vC8+4weB6+eHn/mKPADJgqHHf3MVwOLBeep/R74+r91+g5eimCgkNwzm4VzVHIJJqjQGQZBQoyLi8FCuyt+vjJEyxatAiXL7kiIUV+cUKyigUINWqaYNnSZTA1rfVLAQMFCr9feoHCtQfuMO8yDgoKCnh+aQ8MDaSzVqUMFNh3x8Bpm+B0+hLmThyE1o2rQkFeDo9eeWLe6r3o180SKzbuwcvLe9INFJ56eMOkxSA0qlsdVcsXR492TWBStdxfDxTYc3F0uYcBE5agUZ0amDaiK4oVLoCAkChsP3gWR89exq7V09GhqQmCw6LQqPNExMV/4+s/VC9fDKERMTh79RH2HD6DqSN7YuzsNZg9YQAGdrFAkUJa+OgdCMt+s3jGpRUzhwvPtShixQXX2ArV08f2x9IN++BgM48ChUyiQIHIMhp6RGTGpcuXhS/Xtrhw3oWCBPJbsFSW9+/dRceOVrB3cBRrSU5RpVwJNDKtBPn80j9V1Y1LYmD3NhjVv2OqIIGpX7M8KpYpJpYkgduqmQPRvX1TrN1+GBXNB6Jqi+FYbXMY6xeMRJsmNWBc1ojPAWAK62rCrE5lHkwkqlxaH7vWzoKWhgpeeXwWGvyRvF6/YAE0ri29b0bYXAqzulVgbFRErEkfWzzOrG5VqX3Zc+nS0hRHbBYg4ds3tB80G0YN+qJp94lwf/cRhzbPRXuLmnw/HU1VHNgwE+WMimPY1FUo06gfmvWYiut3nsB29WT0sWqICUO74cbtB/j4yZvffkkDXZzZuxQW9Wti0sKtKNOwH+pZjcP5K3exfeUU9BWOsahXFdrCbRNCcj/qUZBxeaVH4f3792jWrCn8/f3FGgn2Yyj8X1IgJNP+l2oMtoqKCi5cuIgqVaqINVlDPQo5H1uALCg0HOERkXzeQkGdAnw9BjZPITomHqrKCr99Zec/KSYuga+iHBsbKwQqwvPR1ZIaipSI9SgECPux3wsl4e+uq63J11VIxD4Lku/SJGwYU8jXSHwNCxf2VeCvVfJj/hTqUSAkZ6FAQcblhUDh27dvGDJkCBwc7MUaQKOAFtr06Iu65s2hoKAo1hKSOQnfEnD3iitOHdqLoICk4NPcoikc7O35kJasokCBkF9HgQIhOQsFCjIuLwQKnp6eaNSoEQIDA3hZWUUFS3YehIl50qJihGTHy3u3MLV3B4SJnx8NDQ1cvHgJxsbleTkrKFAg5NdRoEBIzkJzFEiO9/7Dhx9BAtOwRRvUMGsmlgjJvgq16qJ5x+5iCQgLC8OrVy/FEiGEEJK3UaBAcryU8xKMq1b/LeksCWEqVKspXpLw808KSgkhhJC8jFpbJMej0XGEEEIIIX8fBQqE/EPxsdGw27gSNotnZ7jZrlyE0AA/8ah/JyE+DrtXLcHzu7Q6KyGEEJLbUaBAyD+UEBeHE3t34NIxe7g/fZTu9vb5E8TFxohH/TvfExLgtHMzPJ48FGsIIYQQkltRoEBIDmDRtgPW2p9Od1u61xGFipYQ9yaEEEII+fMoUCCEEEIIIYSkQoECITIqLCgA990u4trZk/jw4ini42LFa1L73/++I8jbE7cunsX1c87wevcG378liNem9r/v3xH45TO/7TuuLgj29RavISTnCwgJx3GXG3j44p1YI/tCw6Jw+tJdfI3490MQCSF5BwUKhMiY2Oho7Fu1CAMt6mDOoJ5YPGogxnZqiSldLfH22eNUWaIiv4Zi9cQRGNi8HhYM64tFIwdgRFtzzBvYI80AIMjHC0tHDcDglg34bc8f1gdDWjTAjsUzER0ZIe5FSM6168gFdBgyHyNmb8X37xlnTdtqdwb3nqYOKC7ffo4Dx6/89PjfzT84DGt2OMEvKFyskXj3JRB9JqzEJx/Jol2EEPI3UKBAiAz5/u0btsydjOP7dmHYjPk4+vgdXN4HYsvJi9AtbICpvazw2UOyyjYTFR6GeUN64dn9O5izfgecX37BmTe+WL7XgTf6p/XpiCBfH3FvIagIDcWMvp3x9tVzLLDZi7Mefjj92hsrDxzFi4f3sXflInwTHgMhOVVc/DfYHb+EJg1M8eT5a9x+knGvwoptR3H94RuxlOTc1UfYdsgF3/9yema/wK+Yt/YAfAKlA4X8cnIoalAYcnL0s00I+XvoG4eQHODDm9c473go3Y31CjBvHt/HxROOmLx8A5p27Q1lNXVeX6xsBUxevRXlK1eD7fIFfOgQc+3UMXi8eIIF2w/AxKIl5BUVIZc/P4xr1cXcbfsRGxWFU/t3/uiFOLHHBiGB/nz/qg2aIJ/QOMkn7F9KuN0F2+3w6a0HoiKkGzCE5CSXbr+At48fVs4ZAaMSRbH/6EXxGtlW3lAPFw9ao0wxXbGGEEL+PAoUCMkBHt66js0Lpqe7hfj58v3OO9ihQnUT1G7aCv/99x+vS6SkqopeYybh8e0bCPT+gm8J8XBxPIjmHbqheLkK4l5J1LV10GXIKD4PgQUM0eFhOH/MHubtOqJYmfLiXkk0dQuiw8BhtCo2ybHYMKEDx1xh3tAU1csXQY+OzXDqwg14B3wV9/h9WHAdGR0H34AQ+Akbu/yzxSETvn1HYEiYcEwwQr5G8HJm5ZfLBzVlBcjJSX/uGfa8wyKi+e36B4YiOjb+p4/lm3DfQaHh/Jjg0Kw9FkJI3kG/+ITkAJ36DcaJZ5/S3YqWLS80Br7j8Z1b0CpYCE/v3cKjm1dTbaEhIQgLDYHn+7eIi4nFy0cPoKqhiSe3r6fa9/Gta4iNjcWndx4I/yocFxKM0MAA1EsjCElkXL0WFJWUxRIhOYvHJ1+cu3QTfTtZIJ/wHu5p1QRBIaE46ya97kdUTBzGLdyBLsMXwt8/AHsOO/PLU5Zsx56jV/jl42ev4JX7O3QbuYiXffyCxKOB8KgYLNnihHqdJsHApBsManVHg86TYXP4Am+kJzdt+R4cOnUDL995o9/kdSjdsD/0a3ZDhabD0HfiGnz8Esj3Y3MPeo5ZhkkLtiA6OhpTFm7i97vH4Ty//tUHX7QeuAAenyX7JwoIDseY+dtQw3I0v91idXqhSffp2HHENdVjWbD+MGwdLgmvkx+GzNyMso0H8mPKmw9Gz7Er4f7B56cBBiEkb6FAgRAZERcVia+hwTjneBjjOrZIc5sxoBufQxAa6I/IsBBECcfYrlmW5r5s2zBvGg8WIoXbDQkOEgKNYGhoaYv3mJqaZgE+dImQnOj0lQfQ0tJC07qVeLlk4QKoZ1oNh09cQmxcUpYvFggX0FCFjpYG7yFTVVHmlzXVVaGqrMgvKyspQl4+P7/M9xPnBkTFxKP/pLXYsMsRvTs2x6OzNrh9chM6tm6MOSt2YcbK/XyeRCLXm09x/sZz9Ju4CkX1C+Hc/mV4en475k0cgAtud9BdCA6ihAa9nPA4tAuoQ1N4XOzxaWqo8ftVVVbit8Me/9MX7lK3/d7TH60HzMW5K3cxdWQPPDpng+tO62DR0ASTF23mwVBMsmDh6t0XuHDzGQZMXgt1NVU4717EH8vy2SNx/e5jdBq+CBHRceLehBBCgQIhMiOfXH78JzQmhk6bg0ueYRluZlZdkV9egR+3zPZwmvsk30oYV4aCgqKwKeBbQvppU9l1dMaR5EThkTHYffgserRvAiVFeV7HGtwDu7XCtduP8PytF69jlIXrF4zvCZtl46Grq4Mu7Zryy7PH9kKXVnX55RZN6qJ0qRLYsmQcL+vpavFjWY/DlZsPcfaANSYPaoOqFUqhVpUymD2yIxxs5mHPkdNwuf6E75vo5BlXjOpvhWVTeqFO9XKoXN4Qw7pbYNea6ULj/w3c7rxAUT1NbFo0GnMn9IOSkhJmj+/P77dLm0birUhjgcOkJbsQ+jUct46vx5CuFqhWwQi1qpbB4gndsX/DbOyzP439J65KfWbPuV5H9/ZmWDOrP+rVKM8fS/8ODfn+7z96wuXqY3FPQgihQIEQmaGgrIxixUsiyMdHCALk09wS4mJx/+olRISGQEVdE4UK6yPYL/39w4KD8PD6ZcTHxqKAthY0tbTg+d5DvMfUQgL8kBAvPZyBkJzg7rP3+PTFG51bNfgxdI79a1a7IvQK6uDQicu87lews+17jpxB/26WqFmh5I/7Ydjlhibl0b5lI+w4eFaslShnVEwIQOrw4VCJ2P51hYa6qooSnr3+INZm3qv33jjregMLJw9AQS21VI/F0qw6enZqhQ22x6V6IYoZFES/jk14D0Yitn+NSqVQSEcLj1+k//knhOQ9FCgQIkMqmNTG7SsXEervJ9ZIu+XiDOtxQxATGcEDgXJVqsP1hCPiYlIv0sTOMh7ftRk7Fs/mi69p6BREidLlcMX5aJqLsbH93U4dR0x0lFhDSM7A3ps7Dp1Fw9pVUb6UgVgrUVhHA60t6uHw8YsIj0x/UcLM8A8Ixuu3H9HSrBZiYuNSbQkJCTCpUhb3n7ySmhxct1ZVqCpJeviS09FQgYK8HL5lY62GSzceQa+QLszrVJYKEhKxyc9tLWrh5es3Umsv1K5RGeoqimIpiaaaEpSV8mfrsRBCci8KFAiRIR36D0VwYAA2z5+G6BRpSr0/vMWetdZo3qELChUrwVObdho0As8e3sOhTStT9QS8eXSPr8dg1W8IlFTVhMBCAZ0Hj8Sty644e3APviULFlhD7KHbRZ5FqZCenlhLSM7AGsKnXNx4Q37U7PUYMm3Nj23YjLV46f4GPn4BcL50Tzwie7z8QxEeHoHm3cdDuYxlmtvYWWsQGBSE0GQrKLP5DmnJl++/NBv5mfH6nScK6WhCXT395AIVSpeApoYG/IOTvivSfSzC48juYyGE5F4UKBAiQ3QMimHqig245nIKcwd2w6kDtrh0whGHNq7ElJ5W0NAsgN7jp4t7A1XrNcbACdOxb8MqWI8eCBf7A7h47Ah2LZ2L6f26oF7TFjDv2EPcG6hl0Qod+g3GpgUzsHbyKFw8egQXnQ5j24LpWDJuKHqPmYyChfXFvQnJGexPX4eioiJKFSuEsPCoVFthXS0UNdDDEWc3xCdkf8HAxHPte9bOwFXHNelulw6vhEYaZ+1/Jxa8s3Y9Ne0JIX8SBQqE/EP5FRTRecgo1GxsIdZkjJ3xa9KxOzY6nUPhosWxb6011kwbx4cEtezSE0v3H4O6dtKCTHLy8ug+dgpW7LXnw4lsFs/GuhkT8eL+bfSfOAOTVttAWU1N3FvYP39+DJm9BHM37+YLq62bNRHbhaAi/GsoX53ZoksvWPYehPI1aolHEPJvfY2IwQGns+jctgmObJmd7jZpeHdcuXEfr94lTWrOqsI66lBWVoa+vh4amlZOczOpUg4VypaAfP4/+/NaxrAIAoPDERGZelhhojcfviD061foFEj6jBNCSFZQoEDIPySvqISuw8bBpElzsebnWDrHMtVMMGmNDewfvMGp116wcbmBPhNnQl1LO9XwATm5/KjZpAXm7jyEY08/8v3XHD2P9gOG85WaU2JzG+q2aIO5Ow7i1Csvfh9T1m6DUeXq/L7b9BkM45q1xb0J+bduPnSHx/sv6Ne5hViTtg7N6wrvXzkcdbnNz8ZnRyFdbRgWN4DzhVtijTQ2vn/q8n1o1nsuvmfzPjLLrG51fPH2hdvdF2k+H7ag2ulL91GqZHEYFpFkbCKEkKyiQIEQQohM+vb9O/Y4uKBieSNUK19MrE2bfkFNtDSvg8MnXPmCa4lY8BsRFS2WkuT7Lx8io2KkGuFswm+HVg152tHrQgCd0nOPLzh8/AIGdW8llVUoK1igz2L9COG+M1K5bFG+AvW8NXsREp768V+8/QL7HU5jeJ92UJSntU8IIdlDgQIhhBCZ5OX3FWcv3UKfTs352ggZYVmAelmZ4+37T3C791qsBUqXLIrNtg6YsGAr1u1yEmuBUiX08fT5KwyZvh5Tl2xHQHAob8RPHNQB1SqXh9WgWdh84Dw+ePri7Scfvvpy2/6zUadmZfSxSnvtg8xgi65pFdDEmNlr+P2m13vBnu/auUPZZAU06jwJh0/fxPvPvnB/74Xl20+gx8iFaNfSDMN7tkjVy0gIIZlFgQIhhBCZ9PDFW5jXq4a2FiaZagw3qGmMHlZN8cI9ad2C9XOHoGNrM7z0+CQ0sr+ItUB3y3qwnj0Kvn4BePLqPeLiJFnDtDVV4LhlFnp1bIl1Ox1g1KAvyjTsi1krdqGTZUPsXjke6qqS1ZSZOtXKoXSJ9DOFNapdGYZFC4klwKCgJnasmATj0sX5/Xr7BfF6DeE2m9StAjWVpDSrxqUMcHb/UtSoVAZTF9sIj6UPKjcbggNOLpg+qhd2Wo8R9k8aXlizslGq9LHJ1atZEWVKUrICQkiS//6X3cGaJEeIiYlB4cKF8fXrV17u378/Nm7cxC9nBjvOwsIC7u6SM2xNzC3g5OQE+fw5p6va3sEBgwYOEEvAuPnL0Gn4eLFEyK+5eGQ/Fo4bKpaAFStXY8TwYWIp8/bt24tRo0bxy6zR+vbtW5QqVYqXs2vbtm0YPny4WALi4+OR/xc+mzNmzIC1tTW/rKCoiNev3VFQN2nye2b4+vqgTJkyYgmwtKiNU7sXi6W84/v3/yE0PApBwaF8eJK2VgHoFFD9J2fv2RCsoJAIhH4Ng5ycnPA31eJrJchiT8Jbz0CUqZ+UiW3w4CFYu3atWPo3rKzaw9XVlV8uaWiIWzdvQS1ZEoif8fDwgLm5OUJDJetZnDhxAu3ateOXCcnpqEeBEEIIySK2BoK2pirPPlS2VFHoplgd+W9i8yEK6Wjwx2FUQp/3PshikEAIyXkoUCCEEEIIIYSkQoECIYQQQgghJBUKFAghhGQbG6tPU93I7/Kn158ghGQNBQqEEEIyjS1axlYnTuQXHIGoGElGIEJ+lbdfsHhJgk3OJoT8OxQoEPKLdiyehZZlCv10c9y6Rjwib/qWkIDpvTpg9eQRYg2RRSzbS9ly5cQS8PjpK7hceyKWCMm+6Nh4rE+2lgVTyshIvETSw7Kh1axZEyVLlsSzZ8/E2ox9//4dxYoVQ79+/ahHkGSI0qPKOEqP+u9tmTMZF044YvjsxVBSTT9lXqlyxihWOqmBldewQGFSV0voGRhgxqbdYu2/R+lRs5Yelf1kLF68GCtWLBdrAB0dLSybMYzn+VdSTMrzT0hmffEOwDrb43A4eYE3YhlNzQK4eu0aShka8vK/ktPTo7LvBRYkeHt784Dh+vXrUFJKWssjLew1Zr01rVu3xqlTpyhLFkkXBQoyjgKFf48FCjcunsP2s9egWkBLrCUpUaCQdTkxUGA+e3qiZYvm8BT+TcSeM1tLQF4+53x3ENnxNSwC0dHRYkli1KjRWLZs2T9vxMpSoMAMHToUNjY2Gb5uFCiQzKKhR4QQQrKkWNGi2LBxE9TV1cUaSU9DUHAIX8mYNtqyuqUMEszNLTBz1ixqwGZB7dq1haDGCjt27PgR2BDyqyhQIOQf+RoUAOe9OzB7QDdM6t6W90w8unoJCfHSE0M93V9i8agBiImMQJhwzLGdm4VjuuKR2wXcOH8aX4ODxD2TxMVE4+7lC3j/4qlYI+2T+ys8vX1NLEnOLj1wu4it86byx8K2fasW4/3L1ONddyyaiRtnTuB/wjGP3FyxceYEbJ0/VbxWeF6BAThha4M5A7thak8rHFy7DJ4er1lLUtyDyDrWeGtqYYEjRxxQo2ZNViO5gpBfpKKigqFDh2GX7S5oJAtEyc9paWlhz549MDAwwJAhQ36MNCDkV9DQIxlHQ4/+vawOPWIfOY8n92E9fjhCQ4JRr1krqKhrwue9Bx7euo76TVtinPV6qGpo8v1f37uFOcP6YsmO/Vg+ZYxwA0CVug3QtH1nTO/fBWPmLkOz7n2lzrx5PH6AUR2aoVylqlh71AX55ZPGjbMgYooQCOgVKYqZm/cgIS4Ou63nwvnQftSs3wgFi5VEfFwsnt++AT8fL8xevx21mrb6cftTOrdEbYuWCAsNxvH9tqjV0AxV6jRAu/7D8OrBHSwbNxTfvyXAxKwpFJRU+PN69eQhxi1cAac9O1C4SBEaepRJOXXoUXLsO+SKmxvOnjkDP39/sTbrIiMjoaqqKpZyn2/fviFfvny59gx5XGwc5PLLZTtLETuuatUqaN/OChUqGP/S+/x3k5WhR1WqVMHZs2fhJnwemzZtytsD27dvT/M9l9HQI/YblZn3aWb3I7KNAgUZR4HCv5fVQMH303uM79wa5apUw+RVW6CupS1eAzy/dQ2zhvRE45ZtMW75BuGLPD8PFKYP6IZyFSvDpHFTdBwyGnLy8nzM/4KhvRAfG4sl+xyRT9g30eH1y3Hy4B5ERURgs/MlFClVRrwG8P7wDgOb1sFiIfAwMW+JK8eOYPWMCVhqexiV6zUS9xIaNsKPj/XYwfjw5hU2nnSFsqrk7B4LFBSUlBARHo6ZG3ZAr4SkMRzk/QUTurZGEaE8e+seIdApwOuZpzeuYI1wH6y3pGLNWhQoZJIsBAq/Q6wQrLJx1Vs2b861wcK+/ftRsWJF1KxRQ6zJPVijc8mSJWjZqhVqmZiItbmHrAUKrFk3YsQI/v3h7OyMNm3aiHsmSS9QYLfF2hHse4JlRUpPWFgYBg0aJHzv7ZNKl0xyHxp6RMhv4OfthUk92mNkW/M0txO2W/l+bLiO8/6dQiM/HhOs10sFCUzFOg0was4SnD9mjy9vJMEb8zUkGAbFDdFhyCgeJDByQoOxcat2eP7gLiKFL+1ELHC4d+0y2vceCJ1ChfDi3m3xGokXd29Cs0ABlK5cnT+eGxfOoHrdBlJBAsPup2mHLvgiBBbJb595/fQxxi9d8yNIYD9MrsJjjo6MxEQhwEkeJDBV6puh29DR+CzcFiEpXblyBaeEBg3LcJMbxcbG4dDBg9i7d69Yk7uEhYXjwIED/CQTa4CSf4s1+tevX8+Dhx49esA/iz19CQkJfL6Dl5eXWCONnWA0MzNDYGCgWENyMwoUCPkNlJSVUb1+I9RqbJHmVlQ8o8+G/dw4fwYtOvWApm4hXpcc+4Kv17wNdPUK48qpo2ItkF9otJtZdZEaQsRUERr3CgoKePPonlgDhPj74qMQZNQyby7cd1PcueSC79++idcC186eRLW6DaGhU5CXe4+ejOFCcJKWyLCviIqK4j8cyZWvVhMlylcSSwIhULh18QxMzZpC16CoWCmtXst2KFKshFgiRII1LPfs2Y24uFgcPnQo1XstN3j0+BEePnyA06ec4ePrK9bmHidPnoS3txccHex/9G6Tf0tRURGnT5/mQ94GDBjA/80MeeG3xs7ODg0aNICpqalUZjOG/X0bNWrE06+eO3eOehPyAAoUCPkNNLW0hQb3JAyYPCvNrabQgGbCQ0Px/o07KtQ0TXdsp6pmAZQ2rgRPD3exRqhTU0eREqlziWsX1kclk9q47JwUVHg8eQidQoVhULI0TIVg4dWjB4iOjODXRYWF4vHdm6jfwlIyXlrYSlSoDH3D0vga6I+XD+7A7YQjzuzfCetxQ2G3eS0/LqUywjH5ko1FZuMXv3x4j3KVq/LbTIuymhq0CumJJUIkXr1+jWtXr/LLLi7n8O5d7up1+vb9Gw4JARALuAMCAnDi+AnxmtyBDVXZv38fv+zn58cbjyRnMDY2xpw5c/jfZOfOnbznNzPY8Eb2nq1fvz5q1KiBL1++8Ho23IgFD7q6urh06RIPRkjuR4ECIX9RXHQk/1dFXYP/mxbW0NbS1pHKfsTqkjfME7E5DPWbt8aDG1cRGyW57WsuzqjVqAkUVVRQSgg4WEPl0+vn/Lpnd27yY6rUrs/LTIifD1ZNGIYx7Ztiz/IFuHPVlf+gsGFH/cZPE/eSxoY9peTn6wMFxfTPLsnllxeuz3gRIJK3sPfZ8ePHfpyFZhOajx47xi/nFiHBITh1yplfZs/XwcEekULQkFvcu38fjx49FEvAnr17aPhRDsFORk2ZMoXPlZo8efKPBn9msPkLrGeBDTGqU6cOnyDdpEkT6Onp8TkNP1vQjeQeFCgQ8hcpq2vyL+CwoPTHdrJhQt5fPkMxk126tZo0R1REODyePkJCXCweCUFD1fqN+Y8EG15UsYYpbric5o2UW+dP8yxFmgUlZ/bZ0KL5Q3vD38cb65zOwfqQM6as2gLLvkNgYtYMaprScw0yUtLQSHgc0nMZkmOPjaV4JSTR17AwODo6iSWJfXv38rPvuYWDoyP8/fzEEvgQpPtC4zo3YAHBgf37ERsbK9YAjx4+xMNHj8QS+ddY74CLiwu/3LJlyywN7WPDkA4fPgwjIyM+GZsF9BcvXqThRnkMBQqE/EWqGhooV6kK7l11TfesW6i/Hz64v4ahcWWxJmNaevqoUL0mHl67BM83r5Dw/X8oX5Xlthc+4PnyobZ5czy6eRWRIcF4dOs6Glla/Rj25PnWHU/u3ca4JauhXdiA91okHxIV/jVUvJQxdoxBSUM8uXuLZ2NKC1vvwd8782e0SO53ydUVbz3eiCUJL68vuJhLFouKi4vnk5iTYw21xKE6so6NX3c5L2mEJmILp9kdOEC9CjmIoaEhz4Dk7u6OLVu2ZHoIEsOGG7EVn9niiqGhoXz4HMlbKFAg5C+SV1RC49ZWuOR8FL4fU4/FZj+uZ4/sQ0TYV5i17SjW/lyDFm1w+8pFuB63R9VataGuk5Tykk2y9hUaX3cunOYN/6p1G4rXADFRkfw+05roxnoAjtraiKWfaywEIA9vuOELW1wtBfbDdN7+AAIDsp9nn+Qu7D2xb1/qBjOr37tnT66Y1Hz79i08fyEZ9pfc8WPHspyJJqdhfyc2BCV5b0kiNteEGpQ5BzuR061bNz5Befr06Xj6NO2FOFMKCQnhxxQqVIine04chpSVIUxE9lGgQMhfxL6w2/YbDCPjipg9qAdfoIw1yJnIsFA477HBvvUr0XvMJBQqXpLXZwYbJuT76RPO2h/kE5iT9woUKlYSxQ2NsGnxHFSpXQ+qmklrPRgYloZOIT3sW70EIf5+PF1qQnwcvN69wcoJw2BQvAS/LR8hqImPjRGPSo3t07h9F5QoUw6zBvfEu2ePeApY1piIFIKT4zs34/SR/WjSvJV4BMnrnj17juvX006HevPmDTx7nrqBLUtY8G138CDi4+LEmiRsqA4b/y3L2CRmW1tbsSSN9TScOSPJ509yBjbk9ejRozxLnqWlJYKCUq/on1xwcDCqVq2KggUL4vLly3wCs729PU+bWq1aNXwSfm9I3kCBAiF/mVoBbczeZIsiQiAwvktrjG7fFGM7NsdISzPYrlqKAROno8vw8XzYUGax7EdGFSohQGjs127SXKxNUsusKYIC/NG4dTupSdEF9Ytg0JTZuHv1Eka2aSw8jhZ8UvME4XEpqqhi2NxlqFzdBHOH9ObzHDLCJmjP2miLYiUMMa5zK4yxaoZxwu2NbGOG04f2Yu7m3dBJJ3UqyXvY2OfkY9uTi4iIwFEnJ5luaH4WGssXUgzLSY49/3Dhecqq69ev482bpMxsKR2w20/Dj3IYbW1tHtz5+vryBdnSw4IElvGoTJkyfAE3Flww7DeJZUNq1qwZz36U3joLJHehQIGQX9Rv6lxsPnUZyhqaYs3PsbP8c3fYYdOxC2jQsi0qm9bjGYZ2nL+JbqMmQT5Z2rnSVWvC9tJdFChUWKxJTV5BEfN2HsSxpx9QQE9frE3SZcQEfl2DNp3EGgmWTal1r4HY6XITfcZNQ5U69dG0Q1esPHgc45at42s9rDhyCrsv30edZpLegDk7DqLziLRXxtYvWQoLbA9jld1xno2pWr2GmLhsLTaccEX5mrUxaNZijFmSdspVknf4+fnD2fkEb3iwLCrJ6ekV5vVs8S7WYJFFLMA5fuw4H37DzuSyLRF7bmxj48WvurmJtbKFBQC7d0tWVy9QoIDU89MQvgdZ+f69e3gu471CuZGVlRV69uzJexfSwjKPseFGrAfhzJkzqSYuswnO+/fv58OQWO8CS4lLcjcKFAj5RarqGiigU5D/+GcFa9yXqVoDvcdNxZDp82HeqQcKFS2eah2C/AoK0BIa7GmlR01OTfiBZusnJB92lEhBSYlfJy+eGUqON9ZKGAoBwwD+ODoNGc0XU2PpTNltsZ4CXX0DKCmr8P01tLShrKrGL6dFQUkZ5U3qoNfYqRg4ZQ6qNmjCb4PdFnutspJJiUjL7KJJOR3LwsIa02vWrMXkKdIpeNeuX48VK1fx9+X58xfEWtnCekoOHTqI6tVrYOvWbUKjS7K4IdOwYSOs37AR+vqF+dnZeBmci8GCnLt372Lo0GFYuWq18LdK+m4aPXq0EETsQYUKFfkEWpKzsM/Vhg0bYGBgINZIU1FRwcKFC3l2o/TWSWCZlA4ePIhly5bxoUkkd6NAgRBCcigtraT5JMznz5/FS7KLBTuaBTT5GPaBAwemmuBevFhRDB0yBKfPnBGCU9nM1f5aaEj37NULx4+fQO067Kxr0mrMlSpVQr++fYWGmKtwubJMTvplk1z37tuHlStXwtvLC/HxSfMwatSsiQ4dOvAhK9WqV0cordT8x7EeHPa3GDdunFiTMdYLdPXqVezYsQNjx44VayXYCZ3OnTv/dDE1dp99+vThgQfJ3egvTAghORSbNJi8h+jatbQn/8oS1rBo17Ytihcvjrj4eNy8dVO8BtDXN4CBsLHnXEK43qp9e/Ea2VJZCAbGCQ0wbW0tPHn8RKyVMDQsxZ9fkSJFMHXqFBROMfRKFtStWxd1atfmPSfnXJJWYmbDVKpUlqR1Zo3RIYMHQ1Mj/cUlye/BPlNsOBFbJyGz2CJsg4W/T4sWLaS+YwhJiQIFQgjJoVhjMnmvgo2NjcxnkmGNksSGCcvP/vDBA36ZKVeuHB/jnkhWGzDsbGviYz92LGksOGtIm9QyEUuSBp4snpFNfG5sVebkf7969erzse2Jkv+tCSGyiQIFQgjJodh4YTZpMNHjx4/x/v17sST7HOwd+OTJRE2aNIGiYup5NLLqw8ePuHT5klgCihcvgQoVKogl2cbWuVi9apVU5io2ZIVNdiWE5B4UKJAcL3lGDSYhPl68RMivS5nCMSed4WVnYydOnCiWJI2zKVOm5Iq0kx8/foKNzVaxJEnd2N7KSizJPrbOwMqVK/A1NGl18y5du0JZSTbnXSTH3n+sd+vSpaQVtNl8i7Zt24klQkhuQYECyfFSpk98fPsGvuWCVVtJzvDs3i3xkoSeXiHxUs7AxoOzIUgMG3bk7OyMc+fOyfQQpOiYGMybNxcBySYytxEamYYlM7/IYE7G/jZsMq+Dvb1YA2hqaqJXz15iSXax58Yy4lhbLxNrJMH1xEkThedI8xEIyW0oUCA5XunSpVGkaNJCXbfdXHH52BF8zyWpIsm/wc6K3nY5hXNOR8QaQEtbG5UrSSZj5hSsEcYW50rs6WC9Cl27dsWTJ9KTZGUFe/wsQ8vx48fEGkl2J9ZTIovj9VNiDemnT59i8uRJiBECokSjR48RAr60U1LKCvaZcTp6FCNGDMfXZNmM2rVrjw5WHcQSISQ3+U/4UqM11mUY+yEqXLjwjy/t/v37Y+PGTfxyZrDjLCws4O7+mpebmFvwhY7k8+fn5ZyA/ThNmjQJO3fuEGskeZybtG4PUzMLvh4BIVnBhq89unkVF52PIjZZY65jx058IansNFj37duLUaNG8ctsyNDbt295ZpHfgX1Ns9SHmzZt+tGTwBrXp0+fRp06dTI9YXTGjBmwtrbmlxUUFfH6tTsKJpt8+qdFR0dj+YoVWL1qpVgj+Swvs16OYUOHyvzEV/ZdxbI4sWw/X758EWuB+g0awv7IEWjIaAYg9p7z8vLG1q1bhd+X9T/eg0zVqtV48KBXKGf1xP1OVlbt4eoqGWZV0tAQt27egppa+mvJpOTh4QFzc3OEhobw8okTJ4TgioZpEdlAgYKMywuBAsOWimep3z5+/CDWEPJ76ejoCo2BSzAyyl7j/k8GCkxUVBTq1asn1ZOgqqqKOXPmYPLkyanm8qTlXwUK7GfmjccbzJ83H2fOnOYN6kT9+vXHqlWroCTjY/fZd/H27duFQGg5wpKdbS9SpChvSFeUwUnM34S/04cPH+Do4IC9e/dIBT9MufLlcWD/AZQX/s3NKFAgeRkFCjIurwQKzLNnz9GjZ3d8+vhRrCHk9zAwKMJXk61Xr65Yk3V/OlBgwsPDUaNGDX7bidh9GRkZYc2aNbwxwjIlpXdm/m8GCuynhX0/vXv/nr82B+3sfnxPJWI9OJs3b85SoysnYROWg0OC+QrSW7dswYsXz6WCIDa/at++/TzAywx2bEREBD58/ITPnz4Jf2cPREZGiNf+PSyTkY+Pr/D+eIU3bzwQHR0lXiPx33/5eJrXvXv3oViyYaG5FQUKJC+jQEHG5aVAgfkk/HiyBtGpU87w95de0ZWQrNLW0UGL5i0wecoUlC1TRqzNnr8RKDAsWGCNDDc3N6khIAw7K9+oUSO+Mm7BggVTpapknx12HCMnfMbnzZvPeyXSExsTi/CIcLGUeTHR0fzs85s3b/Dq1UvExSWt3JuoRIkSGDR4SIb3n1PFx8XzNSAeP3mE58+eITg4WLwmSXljY2zftgPVq1cTa9LHhmTduXuXD09if5/Pnz+J1+Q8mpoFMGToUEwYP15mh1JlFQUKJC+jQEHG5bVAgWFn3dhQpJevXgtfvEmpB4k0djawdOkyfAw4SU1DQ50PmSherFimhu38zN8KFBjW8GYTghcsWMDPapOcg72XOnXqgkWLFsLA4OeTl69dv44lSxbj/r17UmsS5DRKSspo27Ytxo0bj0qVKv6Wz4ysoECB5GUUKMi4vBgokJ9jwVSfvv3Qr28fNG/eXKwlf9LfDBQY9tX9+fNnzJo1izc82JAV8u+wnpFatUwxafJkNKhf/6cBekhIKFasXIHt22zS7HFhFBUVIS//9xegY+9f1hulpqYqBAVVhEZuE7Rp0xb6+oVzRWaqrKJAgeRlFCjIOAoUSFo8hEaqWeNGaNLEHHv37s1TZ//+lb8dKCRiX+Fs6MuZM2dgZ2fHU3OyYXnfKH3wH8X+xmxuS4kSxdG4sRlatGiBqlWrZqoHz8fHB8OHD5dasIxht2lkVJp/bqvXqM6Hw6mpqYvX/j0sGGCBj25BXagoK4u1eRcFCiQvo0BBxlGgQFJiH+kVK1Zg8eJFPIXmhYsXUa5sOfFa8qf8q0AhOfa3Z71JbGNj6FMGC9OnT4eDgwO/nF9eHkeO2POFwNITGxvH5xtkFbttVVUVsZT7sKniOro60NTQhLq6Oj/zn1mBgYHo1asnbt68KdZIGBtX4L0RLZo3h4bwN8knvIdIzkCBAsnLKFCQcRQokJTY2WX2N2UZU5hZs+dg2tSpvPFK/pycECj8zL9eRyGvY8PDBgwcgHNnz4o1kgnow4ePwNRp06CehcYn+TtY0M0ChcuXL/MyBQokr6GVmQnJZW7cvIF375LSZx48aEfj1wnJAdhifuddXMSSZF7D6jVr+aR0ChJyJnYyLlQ8EcewAIGGcpK8hAIFQnIR1kG4a9cu/m+iD+/f4+rVa2KJEPIvvHv3nmc3YmeoGQUFBaG8FL169syTE4RlRUREJAL8A8QSoKurS5nkSJ5C306E5CLvhaDA9eJFsZRk+47tNLmVkH+EBQcrV65AZGSkWAN07doN/fr1o7PTOdyLly/w5YunWAKqV6uean0SQnIzChQIyUX27N0rXpJ26+ZNeHgkDUcihPw9LI2ti8s5sQSeZGD+/Pl0ZloG2Nvbi5fY3KN8qJvJVbYJyS0oUCAklwgIDISjQ9KPWnLR0VHYv3+f1JAkQsjfcdHVlWc7SsRWNtbT0xNLJKf6+PETnBwlWcKYEiVLoJaJiVgiJG+gQIGQXOLC+Qs8P3t6jh8/joCApLG2hJA/LyEhQfhsnhdLkgnMnTp1Fkskp2IrnrM5JdHJ0gN36dKFz1EgJC+hQIGQXCA2NpZnN2LzEGqZ1oaGhoZ4DVC8eHHo6RWGp+dnuLm5Ua8CIX8RW3X53bt3YgkoXaYsSpQoIZZITsS+I9mQo6NHncQayXCxoUOGiSVC8g4KFAjJBV69fs3XT9izdx8OHTwoleO7du3auHv3LkaPGYsjwo8fO8NJCPk7WGrixHVqmArGxlBVyb2L0ck6FiQcPXYUEydO5EEew9ZFmTZtOgoXpuFiJO+hQIFI4an76IyzzFFXU8fp06fRqWNHoZR6YTVtbW0sXrQIc+fMoUCBkL8oOFiyyFaikoY5axE+koQFBiwhxNgxYxAVlZShqmnTZjxDFSF5EQUKeRzLusFWBk0U9vUrpdGUQUZGpXjXeEZYrvYqVapAWVlZrCGE/G2U6SjnYb95T589Q58+fTBxwniEhYWJ1wBVqlbFxk2bsrQSMyG5CQUKeZyCogI0NJPGs/v6+v7obiWEEPJ7sUmybD0F2v7tFhISgrdv3/HhmCxAaNyoIc6cOS3V41q9eg0cOGCHIgYGYg0hec9//6OZjTKNLS9fuHBhfBWXmO/fvz82btzEL2fWtGnTsGXLZrEE3LhxC1WqVBZLRNb4+fmjUaMG8Pb25mWWqcPWdje/TP6cffv2YtSoUfwyG9P89u1blCqVs4aZzJgxA9bW1vyygqIiXr92R0HK4vJHsde4Vq2aYgkoVKgQdHToNf/XYuNiERQUhK+hoWJNEtb7amnZBitXrkSRIkXE2uzz8PCAubk5QkMlw9BOnDiBdu3a8cuE5HQUKMi43xEoHDp0GMOGDfmRDWfmzFm8QUFkEwUK/wYFCiQtKQMFknOxzy3LEjdx0mT06tkTisJn5HegQIHIMhp6RNCgQQMUKJA0vp2l2UwMPAghhJDcTEFBAVWqVMXSZda46HoJAwcM+G1BAiGyjnoUZNzv6FFgmY769uuHE8eP8TI7q7JM+MJMPDtKZAv1KPwb1KNA0pKyR6FkyZLQN/j14Szk1ygpKgm/nYVQt249HiSUK18Oaqqq4rW/F/UoEFlGgYKM+x2BAnP33n20bNGMT7Rj2OqTJ086o1KlSrzRQ2QHBQr/BgUKJC0pA4XZc+ZhyuRJYon8S+xz+jd+3yhQILKMhh4RrmaN6rCyYjn4JQIDAzF27Fj+LyGEkN+DNUzZZFna/v1GJ8EI+TkKFAgnJyeH2XNmo2jRomINcP/+Pb7IjJe394+JzoQQQgghJG+gQIH8UMrQEBs2bIS6urpYA1y7dhUtW7TA6TNnEBcnGZZECCGEEEJyPwoUiBQLCwusXLlKavXejx8/oF/fPhg4cABcXS/xeRGEEEIIISR3o8nMMu53TWZOji1nf/TYUUyeNBnBwUFirYS8vAIMDAxgalobhoYlUKFCReSTkxOvJTlBaOhXzJ0zS/hXspAQTWb+O2gyM0lLysnMc+bOx9Qpk8USyQtoMjORZRQoyLg/ESgkevLkKaZNm4pbt27yFKpENlGg8HdQoEDSQoECoUCByDIaekTSVbVqFdg7OGDV6tUoXbqMWEsIIYQQQvIC6lGQcX+yRyERe4uw+3Fzu4qTJ0/gypUrCA8PF+qieT3J2ahH4e/Iyz0KsbGxCAkJgZ+//4+1WIjEp0+f0b9fH7EEDB4yFL169RJLJBF7H+ro6EBVVTXXpS2lHgUiyyhQkHF/I1BIKTo6Br5+vggKDERAgL8QSIhXkByBzVGYMWMagoODeZkChb8jLwYKMUKAcPz4cf7cnz558uN7iJCsyp8/P8obG6N9OysMGTKYBw25BQUKRJZRoCDj/kWgQHI2Wpn538hrgQLrVRw5aiROOTsjISFBrCXk11WuUgU2NttQuVKlXNG7QIECkWU0R4EQQkiWsF5FFhQdP3aMggTy2z17+hQdO3bA58+eYg0h5F+hHgUZRz0KJCXqUfg38lKPwuHDRzBixDCpIKFUqRIwNi4GOTk6/0Sy5n/Cf188g/DkyWupDHtdunTFzp07kS+fbL+nqEeByDIKFGQcBQokJQoU/o28Eiiw75x27dvh1s2bYg3QrXsbLF8+HFraarliqAj5u1gzJDo6DkeOXMa0KWv5e4xRU1PHtWvXUbq0ES/LKgoUiCyjUz+EEEIyzd/fHw8fPBBLQCmjErAWggRtHXUKEki2sPeNiooiBgxoKQSdrcRaICIiHFevuoklQsi/QIECIYSQTAsJDeXpUBM1bmQCbW01sUTIr2nVur54ScLXz0+8RAj5FyhQIIQQkm2aBTR+a09CQsI3+PgEIjg4jA9Jya7o6Fh+O9++ZX5V+bi4eH5MfPw3sSZzYmMT4OcXDD/fIOFy1teR+P79fwgICBVuI+inz5ldHxAQgtDQCLEmd9HV1RIvSSSfs0AI+fsoUCCEEJJjXLnyDOXKdEJHqxmIicn+4m3nzt1BhfJdEBQUJdb83P377vy+3771FWt+7v79N+jZfR4qGndDBWHr2nkObtx4IV6bOdHR8WhjOQlVKvXEnTvuYm3aWBDTrs0kTJ+2TazJXWj4GiE5CwUKhBBCcoxDB11QokRRvHjhgadPP4q1OZOfXxj6952HfHL/4dSZ9XC5sBk6upro3XMWvnwJEvfKPJZ2dsrk9QgNjRRrCCHk36JAgRBCSI7g4eED14s3sWLVJBhXMILtzuPiNTnTUadLCA+PwFabaahTpwJMTMph/YYJUFFRwpEjF8W9Mq+8cWm8f/cZy5bupyE3hJAcgQIFQgghOcLpUzdQsJAuLCyqoFOnprh48TYCAsLFa3OeqKg4yMnJQVVVUawBv6ypqY5o4bqsql7dGGPH9cae3cfhduWZWEsIIf8OBQqEEEL+ubCwaDg6XETnLhZQUMiPdu0b8snFp5xviHukFhUVi+3bT6GN5VQ+H6F5s/FYv84JX7+mPy8hLi4BdnYX0bHDLH6MWaNRWG59SAhIwsQ9Ms/MrAafvHzV7RmfZMy2p08/4IuXHxo2rCrulXlsYbHhI9oLAUMFzJq5Gf7+kvVxMis+PgF795xDp46S52ZSsx8mjNuIly89+YTp5AYPWo7dtmf467FnjwvatZ2G7l0X8P2uXn0Kl3N3+NoGO4TXt1nTcfz22Gt26tQtvg+bJH7gwHm0bzedX9dCeO23bDnB/2b/GvXGEPL7UKBACCHkn7t75zU+f/ZGVyFQYAwNC6FRo1qwtz+f5qRm1oi2aj8Na1btg4lJeUyf0R/t2jXExYt3hUbv5DQb2Wzsf59eCzBbaISXL18C06b3Q/ceTXH//kshyBjNVwfOipompdHa0gwLF+6Aj08wXr3yxLgxq9CqVUM0aFhJ3CtrNDVVsG79JHz65IWFC2x5Qz4zAgPD0K/vUsydswUlSurz5zZkiBU+ffaBRZOh2LXrjFQGqICAr/w1GjlitRBcHYRp7Uro278F2Fxil3P3cPiwK8aNXY/jxy6jUyczTJ7SF+pqyujfd44QWJzH3Nm2sBf2adWqNr+vSpVKY9ECGz7J+leyVWUXu0+2xscRewc8fPRIrCWE/CoKFAghhPxzBw6cQ8NGNVG0WNJK0V26NcWjhy/5WfrkWOafxQv3wPOzLxydVmL+goHo288So8d0gr3DIpjUqohdO0+Ie0uws8zr1zng7t3nsDu4BEuXDUW//m0wfEQHHLCbh65dW2D16gPi3pm3aPFgJMQnCA3oRejUYaoQINTAipWjICeX/Z/X8sZFMHvOMBw5fBZnztwRa9PHX49Fe3Hv7lMcO7FWeB6j+HMbNrwDDh9ZiJGjegjB0QbcEYKx5C5euIvw8Gi4uGzA7Nl90Lp1nR9Zh+7ceQ4lJXk4Hl3GX6OBg9pip+0MIXgzwZxZG/HixTsctl/Ir2P3tWLVSEydNggODi748iWY38bf8O3bN7x6/RozZsxEkyZm2LhhPSpVrCheSwj5VRQoEEII+ae8vUJw7qwbunVrBnl5ObGWDe2pCh1dHRx1uiw1dObDB18cPXoB8+YPR6XKJcRaCWVlBcyZ0x/5UzTUg4IisGf3CUyY2Bd16xmLtRKKivkxcVJXaBVQF2syh635cOP6c4SFR+DhwxeoXaeqELT0570Cv6pf/xawsKiLGdM2wscnRKxN29u33rA/cg6z5gxBjRpGUilG2TCuSZO78ce2euVBqbP9nz9/wTLr4SikpynWJAkMCOQ9Bez1TMT+Nh06NhOCi3CMGt2Fr6aciAVGlm0a4Pu37/jw3kus/TPYc/j69StOOjujffv2aNyoITZv3ghfX1/Mmzdf+HsmPS5CyK+hQIEQQsg/deSIKwyK6MGsSXWxRkJDQwXt2jWGk+NFPoch0cOHb4UGsAKamKc9D6BAAVVYdTAXSxLPn39CfHw8WrQ0STNXv6KiPLr3bCmWfi4yMgazZ+3ErJkbhQb1AOzYtYBnbDp86NKPoObr12geoGQHa4TPmz+InzGfNdMmwyFIVy4/grq6Kiwt64g10thtdepsgavX7iIwMCn1ai3TyihZUk8sSatUyRhFikgvfsZoaKoJfxcNlCtXVKxJoqysKARPCQgJyTiwyS72Wrx+/RqLlyxBg4YN0KtnD7i5XUF0tOS9UblKFcgryOPWrZu4efNGhtv9+/fx6dNn4e9IqWgJyQgFCoQQQv6Z8PAYPsSGrch71Oki9ux2/rHt23tKaCDHwM/PHxcu3BePAD68/8wDCzW19M/cFy1WULwkwY7R1i4AHZ3Ujd9ExVIckx42jMna+iBOnrgMe8fl6N+/Bdq3r8szFs2dsxWPHr3l+7HJvTNn7OCXs8O4QnFMndYfx49dFIKlq2Jtak+fvkbxEvpCsJD+61G1SmnI588vvJahYg1gZFQc+fKlvcCZtk7qXoZE6hrqUFZREkt/Hgvwzp1zQZ8+fdCsWTOsWG6Njx+kh6MxD4TGf9s2lmjRosVPt2bNmvKhSmwbM3Yszp47h5iYGPGWCCGJKFAghBDyz9y8+QIfPnjB28sHq1cdSLWdd7kBDQ01HLQ792MybmhoKB/qktEivmw4UXLsGNYoTq9hzKQ8Jj2vXn3B5o12WLFyPCpXLsnr2O2OGdsRrS0bYUC/BcJz8sPLF2+E+l/LwNN/QEu0bWuOObM34+1bH7FWWmxsAn/sGc2LYMNxWCpXNlwqEcuylJ58Gb24f9GbNx6wtLREt25d4Ox8Uvg7/p7eCtbzERDgL/wtXwlBqS26d+uKOnXqYOfOnXxoFSFEggIFQggh/wRrtB60O4tq1SvgybODePbiSJrbwsWjcef2Y7x48YkfV7q0kdCYi+KTeNMTFCjd2GPHRMfEIUbY0hOY4pj03L71DPoGhWBau4LUMCY2+XfJ0qEoWkwPfXrNF/Z7CjOzmuK12ZM/vxzmLxjMz+DPnmnDg4KU9PW1ERwcyVO1puezpw+ioqKhrq4s1siGsmXLwHb3bixevFR4n1Tnwc6fwHqJ3r17iwkTxqNTp058aNK/yN5ESE5DgQIhhJB/wssrCJcv3UO37s0zPLttaVmfNxCdT97gjTej0gb48OETPn7wFfeQlpDwHXfvvhBLEqWMDODvFyAEG+/TbACyuju3n4uljCkoyPN5CMknWCdi8yM2bpoMbx8/4XrArEk18ZrsK2lYCLPnDIWr6y3s33c+1eOvX78m3F97CA1db7FGGnuc1689hY6uNooV0xFrZUfRIkUwevQonD1zFsePn4SVVQcoK6ceZlXTpBbWrd+AjRs3/3SbPXsOrDp0RNGiRVPNWWFzHLp27YLDR47wAIKQvCzPBQrsCzY2NpaPRUzrxyItbD+2f1xc1lfaJIQQkjb7I5egoqKEFi1M05xgnEhPT0MIFhrD0fECP3Neo0YZVDAugw3rHdKc5Hv79ktccr0rdZtlyuijdp3q2LrZiS/UlhIbTuTocCHDgCVRrVoV4ecbIDRar6YKFtjwqBfPPyEyIooPkzl48MIvNzbZ8+jcuaEQULXGksXb8PmzdIBUr74xypY1wrKle9PscXjy5D327TuJAQPaC0HOnzkj/6ex10BNTQ1mZo2xf/9+PH78GLNmzYZxhQo/ehlev3qJypUqo3//fj/dpk2bJgRd+/D06TPh73gC7a2s+PCsRAEBARg6ZLAQ9G3GNwoWSB6W5wIFljWhdOnSUFVVFX50HMXan1NWVkabNm0yHVwQQghJH1tEzcnRFRZN60BfP/0Jxol69m7JJyTfEYIAdtZ+8pQ+cHZ2xYzp23jefvbdHBERK9TdFhp4i4VGtSX/3k7EshpNn94Xt249wrgx6/Hxoz8/Jjo6HhcuPELvnjPRsVMLntHnZ0qXKYyOHZvxBca2bzvJgxfGz+8rViw/iFEjF2PsuF6YNWc41q05gIvC7f8qNv9g3vwBKFhQW3ie0itPFyighvkLhuLmjYcYN3Yd3N29eADDXuPz5x9gYP8FKFfOEIOHtBGPkH0GBgbC33M6Lpy/iP0H7NCuXXv+nBctXsR/5zNLXl4e5ubm2LN7D3bv2YsyZcuK10gsXrQAJ06coN9+kmfl2aFH7AzPyJEj4eOT9uQwQgghf87NGy8QFBSETp3NkNEE40TVqxuhZs1KfE0F1mhrb1UPO3ctEBr5t9CwwUCUMeqA6tV6Yu7srZg5cxC6dmssNPpVkbyjolHjKrA7ZI0nT9+gSeOh/Jgqlbpj0oTVGDCoI4YOs+TH/OzxsHkDK1ePRs9ebbFk8Q6Y1OiF0qWsUK9Ofxw5fA6r10zGtOk9MXZsR/ToaYlZMzfxVZszoqamzNOLZkRXVwMrVo1HoUI6qfZt1rwm9tstxf17z9Gi2UiULd0BFSt0xeCB81G7dhWhMT1fCDKSMhmpqirxORVpUVJS4D09aWFrKbDsSml1ALGz/uz1S74Wxp+mqamBtm3aYM+ePbhx4wZqm9bGvftJGbIyK3/+/GhjaYlTzqdQu05dsZYFtDGYNnUK3N+8EWsIyVv+E75w81SYzDIdGBoa8jzPLOVa1apVcevWrQwnSLGXiHVHs7RsLi4u/Mswp2BfYoULF+aLzzD9+/fHxo2b+OW8ICoqKlXXf17nHxCAli2a/QiCrTp0wNYtNvwykWAfYdar+Dvt27cXo0aN4pfZd8Tbt29RqlQpXs4pZsyYAWtra35ZQVERr1+7o6Bu0krImfHk6VM0qF9PLAHjJwzAwkX9xdLfFxkZiyeP38HT8wsMiuijRo2ywt824wY3O9P+7NkHvH/3UWg868KkVgWhgZu9dJ9+fmF4+PAlwr6GoWgxAyGgKSs0spMWKUuUmJnoT2P38/Tpe/7clJSVhdejIooW1cpRv1sZuXXrjRDoDBFLEAKuGZg9a5ZY+jsCAgLRrVtX3Lt3V6wBmjdvAXt7+2xNpvbw8OC9FokZm1gPRbt27fhlQnK6PBsosG7LVq1aYcGCBVi9ejUmTpwo7pEaBQo5y2dPTxw+fBhXLl/m6e0oUJD27VsCPn36xN/rjLq6OvT1DfhlIsE+wzo6OmjYqBF6dO8OIyMj8ZrsyyuBwrNnz1CvXtIZ15atGuDgoUXInz/PdlCT32jf3vMYPWqJWALmzpuPKZMni6W/hzXu27SxhLe3ZIJ4vnxyOHnyJBo3bszLWUGBApFleTZQKFmyJC4LDc1GQkPhyZMnePDgAcqXLy/uJY0ChZwhJiYW27bZYNWqVb8tlzYhbILkmLHjMG7s2F/qZcgrgUJQUCBMTEwQGBjIyxoa6jh2Yg1q1ZIe201IVoV9jULbtpPx6KEkYxU7e3/w4CG0bt2al/8m9rtvZ3cQI0YME2uApk2bwsHBkQ9TygoKFIgsy9OBwrVr1+Dp6YmKFSuiUqVKPHBInvUgUXqBAqtnt8cmQ2WE7cfmRGSny/Jn8kqgwCanzZk7Fxs3rBdrCPm9evXqg02bNyF/Nj+neSVQYN95I4XneeignVgDvqbA8uXjUdOkPJ90S0hWsFbIp08+WGG9F5cu3RZrgSJFiuLmzZvQ1tYWa/4uliGxfv36cHd/zcuampq4cOEijI2NeTmzKFAgsizPBwrMrl27MHjwYP4DOnXq1FQ9BukFCqwbcunSpXB1dU33TCQ7dvHixXwoyPbt2/nt/E55JVBwOX8evXv15M+XkD+BfTZ32e5G506dxJqsySuBAvPo0SM+LCMsLEyskWTl0daWnbHwJGcJD49EdHS0WJJYvHgJxo0bJ5b+jU2bNgmfm+liiZU3o1+/fmIpcyhQILKMAgUBewlY1yYLAlgdO4OQXHqBAptI26RJEwQHB/MfTjaEITnWizBnzhxs2LABt2/f5j0Xv1teCBTYj0eHDh1w48Z1sQaoU6c6Fi8dhZo1jYS/DTVMSNb87/v/8PTpJ8yfvx2XXG+KteA9i+cvXIR6is9yZuSlQIF9Jzo4OAjPdyQF7+S3Y7+3PXv2wvr166GgkHpi+N/k7u6O+g3qI1Z8n/fo0RM2NjZZOulHgQKRZdRHLGA/6nZ2dtAVfjAHDRqEiIgI8ZqMqaio8N6EAgUK8IAh+dk19kM6b948bN68GW5ubn8kSMgrPn/+LARiD8USULx4EezZNw+mpmX4WUz296ONtqxs+YT3TbXqhti9ZzbKly8tvrMkP+gvnmdudd68jL2GXbt2FRpM21GiRAmxlpBfx4b3TJo0BStXrfznQQLDTsSVLFFSLAHv3r1DXHy8WCIk96MehWRYb4GlpSVGjBjBewHYjyGTXo9CItazYGpqyic4sTzObJEfNtyIZVNiQQJLwZrymN8lL/QouJy/gM6dOoglYPiI7li+Yvgfe01J3mK9zA5Ll2wXS8BWm23o3auXWMq8vNSjkIh9N7JJzefOncP5Cxfg5+eHuNjUqx7nZbGxMXieLPgsWrQo9PQKiyWSqJCeHv+t7NK5C4yMSv2ROX3ZERcXB8s2lrh96xYvswXZrl29lqXEB9SjQGQZBQrJsJeCNbQPHDjAf/hYYJBYn1GgwERGRvLrQ0ND+b9s8Zfr16+jcuXK4h5/Rl4IFOwdHDBo4ACxBCxeMh5jxyUFDoT8igP7L2HkiAViCVixcjVGDE/KdJJZeTFQID/HXuNatWqKJWDO3PmYOuXvp/sk2Wdl1Z6PHmBKCu2HWzdvpRpqnBEKFIgso6FHybAfd9aToK+vz7vVMzsEiWFnF5ydnfHlyxd+G7t37/7jQQL5PR48eAsL8xGYO3cnDwqz6+SJ6+hgNQVhYZkfs3392lN+38HBkWLNz4WGRgrvsWNo2Xws2redjB3bzwjv1aydxY2IiEG3brPQress4b4zfp/HxCQI+82EzdaTYg0hhBBC8gIKFFJg4yPPnj3LJ9Cy+QpsQnJmsP0Sz9SVK1cOs2fP5r0MJOfbsf04nj55iz22zllqsKfk7x+CRw/d8e1b5t4zTEhIOO7dfYmEhMwdEx4eIwQjU7FrhxNMa1dCpcqlsXr1HvTrO19o0Gd+3Oy3b//Dk8ceOHvmOpYu2Svc/zfxmtRY8PTk8Rt4egaINYQQQgjJCyhQSAPLfMLSpDo6OvJJzj87y8yCBLayM0t/yoYz3b9/n09wZtmTkk9wJjmPn18YLrnewbz5YyEn9x+OOl0Rr8mZHOwv4eMHLxxxsMbCRUOxZOlwODisxPVrD3Hx4gNxr8zT0tLE/n3OuHTpsVhDCCGEECJBgUIa2BAk1iNQvHhxPub448eP4jWpsSBi5syZfC2GK1euoEqVKnzs4oULFxAfHw8LC4ssDWHK7VgvC1tpMzhEMlbzXzt+7ApU1ZTRu48FGjWuBXv7C4iNTRCvzXnc3T2hW1ATpUsbiDVCYFu5OHR1dfDhvY9Yk3lWHZqjlmllzJyx6Zd6UwghhBCS+9Bk5gy8fv0aNWvWRKFChXiwkHIyM+tJmDRpEg8S2OqRrCciOTZ8yczMDAEBAXj27FmWsiRklqxNZmZvt602Nli0cIHQSO3IF66pKgRXLFNUev7UZOaoqDi0azsF9etXwYKFg3Dl8lN07z4NJ06sQ+065cS9pLFhRW/efMHlSw/h+fkLDEuVEAKMGihTRh+7bU9j8aIdePTkMLS0VMQj2Pvkf3gvNOKvXH6Ed28/oEhRAzQ2qwFj4+I4e+YWevWcibfvTwnvM3XxiPTt33ce8+fZ4OKlrcL7WI/XeXoGwdSkN2x3z0er1rV53c98/RqN2qb90LlzC3TrZoG2bcbBsk0TrFs/GvLy+cW9JKKj41G9ag906twKS5YOEmsl2HN7+9YL164+wVuPD1DXUBdeDxPhc1NG+JtKpzbcsMER9etVQfUaZeDh4YVLlx5AWUkB/Qe0Ej4joTxhQIECanj1yhMXzt+Gv18AqlSrKHzuagiBkOaP1/HihXv49NEThkYlYW5eUwia9MV7yB6azPxrk5mjhO+5B/fvC9+N5+Dtk/VgNbcLDwvHuXNnxRJQWfi+K1++vFgiiViWI9NapjC3sICh8PuclXUK/jSazEzyMgoUMsBeGpbidNq0aTwoSBkoHD58GMOGDeMpUKtVq8brUmK9CU2bNuWN+aNHj/72Lz9ZzHrEehUamzWGuxCIycvLo5bw49C9e3ehodoGhQoWFPdK8qcChatXn6Fn9xm4fGUHypTV5z0JpiYD0Kx5XaGxOEL4W0lnt2LXL1ywmw/VKVWqKHQLqvNJwZ8/BWDAoHbCD4cSli+zlQoU4uO/YcN6B6GRfAjFihaGXmFNxAgN7w8f/NChoxlq1CiHAf3nZjpQCAuLRoN6Q4THWA/Wy4cJf/84jBuzDr6+gXBwWioEo4rinhlLHigsXjIIO3acxYxpa2CzbY4QEDT88R5n0gsU2HPbvOkYVqywRfFiBihaTEd4bnF4+vQdqlYrj1Wrx6FcuSLi3kCD+qMwdGh7vgLrqpX7hCCriPDZqI2Zs/pg+LA10NBQRomSBti62R5GQuOfPYZnz95DV6cA9u5fgEcP3wj3tRfFi+vyRsX7d94IDgmDre18NBWCieyiQCH7gcLjx4957+v169eEIDr9eS6EZJaWlhYGDxmKiRMmZKkx/idRoEDyMhp6lAH2Yz9+/HjUrVtXrJHWpUsXvHjxgud+Tg/7Mrl8+TLPgpSTzpBkFwuevglBExtWFRgUBM8vX7K8sWFHQ4cO568Hu52bN29g3LixQkOyPiZNniw0Dp//8UYHC/ycHC+jeg1j4Yu/EK9TVMyPDh2a4OzZ6wgKkp5bwp735k1HYbvrKJavmIAz59bB0Wk5Tjqvht3BRXC0v4Arl5+Ie0uwY+wOXMRya1uhMTwELufX82OOn1yFYydW4Pq1R0LwmHGwmpK6uhJWrBoP+yNnsXatI7p1nY2PH72xeeuUTAcJaend2wIWTeth3jwbeHkFibXpY89ty+YTWLHcFgsXjcH5ixt+PLezLpuEQCQcfXvPTZVR6dbtl9i//yzsDi3BmbNreZCQ6OFDd1w4f0e4jZU4emwF386e3cBva/gwa2zbdhT29suE+pVwOrpcuM/NqFmjImbN3MQneZO/6+69e+jYsSPc3K5QkEB+mxDh92H1qpUYLwQKbI0iQsi/led6FNjTZSsrsjPZmV1RlJ21//DhAx86VKxYMamzrf/a3+pRiI2Nw8tXL3HJ1RVX3Nzw+vUr+P7BYQZmZk3Qp28fNDEzx+Url397j4Kvbwhq1+qPNWunoFPnBmIt8PTpBzRvOhJr101Fj55NxFrg/TtfNLUYIQQyAzBqdOozQU+ffEQby7FC8IMfPQr+/l9hbjYCHTs1FxrT/cU9k3z6FICm5iPg5xeQ6R4F9v5988YbfYRG+OtXb9GhY3Ns2TpJeG8qiXtkTsoeBebNGy+0bzcRtUwqY6ftdCgoSIYgpdWj8NbDG82E12nEyB6YOq0br0vu7VtvWLYahwEDO2L6jB68jvUo+Pn6w95xOapXlz7TznoUnE9exAXXbahQoZhYK3m+8+fZYu2afTh0ZCUsLU3FaySuX38lBEtTcNF1K4yNk47LCupRyHqPgo+PL9q2bQN399dijYSqqorwvsl+wEryqv8hIiKSnzhKbuq06Zgze7ZY+neoR4HkZXkuUMht/nSgwIZqXb16DVu2bBb+dePzLv4mNkyseo2aOOrkKNb8nkDBdtc5rF69VwhCtgoN9AJiLXs949G500w+F+HsudViLbB//0VMnbwaz14cga6uhlibhO0/eNByXL5060egcN7lIXr3moGr13eifPnUjVg25n7G9O3YuuVgpgIFSS/IdeGHczPq1a8mNEbz4cnjV0LD21pokGZtpde0AgVm397zmDhhhRBATUXffs15XVqBwo7tp7Fgvg0ePz0ovB6pHzf7WmHP7eKF27h2YzuUleV5oFC0qA4O2M1D/vzSq66yQOHd2884d34N5OSke9527jyHmdPX4vnLI1J/K+b1ax8h4Osh/K02CK9JFbE2ayhQyHqgsGLlSj7PKJGGujomj+wJyyYmUFNJf74RIWlhjZAPnr5Ytc0Bl67d5d8fjK7w3nRzu4bixbN3EuB3oUCB5GU09IikiX1Re3t78zkYXbp04hMV/2aQoKSkhIYNG2HBwkVo3KixWPt7xMUlYPfuE2jSpLbQYM2H4OCwH1tUVDQsmtbC3TtP8PqVl3gE61HwQnnjstDUTHtCOmvcVqwo3Sh8/94LJUoWhYGBjlgjjc2BqFgpcw1J9vc4cMAVkyetwsJFI7Bt+1ShMT8GenoFMWLYcoSHS/4222zOCkHdaX45O3r1booWLRvySdnu7l/EWmkswLl+/T6qVTdGgQJJk7aTYw3l+g0qw98/EH5+kiCWqVWrcqogIVFJwyKpggSGDVEzKKKfZq8Jew3Za8OCKPJ3sMnLZ04nvcfY32fT0gmYNbITalQoibIl9WijLUtbOWFr2bAqjtrMhnnDpIQMgYGBOCf89hBC/h0KFEgqrOF17fp1tGljCXv7I0LDOk68RkJXtyCfgDxw4CBMnDRZ2KZkeevWvSefkJoca1wWL14Co0aNxuUrbjh16hQ6WFlBTf33Tmi7d/eNEAS8w769x1CyeNtU27w5m3kXuN2BpEwlLOuVmpoyb5imJ2Wj+eOHj1BWUhQaxtJZhJLTSqehnZK7uxdmzViP2XOGoWs3M8jLywlBiwrWb5wI/4AgzJi+DbGx8bh86Q7evfssHpV1rKG+zHqkEKgpYub0rWmmimWNcjapWltLlTcS06OvrydcL8cfVyJFJelMSMmlF0Aw7L3BNvLvRUaE49WrV2IJqFyhLKyamSIf/X3IL9JQU8L0UZKhionY2XhCyL9DgQJJxc3tKvr17ZPqC7pSpcpYu3Ydn5x97tw5rF+/Hgvmzxe2eVna5s+bi/8Jjc3ECZCssckCDxubbcJtX8GyZctQqWLFDBuh2cUauXZ2Z2FsXBpXr+9Id+vSpQXOnL3+Y20BAwMDnmEosUs8LSkn1BoUMRCCrPgMJ3qGZXISLks/qqGpAasODcUaCZYa1GbbLJw5fRWLFh7As2evUbXKrw13KVZMF3PmDYXb1btCsCTpbk+OBUtsKBF77Kx3IT1BQSH89WZBDck92Ps5KippzQ39ghpQTZEKl5DsKlFEOvNdQop5C4SQv4sCBSKFrSrdr19f3uWbqFAhPSxfsYIHCIMGDeKpZRUUst8wuHHzJpycHPjt9uvXH1evXudpZ3v06CHUFfyjZ469vUPgevEOuvdojmrVyqa7DR/RBe/efsKVyw/5cUZGxfD69VtERsbyckqS9QSkh+qUEo75/NlLeC2Tht4kx4IOD4+0h/ekxCY8a6irQUlJXqxJYmpaFvMXDofNVjuEhISjtWU98ZrsYa9/hw4N0L17ayGo24THj9+L10iwAK5OnRp4+sRdeD3SDnTYc7t96zmUhAaknp6mWEtyIzkhcMxpvQns8+gbEILPXv74Gp65zDnsPZt4TETUn8+iFS58dnyE+8so2P6TQsMi4OMf/M/uPz3Uc0hIzkKBAvmBzUkYNXo0goOT0mOWMjKCvb09RgwfwecN/OqXOJt8fezoUaxatQbXr9/Axo0bUbVqFZ6F6k//QLCGwCnnG8JjiP1pY7pK1ZKoULEcHBxc+XoBdepWYDeAkyduiXtIe/vWB+fOSqc6ZZl9VFRU4OSYdgpUX99QODq4iKWMValaHu8/fBaCF2+xJgl73SpXLi3cFxsK9J/wd0wK8rKLzd1YuGgo2IrPs2duThUQNDarxjNhHT50WayRxlKsHnW6CCurZr+UtpWQ7IiKjUfrAfNRom4vTF62W6zNWGBoJKq2HMWPcTh7W6z9c/afuM4fY3SyoXl/k/VWRzTtOQORMXTGnhCSPgoUCMeGiGwQGu0vXzwXa4AiRYsKDcEjfHXq39WIZ+P1Fy9ejMGDB0Ffv/BfPXvEzpwdOXwB5ha1efadjLDUoD16tMCVK3fh6RmIcuWKwqqDBT/Dfu3qcx50MOxfH58QjBy+DJWrVIKcXNJ8BH19bfTr3xarV9nizJl7fN/ELVRolIwauRwlihfPcFXqRHXrGkOvkA4mTlwHf/8wqdu6fu05Bg1YCJNaFVHeuBTGjF4FP79Q8cjs09ZWxYqVY/HsmTtfyyC5SpVKoFfvNrBetgMXLjzi7x+GPZ6goAiMH7cWERHRGDnq1xfGI+RXnL9yB75B0u/ftJy98gD+AQFiiRBCCEOBAuFevHiJbTZbxRKgqakJ2122MDYuL9b8HixQyEzD+E+4ffsNHj9+jk6dzTOcOMuwAKa1ZR0oyMvj8OGLfJKv9fIRqN+gJrp3m45uXeZg4oS1GDhgCczNRqJipdIYMbKDVODDhuhMntIT3Xu0xuCB82HVfgY/ZugQazSsPwxqaqqYNbtfpuZiFCyoiW07ZiMkOBRVKnXFgH5LMGniWnS0monu3WegQcNq2LtvLo7YL0V0dCzGjFqDsLBfX6yoiXk1DBnaOVVAx16PRYsHC8FTU/TsPhVtLKfy5zZsqDVfn8Lzsw9fL6FkSclidoT8C6Ym1eAXECQEAffFmrQlfPuOHYfOoFbN6sJnLfsrVRNCSG5DgQLhduzcwddMSDRw4GDUrp2Upi43MDDQxKkz62FhUUOsyViJEoXgeNQabdtKVuZmQ2i275iG3Xvmw9CoKHx9g1CsmD522s7G6jWjYWpaBvsOzBMCgKShNmzS78pVI3Hw0FJUqVoGfn7B0NHRwvoNk7Bz1wxUqVJSaFAvRYECmetVYKsRr1w1CYpK+YX7D0a16mXh4GiNdevH8VWbdXTU4Cjc3sjR7fmaEOlRVVUQnsccDBjYSqxJGwsIps/oLbxu6zBwkPS+bCXrVatHCq/RKtSqZcxfj3z/5ePzJdi6BjVrlhb3lFi3fizat097yNf4CZ0xbnxnsSStZcua2LZtinB/qednFC2qhZOn1qBSZSOxhpAkOtqaaGXRAI5nriEuPv2kAg9efMDj5+4Y2K1VpgJ3QgjJK+gbkQiNV3+pvOh6enoYO3aM0EjMGdlqUvZAxETH8CEuWWVoqI/69asIt5e5idis14E1gCtXTsoixCYTN29hguXLhwuN/8VYuGiQcJsV+b5aWmqoV4/Nt5B+3dh1Zk2qYpGwLzvGWjjW3KI6H96kpq6Mhg2r/VgF+WcKFtRAn77NsG37dH5b8+YPEAIIliEq6Yx/cSHAMTOriUKF0p9EzB5T3bqVYWRkINakT118jGntywKJxo2rYsFCyXOz2T4NvXs3hbYQsKRkYlJOCKykM5okKl++ON/SwtahMK1dgd9XSioqivy5Fijw81Wt08PmzSSnqEgZfHILNsm6T6emcLvxAB+90h5WxL5Ljp67iYJCAG9Rr5JYm4Rd7x8cjjlr7GDabjyK1OqOEnV6YcjMLbj37H2q76LYuAQ4nL2JTiNXoETd3igu7Ntrwlpcufsq0xOHvQO+YrBw+2v3XUBkdFJ66oCQCCze4oQ6HSbxx1GzzVjM32DP51ekxB6Xj3A7c9YeRA3LMXz/Zn3mwtbxstRtEkJIRihQILh95zYCAvzFEtClS1e+ImZOUaRIEaFhm9SQdna+mm72IUKygp1lPuqUlAKWnU0uVrSoWCK5gZlpBRQvqo/Dzm5ijTQWBBw54YrBPdtCMY1Uvh6f/WHeYzpc3O6jWzszLJ02EBOHdcfbD55o0Xsa3O69FveUBAljF+7EsGlrUKJIIcyf0Aczx/TiE/+tBs3G0Yv3xD3Txhr3zz2+oFXfWQgK/orebev+SD3r/tEXZt0m44CTC1qbm/LH0al1Izg4X0KTblPw5qMf3y/R49efUaf9GBx3uYHu7Zvw/S3qV8OGXU7oP3ktomIoWCCE/BwFCgSPHiZNRmXat7cSL+UMRqVK8exLiZ48eYm5c3YiLOzPpzAkuRcLNpcu2Y8bNx6INUDhwvqoWrWaWCK5gZaGCto2b4BDJy4jJo0FBN3uvhQa5aHo0KKOWCNt6aYj0FBVhrPtAkwabIV+nZtj3IC2OLFzHiobG2H97hPinsCr997Yc/gktiybiDWz+mNA1xYY3qs1Dq6fhP7dWmP6EhuEZrB2yrUH7kJAIdxu+VLYt3oCCmpJeuZiYuMxffluKCsq4ILdcswd040/jpkjO8PNYTV0tAtg/EIbxAiBChMRHYfhMzcIAVJhnN27GFOHduT7Tx/eEef2L+Wra7tcTXrfE0JIev77X8p+UyJT2LCJwoUL4+tXSa7+/v37Y+PGTfxyZrDFk9q3bw83tyu8rKWlLTTEnwj/avFyTsDeojY2Npg+fZpUQKNXuCCqV6+YY4ZIEdnB3kfPnr6Gl5ev1NCRGTNnYcb06dnKxrVv316MGjWKX2bHv337FqWEIDcnmTFjBqytrfllBUVFvH7tjoJZ7D309fVBmTJlxBJgaVEbp3YvFks5A2soN+oyBQb6hXBqxyw8cfdE487jYG+zEM3rJw0vYn/75v3mQ0VRHo5bZ/ChOqbtxmDZ9CEY0MmMT3Ku2Gw4Rg/ohDF9WohHJZmx+iAOH3PBh+t7ednl+nO07DkBry7vRnkj6Z6pZx7e6DpsHpx2LEAFIwNsOXgROw4647rDSigp5ucpWcfMXo/RAzth2tAOQl3SnJzrD9+geY/JuHh4NepVT3rtE7EhUE27T8b5gytRu6oRjp2/i37jl8LVYT1qVSwh7pXE43MAarcZAf1COrh9ciPUVXLOcLu3noEoUz9pdebBg4dg7dq1YunfsLJqD1dXSc9jSUND3Lp5C2pqqYdXpoctXmpubo7Q0BBePnHiBNq1a8cvE5LTUaAg4341UIiKikLLli3x6JFkYTF2NvXChQv/LDNRetjj7Nu3L1xczok1hPxeprXr4Pjx41DPQgMgOQoUco6UgQJr8Jt1nw6jEkWwe8XYH3N63nzyR7Xmg7Fvwyx0blEbn32CpQKFb9//B0/fUGhpKENTTYkfkyg2PgEDpmzA5et34HP/CK/76BUI07aj0LSRKVbOHIwiGcwTSgwUrhxejr1HL2P6ki2YOrov5o7qLDXniFm+7RjsT7nhmv0KqKQxxyo8KhYNO03CgO6tMa6fsC3ejWt3HuP+iXWpbiuR1fBl8Hj7kQKFTKBAgeRlNPQoj4uPj+eN8ESaBQpALtl8gJyCLVy2ZcsWtG5tKdYQ8vs0bmyG3ba22Q4SSM6WXy4fendsjkvX78M3MEysBQ4cuwR9PV2Y160s1khjq06XNNCCkkJ+PHj5GZv3nsRk670YMnMrarUZjbuPX4l7ShTX18GWpRNw++EL4foR6DpmJaxtnHDv+ac0F1aLF4KN+RuOYOGa3dDV1obL5duIiJKeO/D9f//D4xcecPd4J9zmSFRqOjjVVlsITt68+4gXr9/xY9jijGVKFU83SGCK61MaWELIz1GgQKSwYTzZGXbxNxQqVAj79+/Hvv0HYGbWhJc1NDShrq5BW7KNnelK/jdkE8HT2i8vbxoaGigovH/q1auPbdt3wMnJCcWLp511ieQO7ZvVQnRMLE67PeBDjoLDovgk5m7tLKCtoSLuJY3t53D2Dio0G44RM9big3cwShloY3jvNrh8ZDV6WFmIe0qwhnmnFrXx5tIOHNg4F2VL6uPSjUdoP2AGStXvh61253jvRqIXr97grOtNnNprDacd8/HqzQfMWr0P8QnJUrn+T9J7UcxAD4O6t8Jgti5Lim1oz9aSyc2tGvBDvoaFQf4na8Ww4IcQQn6Ghh7JuF8desSOs7CwgLu7JHNHE3ML3miSz4G9CsmxMeZ+/v788Seft0CAoMAg9O3bB4GBknSQzZs3x6LFS/hlIsECKbaooJ4QLPyuOS409CjnSDn0iPkmNND7TloL38BQnNs9D85XHqLXqEV4csEWZUtI0vamHHr06NVnNO0+CbPH98XIXq2gmKJxPXf9EezYf/TH0KO0sJ9YtjL0HkdXLF67Gw7bF6F146p86JH1pv24eHCFEFDo8X037DuLaYu3YP/G2ejU3JS/j9jxo+dtxYPn73D5kDWU01hPJKWB0zfDNyAEZ3bNFmtS6z91A+49fEFDjzKBhh6RvIwCBRmXVwMFkj62LkajRg3g7e3Ny126dIGt7W5+mfw5FCjkHGkFCszJSw/Rbfg83D+7HfNW70VwaDguHFgEOXGRtZSBwortx7BxlwPeXt+fKnUq++kcOmsrTp13+xEoDJu1BRER4di3ZkqqdT/YfIfG3WegeqUy2Dh3kNRk5sQUqCxlab9J63D7wXPcPL4exQpLkkrsPnoVkxZsxKOzNihhoMPrkgsKjYTVkAUY0qsN+lo14nMaVtscwssru6GrqSrulSQyJh512o/D92/fKFDIBAoUSF5GQ48IIYTkCQ1NjGFUshiWbj6MC253MVRoWCcGCWlhw4TY2gisIZ4cCxJuPX6Hky7XxBqJMoZFcOX2c3zxCxZrkrDhRBGR0RmehFFRUsDauUP4opAj52z6sdZBk9rGUMgvB+utjsLtpO5BtTt5DS89PqJ+TWNe7tiqAb7jP2w9cFZqqBPDAhbWu/HZS3rdBUIISQsFCoQQQvIElr3IqmUDHDnmwtceaFKnonhN2lo0ronQsHDMWLEbH70ljf/A0CjsP3ENY+ZuQofWjREVHYur99/wgKKrZUOhka+IvhNX48ZDoS4+AWw1ZvePfhg11wbvP3xCx5Z1+e2kp6ieFjYvGY9L1+5j9c4T/Hg28XjyiJ6wPXQC01fshZe/pAeZrcmwy+ES5q3ciXGDuqBkEUlvQ5niBTF6QEcsW78HK7YfR9BXScKKACHgWbPrJKw32WFgzw68jhBCMkJDj2RcXp6jEB0dzZ8/kebvH4C2bS3h5yc5Y8i6uEEYY7AAAM1ASURBVDds2MgvkyRsFWaWTUtBQYEPFfpVNPQo52BDj9oNnA+9wro4tHaiWCvx8r0vmnYbj75dLLFsSm+pv/0X3xA07z0ds8f1Qc+2DXjGoQ17z2D5ZjvERMdATu4/5JPLLwQZWlgxcwiqGpdC24GzERQUAtdDK1C2VBE8df+C0XM34vmrd8j33/8kt/+fHHSFwGTl7GGwbFJDqP8Pto5u2O/kglO2838MPUrE7nfBBnvYOZ2D4/aFqFa+GO8Z2GLngtU2hxERGYn/2Cxn9n9h3ymjemNcvzZQVkqav8ACF7b/KpuDfGVo/O878ueXR4liBlg6bRCCQsKwfqcDXA5YQ42GHmWIhh6RvIwCBRmX1wIFtkDc4ydPsGf3bty8eRPv3r3ldYRkFfuhr1ChIjp27Iju3btDRyf12O+soEAh9woIjcLdhy8RHhGOIgb6qFah1I9x/ewn9LvwK8pSqSZivQDPPLzwyt1DKP2HcmVK8UXWUk6Gzo6Q8Bg8fOaBgMBA4T2sCtPqFVBIXME5Law34cHTNwgOCUHpUoaoKgQdP8uI9C9RoEBIzkJDj4jMSEhIwJq1a9C+XVvs2bMbb964U5BAsi0iIgJ3794RGs/T0aZNGzx4KFl0kJCUChZQgaW5Cbq3a4KGJuWlJv+yoDB5kMCwNKlVyxXl+3dvZ4bqxsV/S5DAaKkrwaJeZX7bbcxNMwwSGB1NFTRvWI3vb1KpZI4OEgghOQ8FCkQmsKFGa9auxaKFC3/0nhDyO7Azws+fP0PnTp3wxoOdASaEEEIIQ0OPZFxeGXr04MEDtG3bBuHh4WINoK6uhirlS+Wo8bVENrChIWxCqPvbD1K9Us1btMChg4f4vIWsoqFHhPw6GnpESM5CgYKMywuBAnuLjhgxAnZ2B8QaoEZVY+xcMRkVShtAUT5nzqcgORd7T4VFxuDI6esYOX0VX4yLUVJSwsmTzqhbN+PMNGmhQIGQX0eBAiE5Cw09IjleaGgo7ty5I5YARaGBY7dhpmTcLwUJJBtYQ15TTRlDuzXDtDH9xVpJ4H3lyhWxRAghhORtFCiQHC8qOlpqyJFpjcowKlZQLBHya6ya1RYvSbx69VK8RAghhORtFCgQmaOupsSzihDyO7CMNslRJi1CCCFEggIFQpIJDYvCnUevcPfxa77AUWawse7smIcv3v0Y655VcfEJ/Pjgr5FiTfp8A0Lx9PXHLN3Xe08/PHn1IVPP6eMXcd+E7D2X3y0sQvI3iYqJE2sIIYQQ8jdQoEBIMjcfv0Wd9mNRr8N4PHj5UazN2FY7F35M20ELEBMbL9ZmTZAQILDjr9xzF2vYyqrxsD91DR++BIg1EvZn76DHuFWIzsJ9WW91QvfR1giP+nlje/WOY+jG940Va/6tBy/e89f3g1ewWEMIIYSQv4ECBULSsd/JlWfHyQhrrB9wcoGc3O9fxIidQR+3YBvuPH0v1kjIy+eHmqr0cBlCcqOQrxHw8g1EUEj4Tz+LiULDIvkx7N/sihY+e74BIZnqtWOfU77v98z1wLHUvGz/r+E/f3zsOfsGBCM0E/v+LfEJCfz1ZScyCCG5HwUKhKTBwqw+nM9fQ0BIxj/QV++9xIdPXmjTqplY8+d1s6wHh62zoKwkL9YQkjuNW2yLoqY90KLfHMTF/3zuSExcAjqNWMaPmb5iv1ibdaeuPIGp1QSpz39AcBiu33shNJATxBqJ4xcfoG7HSQgKjRJrMhYWGQvTdmMxb4O9WJM+9nxM247BvPU/3/dvcX/vw1/f20+kT2AQQnInChQISUOXtubwDwyB290XYk1q7AzigaOXYFzOCKZVSou1f562hjKK62lCLh99fEne8OjpK7x45yOW0vfCwxN3Hz0XS7/XjYce6DpqKYK+Zi4gIISQ3IBaGoSkoVjhAmjWuDb2ObogPiHtM5lffINx8dp9DOzaAvnlpD9KLzy+YOaKPQgJixZrpN16+FK4fjcio1PPGfgaHo25a/Zj2tIdCAsLw54jpzB27mZs3e/Mrz9y7h76TduKqDSO/VPYEIjHrz9jwNSN0KvZA/lKNEephoMwdfk+ePlLFhFKjg3J2uN0CWY9ZvF92VbWfCgmL9uNgOCkVLeJAkMjsGDDEVRsPpLvq1+rF4bM3IqX77zFPUheVcRAH8WLFcGOg6fFmrR9F96jB09cga6OFioYlxdr/7xmDarg9L7lKKCuLNYQQkjuQYECIWlgZ+v7dm4Ot5uP4CkEBCmxhvPx83eA/4D2KfLwM5+8A7HriAsi0mnMv/L4jF2HzyEmjeEUCd//hy8+QfD09ue9FoFBofjo5Qf/IEmD3M8/GPcfv+ANo7/F9fZLNO85RXhMflg1exjO7V+GqSO74/TFW2g7cB4+fAkU9xQe/7fvmLn6oBDobEeTetVweu9Svv/Abq3h4HwZvcav5EMqEvkEhKL9oPmwPXIGg7u3wtl9S7F50Wh8F557674z8DoTZ5JJ7qWirIjObS1w7vJtBKcTeDMhX6PgeNpN+Ny2goLC3xuWV7CAKioYFoSC/O+fp0QIIf8aBQqEpKNRLWMUKqiNI6euizVJ2ITE/U4X0dKsNvR0NMTa30NHUwW2K8fj4KZZ0CpQAJNH9sbJXQsxb3xfcY/sYQ3vqOgYRP5kY5MVkwsWGmATF2xFs8amOLZtNvp0MEPzRjUxvEczuB6yhqqKMqZa7/ox2fTpGy/sOnAcNtaTMHd0Z7QyM+H7TxvaXqibiBt3Hwv7fOH7sqBi/vpD+CQEQmf3LcOEgW3RorEJOrasi21LRmDyiB5YufUQ35fkXV3bNEKAEChfvP5YrEnt2v3XCAn5is6t6uK/FMussN6/9bbH0w003n70wurtjsL7P3Vg//qDD1ZsPYJjZ90QERGJLXuP8/Jzd0lWtKsPPDBh6X6EhqcfxPwJ/sHhWLzFCXU6TETxOj35PAnrbcfTfBwRUbFYa+sMi54z+b5s6z1xLVxvPuPfZSmxdM2HT99Am8GL+b7VWo3iwf8Xv5BMTyonhOQOFCgQko5C2uro0KoRDh53TZWK9P7Lz3j++o3QaDaHXIphRznVm3cfUdSkC9TKtc1w27b/hHiExEnXu/ji7YtVs4ZCXVVJrJUorKuJueP74PT56/jkE8rrHj57g6qVy8GsdiWhwZbUYmOXK5UzhIqyEl6+8uB13v6hOHTsAuZO6A/jUvq8LhEbzjW8ezOUNSou1pC8yqioLswb1oad8FmMT2N9D9a7tnHPcTRtZIrypYqItUk+egVg/tr96c4veOnxGTNX2CIiOnUmH0+fYBx2voLrd54gOiYWJ4T3Oit/9PTl13/xCcTxs5czNdn6d3n13hsNOk7AwaMX0LpJbcyf0FcIsE2x66AzmvWaITzfpB6+4LAotB28CDb7T6JB7cp836lCAB4WHoGOQ+fhwMlrUo3/8MgY9J20FsOnr4ZhUT3++R7SoxVeeXxC/Q7j8Pqj5HkTQvIGChQIyUDHVg3wydMLtx9LGraJdtu7oGJ5I9SpXk6syfmKFzXAuQMrcOPougy3Tq3NxCMkrt99hnqm1aCvqy7WSKtWwRBaBTRw78lrXu7WpgGObZsLTTXpoIJxf++FqKgYxMdLztw+feOJ/Pnzo0kd6aAiUf78csLjaSSWSF7Wr3MzXLv9mC8emNKbj/649/AZurZtDPn8v/dnrVm9inh4ZitWzx+LgrracLFbxcttmtYR9/i7WDrWiYt2CI+lAC7YWWPu2G4Y2K0l5o/rBjeH1cJnRh6Tl+78MbfKxs4FHz974eTuRVgwrgffd3S/tnDYPAPtmjfEup1HeQ9Cos0HzuL8lTvYv2E2Ns4fwocDjurbBkc2TsW4QZ2xcO0+cU9CSF5AgQIhGTCpWBLGZY3gcPrajzkBXv5f4exyFT2tmkIlB6QovfvsIwpV7wKdKh2lNrf7b8Q9JNiZfNPqxqhnUjHDTV9PRzyCDUH4Bve3n3Dh8s1Ut5+4lWvYG75+AXj99jM/Rl1FEWrK8njq4YUNe5wxdv429Jq4HnU6Tsb8NXulzl6+e/8J2gXUoaWpJtakVkw/6fGQvMusdgVoaxXA8Qt3pd5D7PLBE5eFYFUTrc1qirU5n80exzQ/T8m3IiZd4eUjveDizYfuuHLjPjYtGosiegXEWgn9gppYNn0gXC7fgfsHPz7H6dqdJ2jTvAHKlSws7iWhqJAfFg1r4tWbdz8ChaiYeGzY6Yhh/TrAsnF1XpeIzcEYN6AtihkUEmsIIXkBBQqEZEA+vxz6dGyKUxduwifgK687c+U+wiOjhEChCS9nx++ciFyqqC42Lx6DrUvGSm3lDaUbBtnBHidrbNQzrZzq9hM3m6XjcGjTTFg1l5xh/eAViHZDFqPr8Pn45BOMmpVLY0SvFrDfMgf2W2dDTS1psbiYmBjek5BWb0Ki/HLpX0fyDi11FVg2rYu9Di58bkuikLAoOJ1xQ48OTaGhqijW5nzmDWul+XlKvm1YOFoIgKR78q7dfYFqlY1RsbSBWJOEfY6qGhuiSGFd3Hn8GsInC9uXT8C8sT3EPZKwuQnvP/nwz2Bi4PX8rTe+hkfAqmlt5MuX+nMnJ9QN6NZKLBFC8gIKFAj5ibYWtfh4Xrc7L/lcBTZnoZV5fejrpD0UJzMCv/6+iY+6WmroYtkIXduaSW2/Y5K1orwc9ApqCY17jVS3n3KrXK4EP2bCwu2Ii4vDFftVWDW9L/p1skCDmuVRvLAmvz45IyNDREbF8LHf6fELihAvkbyMNVy7tG6IT5+/4Im7ZDI8c+OhO95//IJe7bMfuP9Obz76oa7VeFRtPlRqO3f9qbiHRFmjEml+jpJvbNgd6wlMxFaKfvLiDV68coeJ5chU98G2Rh3H4pOnN56/fsdfs2J6miigroQX73z5kMnZaw5i9IJdMG03BkfPXhNvWeLDpy981XeDwgXFmtRKUA8fIXkKBQqE/IRBoQJoZlZb+JE9i2dvPHH7/jMM6t5SvDZtbNx9fHy80AhOHRCwH/vHL2RjVVN2htK0RiXce/SCZz9Ky4t33tCr2R3nbwj7hEXjxt1H6G3VGAYFC6TqKfDyDURUdFJQYGxUFAGBQbjzxENqOEki9lqxtSoIYUwql0KVimWx49AZ/n5hPQu2R1zQsE51lPuFHrS03nvZpaWhwnsbWXrl5JthkfQb35nFHmVs/DeUKKqPvp2apboPtvXv0hyLpwyApbkpf143H3ugZttx6DZiAe48+whdTSWeRerYrkWYOrKb5IZFoaGhwmcWGSZoUFLIL14ihOQFFCgQ8hNs+FFPK3PcfvAcSzYdRvkyhqhd1Ui8Nm3Fi+jxXogb91+KNUnuPf+AyzcfiqWMsYZ2Rmfb/4a25rWExxCNZTaOqRafY+XNe09BTU0NDUzKIp+4WvTbzwGphleFR8ZizY6jiI5OCp5KFysI84amWL3dAaERqYOqG4/e4OzluzzwIoQ1Uru0aYxzl27DLzgCX/xC4XrtLm8gK8hn/z0SHBYjXvp1BbXVMaZ/e0wa2llqK2condUrO9jQHz1dTejoaGPcoI6p7iP51rR+Vb4GTO8xy2BerxpuH18Hm0XDMF44rlHNMiimp/Xj85qotFEpxAuBSFonOBL5h1APHyF5CQUKhGRCY9MKwg90AZxycUNny8bQSJEmNKUyxXVgWqMyFq3bB+fLjxEZHYuY2DhcuPkCw2asw8CeHSAnl/ECTazho6tTAGu3H8HqHY44di71eg5/Q4XSRTB5RG+s334YU633Co2PED758bNvKCYv24ODR12wbPpgqCjKQ1NVAS2b1MXOg86wdbyCsMgYnsP9xqN36DhiCQoKz6dkMQOev/3dlyA+oXLehN54/eYDuo5chkevPyM2Lp73Xuw5ehU9Ri7CkN7thUBEVXw0JK9LXFPB9cYTHDnlBi1NDVjUqyJemzbWIGZn19MKuln9q3deYilnYycOalariJfu7/ncjLT4BYWjQadJcHK5i4fP3+PDJ0/MHdsDairS8zfY8/b1l15MsnRJfXwNC8Pdx+7p9rJcv/dcvEQIyQsoUCAkGXUVJVQqVxKqytI/qtoaKrzBWqtaeXQTGioph9ToaqmjvFHRH/VsZed9a6egTKmi6D16AdTKtYFWpY4YO2cdHxbQvqkJ9PUK8m5+hq0ZwI5PHoCwx7B+/gieZWSPvQsuXHvA63UKqKFMSQPkS/EYMlJETxtlDIVj0pigmJJ+IW2UTbYvu59ZIzpgzYLxOO92F2Ua9oGiUSuUb9wHrtfuYffa6ejUwpTvy57/2rnDYN7ABDOW2kDTuC0KVGyHbsPnwbRqOSyf1hfTxvTh46e37HHgx9SrVgauR9bg27dvMO86EUqlW6NY7R7YuNsJq+ePxuAuTYRgpTgPKggpWkgTrSzqY7f9Oew6eAYdLZtAXzfj+TiFdLV5w/fKzUdiTRK25sCRE66pPtMpsavZULiUvWp/W7P6lYXHkYCV249JTepmWC/eXqdLcP/wBXWql0XCd8n1vkFh/N/kPvsEw2af9JopJQqzYZb1sGW/c5pDDd95BsD28JmfnuQghOQeFCgQkkxDk7J4dmEH6lYtJdYkmTbUCrePr0fp4qnHGg/sbAZXu6VQUVYQayDsVwinbOfjxvENfGLvtaPrcPfkJrRtUgNVyxXFmX1LoClmaSkoBBrs+KZ1K/Byoia1K+C07Tz+mLYsGcfrerWrj+PbZkrd18/MG9cdJ3fO+3F/GZk5qqtk32TrILAzsqN7N8fNY+twzWktfz7XhedzW3huHZrV4oFRIt0Cqji4fjLuCM/1iv1quDmsxb3TW7B4Yk8oK8pjaFdzPD2/HatnDxePAKobF8fZvYtw68RGfts3jq7HNYdV6N66LkoY6ArlNShdTFfcm+R1bE2Fy9fv4aOnF3p3MBdr01fSQAs1q1bABtujcL31ko/zZ43qVx98MWjaBjRrUheqKknZuNJSUEcLQcEh2LD7GBxOu+Hjl9TrOfwNZUvoY+zgrtiw8zDmrz/MexCYkPAYbDt4Acs27cfk4T2F4EkTNSuWQqGCOpi4cBtevffhmY6+RsbijNtjdB+9DG2bN+Cf7ct3XyE8StLbMn9CL7x8/Rb9Jq2G+0c//jrFxiXw181q0By0ad4Q2trafF9CSO5HgQIhf5CifH5UKlMMjetUhUnl0lAXG+qswaynrSbVwJYFLHioVaUMfz41KhpBTSXtYIX1kJQqVlDYrwrqm1TgZ3yTn7FNq2eDZVgqb6jPb7tahZI5Yo0K8m+pKCtCQ00FKd8t9WuUQ7VK5dCwTg1UK19MrE2irqoMZaWk9yZ7P25ePBoa6qroOHgWipl2R5Fa3WHedQLaNq2D4T1bSmUXYvOS+P0mu+NalUpg1MBuvPdh6DQhSH4gmX+U1r4ZYbtpqKtIPb6MpNyXfXZmjuiEeZOHYPeRM6hkMRCFa3RBuUZ9MXv5dswc2wdj+7Xm+5UsoouNi8fhxet3qNd+NPRNuqKssN/IWevQu1MzzBrVBU0amGLYlBW4fkeSlcm0cimc2L0M3r6BqG81Bvo1u6JkvV4YOHk5urSzEO67IzSFx8ReU0JI7vff/9IbiEhkAsuBXbhwYXz9Ksnx379/f2zcuIlfzgx2nIWFBdzdJavqNjG3gJOTk/Djl3OGeXh5e6Nxo0bw8/Pl5dbNGuDkjjky18gmOdNHT18Y1u8jloB27drBzu6gWMq8ffv2YtSoUfwyC4revn2LUqVS90z9SzNmzIC1tTW/rKCoiNev3VFQN2s9Nb6+PihTpoxYAiwtauPU7sViKWdjZ8YfvHiPDx89+byXujUroZAQsLOFxnwCw3kKX9bwlxVBX6P5iuhBQcHQ1FRHnRoVeY9eSqHhMbj7xB0BAYHQ1dWBSdVy0NFQFq8FXysl5fcp63V56u6JNx7voKVVQLjtCtBOdsyf8tYzEGXqJ637MHjwEKxdu1Ys/RtWVu3h6urKL5c0NMStm7d4AofM8vDwgLm5OUJDQ3j5xIkT/HuGEFlALS1CCCF5ApvnUq96WfTqYIH2zerwIIFhvVdGRbVlKkhgdDSV0bJRdf582pibphkkMGwdheYNqvL9WjSsJhUkMGmddGE9fLUqleTHsBWv/0aQQAjJeShQIIQQQgghhKRCgQIhhBBCCCEkFQoUCCGEEEIIIalQoEAIIYQQQghJhQIFQgghhBBCSCoUKBBCCCGEEEJSoUCBkN8g5Gsk7j99gy8+gWKN7AuPjMHjF+8QExcv1hBCCCEkL6FAgZBfxNYsXL/HGbXajML4xbvE2rTFJyTA6dwNvP/iL9YkCQgOg/2pqwgTGuh/k39Q4v3GijUSD159RtNeM/HFT7KYHyGEEELyFgoUCPlFkdFxOHLKDTWqVoTrtbt48zF1EJAoJjYeY+bZ4MZDD7EmydtPfhg6fT18gyLEmr/jzUdfDJuxHn7B0vebL99/fPXa//4TKwiRQTGxCdiw5yQWrT+AaOHzlxt89gnG0s2HERDyd78rCCF5DwUKhPyii7eeIyQkFFutJyK/nBwcTl8Vr5FtNcqXwBX71ShaqIBYQ4jseer+CdOX7cDC9Xa4eu+1WJtafHwChs3chAs3n4s1Sd55+qHPuBXw/Mu9a+zkQZ/xK+DlL32/X/xCsXrHUQR9jRJrCCHkz6BAgZBftN/pApo1ro2axkXRrkUjOJ1NPYxHFqmpKKCkgRYUFfKLNYTIFjYs0P70dZhUrYAK5Utj95Gz+P79f+K10r4L+565fB8fvgSINUlCw6Jw/PxNhEf93c91SFgkTpy/JdxvnFgjoaKkgDq1qkFBnj6bhJA/iwIFQn7Bi3c+uHz9PnpbNYFcvnwY0K0FXrq/x82H7uIeEmzewcL1hzB92U6EhYXBzukcJizYiq37nfHJJ4RfXr/TEdExMVi6YR8vn3e7Lx4NRAgNlK0Hz6NB1+mQL9USKuXawnLQIpy/8QwJ376Le0ks3HAYbndf4YNXIEbP3wHdal34McZNR2DWajuERUjmQHzwCub3s8FWuN9o4X7X7+XlC9ce8Ovvv/JEp1Gr8NkvlJcTBX+NxJw1B1G55Sh+u1qVO8Fq2FJcvvMq1WNZuf0oXK49wRc/4Tku2Y3CNbvzY8qaDcFU670ICqWhE+TP+Sp87g44uWBA99YY0tMSl248xPs0AgFZU7VcEThvmwFDIZAnhJA/iQIFQn6B45lrKKKvB7M6lXi5evniqFC2FOyOX5I6c/lNaEB/8PTFu0/eSEj4Bl//ILz58IVnSWLzFthlT29/4Zjv+Cjsx8pBoWH8WDaueuDUdZizcica1KqMk7sWYt+66SiorYnuIxdii52L1H3ZOlyA85XH6DJ8MR9OscN6Ao7tWIA2zepi3fbDGD57C+Liv/243y/C/X4T7pc9PlYODg3ntxMRGQ23G/cQF5fAy8yHL4FoM3A+9jmeQ4/25jixcyG2L58AVWUltO03Hat3nZQKFg4cv4ITlx6i66hlCP0agU2Lx/BjurQ1h82+Y+g3eR1ihcdCyJ9w5vIj5Jf7D60aVUfH5nWE9/n/cOrSfd7T8Dux9/w7z0Ccdr2Dc1fu47NviHhN+lgvwZXbz/gx95+/z9L8iejYBHgFhPHPcUqs7qn7Z367F68/gk9g+E+fL3td2FwldozL1QfwFm77d79GhBDZRIECIdkUEhYFx1NX0L19EyjKy/E6NiSgk2VjnDh3FX7JJhpqaahg96oJcLCZC21tLUwa0Qun9yzBkqkDUK5kIX551dyRUFVRwfaVU3mZNcSZPUfdcMHtLpy2L8TSST3RqokpOreqj53Wo7Fs+lDMWb4Dr9778H0T2Tmcwoh+VtiycBg6tKyHNha1sXxKHyyeNgzOLlfx3MMTxqX0+P2smD0Saqoq2LFqGi93a2sm3oo01pCZtGQHAoNDcenIaswY3hGtzU3RpXUD7Fk1DjPH98O8FTtw7YF0b8rRUxfRVbjN7UtH8sfNjlk0oTtWzRuNS9fu4N7Td+KehPw+8UJAvt3uJCybNYCejrqwaaCVeW3sP3oBscmCX/Y5Nus+HeXMBsDH1xczl26GYf0+QqC9EM/f+aJMo35o138GIqOi0LzbeH7dSht78Wjgk3cQOg1fijrtRqHTsAWwGjIPtSxHYNyiXfgaES3uJdG0zxwhsD8P58sPUa/DBLTpPwsdhWPMu07i5UevPvP9nr31gVGDvmg/cKYQsEeiaddx/H5Xb3eUXP/GC+bdJvPeyESsYc+Ob9RlMhp3nsBvt93AOajecigmLtnDn2dyxy7cRaOuU/HWMwgDp65Hgw5j+THtB80VjhmCOWsP89eQEJK3UaBASDa53X2JT54+6N62kVgD/Pfff+goNMzzy+WDw+lrYm32hUfGYpOtA0YN6ITGtcrzTESJ2H3069QEpjUqYuOeE2KthHGZEujVtj7khH0SsWM7WzZETGwMnrx6L9Zm3sMXH3Dm4g2snD0cRsUK8ueaSD6/HCYObAezBiZYuukwH++dqESRQhjc1YLvk4g9lnZNa/Mx1g+evRFrCfl9Hr/+jEfCe2t4rzb8vco+Cyz4fvLsFe6//CjuBSgrymNE79aYNqIb1NXVhWCiHmaO6oE+nZqhsBBgTBvZHQO6tRbeq/IY0rsdv86sblV+rE9AGJr1nIaAoFDYb1uIaI/TCHl+HDbWk+Fy+Q76TFiDyOikeQ1evkG4dOcFFqw7gAWT+8P/sROi35zGmQMrEBcXh24jFyE4LJrf74xRwv12bQUFBQUM69Oe32/jOlX47bAewODQr1KfMzb0r2n3SSispwvXI2v47QY+PYp1C8bC6fRldGG9esmChcioWN6LOGHRDqiqquDOaRvEvj0Dz7v2wvO1xIpN+2DreFncmxCSV1GgQEg2sKE+ex0volljUxTX1xFrJcqU0EN906rY73geMcnOXGbHB08/fPbyQ5c2aZ/lV1LIjwamlXH/iTsfPpDIvEEtKAkNoJT0ddWR7798SPiW9WEFbBhDEf3CaGJaQayRxh5L22Z1cef+E/gHR4q1QOO6NaGmrCiWkhTUUhWCB/ZYpOc1EPKr2OfzwFFXlC5VHJXLFhFrgbrVyqKsUQnstj8v1gjvW+Fz0q1NIwzs1hJqqqpoWKc6hvRsjXbCe1m3gCoGd2+FDq0aQl4IFNiQOXZdrarl+LFrbY+DfZIcbGYJn4tyPCBhgUeHZiY4sHEmbt1/ilOXJXN+El2+egurZw9Fx2a1oKIkz4PmBjXKYMOi8fji5YtbD14Knw01DO7RGlYtG/IAJfF+TaqUFW9F2tfwaEy33omaVY1xcP1U1KhQgt8u6+HsblkXdhtn4f6jF7B1uiQeIeHj648C6kpYO2sgDA20eR37XC6c0AsNhc/t4eMX+bBJQkjeRYECIdnAxiA7u1zhZ+eXbjqIBev2/9iWbLRDdFQknr9+h9uPU6+XkBUfvvghIiIS5p3HoFC1zmluKzfvh6eXNyKSZUZRU1USL0ljvRDZWReBNbyeu79HyWJ6UBIaH+kxqVxWaKDIwT9EMs+BUVNVFi9JY5O/k/dKEPK7sEnyzhduYoDQ+Gfv+URaGspo37IRH37nE/hrqU4DQyNx9Iwbxg3qjCKFUk8qrmFcAh0tzXDgmPRZ+cZ1q6F+9TJiKUn1ioa814OlYs2qW8L3zKOnrzB/Qh8efKRUTwhE+nRpBZt9zlLDiVhvxZh+bVJlNlOQlxOCkjLw8g1AZAytzE5IXkaBAiHZsNfJFepqKggNCeXZiVJu0dHRwo+vPB9+lHyicVYlnm1fPG0Q1i0YmebGJhNvXTIWSgpJQ3v+BPZYWA9ARm37/Pnz88b//37hORPyq9hZ/EjhM9jOopZYI8Hem707mCMsPALHz98Ra7Pn0xcfIUD3hZqKEm7cf5Fqu/XwJe9lYw34uGSN8+qVygufk9SfVW0hiEke1GTFpRsPUL6sESqXLS7WSGNBedP61fDx02d89E7KYlZQVxvFi+iJJWm6mmkH+ISQvIUCBUKy6GtEDA4edUG/rpa4cWx9utvAnm1x7Kwb/IKyf+aysI4Gb3w3MK2Onu3N0906tmrwR9c7YMFBcQNd+AeF86xN6Xnz7hNi42KhoUaNDPLv7HO6gPCwcLTtPws1Wo2Q2nqOXID4uHgcPu6KqCxkGkrJV/gssHkFAyYsQYOO49PcNuy0R3hEhNS6KmkFCb/qs3cgdAqoZvgdUKqEAVRUVITvr6R5CiyAYBshhKSHviEIySLXW8/w+Ysv+ndtIdakrUc7M4SEhuHc1SdiTdaVFH7cC+lq47y4tkFKrLdi+BwbtOw/X2qOwu/GzsSa1auJpy9e47mHl1grjfU4uFx7BMPiRVFMT1OsJeTvevjKE3cfPsPQXm3Rq4M5z0qWfGN1Q/q0x70nL/Hc3VM8KusU8kt+Pp9e3I1Id+d0N58HR6Cj8WcDZwX5fIhP+C41uTkllir5+/++SyU4IISQn6FvDEKygOUo3+vggmpVjFG5TNIkybRULF0UdWpWxs7DZ6SGH7FGd3RM6hVe+ZAd4Yc+JjZproG+rgbMG9TEJltHuH/0FWuTsMwujs6uPKWpXLKMSFmR1v2mpXEtY1QyLoN5a/YhKsW4ZXb8hRvP4CQ8luF922d7CAUhv2qv43kU1dfDwsn9MXV41zS3hRP6QEdLS9j3QrbXCyiipwM1NTUEhERARVkpzc3bPxQPnnoI9yEe9IdUMS7N12EJT5GONblHL98iMjIKhXUoiCeEZB79mhOSBR++BMDt1iP069zipw1zNqmws2Uj3Hv4jK/gzOSXk0NBnQJCw98J63YdxbFzN3g9o6WlwYf4zFmxCxtsj+Hu49fIJ1SwCYrsbGGnIfNx/uYLnhqRrWlw7tpT9Bi9BFUqlkeXVnXFW8k6HS1NfiZyzkrJ/d57Ir0OQiJtTVWsmjMct4Xn0230Mtx/8ZH3IrCVnm0dr6Df+GVo0tAU/TumnaGJkD/NLygcp85fR4fWjaGhmjrTViIdLTW0aV4fR89ek0oCwGQUOCS/rkhhXSEg0YXdcdc0j4mP/4ap1ntgve04/1xnF7vlnwUzZnWqICAwGC7X0+69ZNnXjp29gdomVaGnoyrWEkLIz1GgQEgWXL71BOVLFUUb8xpiTcasmteFSZVycHG7z8vKSgpYN28EiggNjO0HT+OU621ez5QrUQir5o5GQFAIbOxO4cEzScYktmaB6+EVMCxRFD1HLUD+ki2gUqY1+o9finomFXFk01SoqSQ1ikqX0OeN+vSUL10MBTRUxJJQNiyElcL9+gcE8/t9+Fxyvyy1YtlSRaTWP2hatyLO261C6NdwNO02EfKGLaBTpQPmr96FYX2scGj9FKgny7hUqpgedLXUxVJqZQ2LQruAmlgi5Necvnwfnt5+GNKjlViTNjYuv2c7M4SFhcE5WfpSefn8+OITkCoBgZwQ4LOeN3ZdIk01JQzt3R52jmdw4OQ1HsAnYg17h3O3cfHqXUwY3IEfmx3sfpkvvoH83/RUKVccndqYY/qSbXjx1lsqsGBZjtbaOuOC223MHN2Dn3wghJDMokCBkCwY3rMFbp9Yj6J6kpzjP1OkkCZuHluLyYPbiTWAmakxzu5egJeuu7Br5SSxVmJwV3PcPLqGXzeiT1uxVggiShbGUZsZuHNyM1wPreDb3dNbsXvFOBRM0RC/eGAx+lolLQKX0uNz29ClpXQPxLBuFj/ud1ivNrzOtFJJXldCXzr1o4lQf/HgMtw8vpE/jiv2q/HgjA1fbVlVWTp16rFtszCyV3OxlNr1o+swoJNkBWpCfgVbbfnQiUuoX7saSqZ4z6bFpHIpGJc1xO4jZ3mPHevtq1apDNZvPwzz7lMwdu5mcU/JMCO2kNmgicv4dTsPneX1w3q0QAdLcwyftgqj5+2A05lrOOzshvGLdmHkzDUY1rcDXygxu4oW1oFeQW0MnLCU36/tkXPiNdJYOtPl0wagrFFxvujarNV2cBQey4Fjl9Br/GosWbcHC6YMQYsGkgXbCCEksyhQIERGsDP7rHfBvH51vhUv/PPG0J+iKJ8fFUoX4Y+jvkkFFNKmXgHyb0VExaButdJYMKEPX2zsZ9jCaAsm9kVj0wrCsbF8ku+2xSOxet4o1KtpjIplS4h7ShYhO7VnMcYP6oQ61cujmEFBXs+GF+5cNhrrF46Hx0cvDJy8CkOnrcGrd56wWTYeSyb2kOqRG9q9hfAYU6+hkGjC4E5CIG4klsA/V6f3LsHYAR2k7rdIoQIYP9AKOppJPYNF9Arg+I45mDC0Ky7dfMwfy+TF28E6F07tX47Jg9tLPZaKZYphRG9LKKex7gJTW7i/Yb3YitS/P0sTIUR2/Pe/nw1+JDlaTEwMChcujK9fJSk4+/fvj40bN/HLmcGOs7CwgLv7a15uYm4BJycn4Qflz6XazCovb280btQIfn6SybytmzXASeEHkdL6kd/ho6cvDOv3EUtAu3btYGd3UCxl3r59ezFq1Ch+mQ01efv2LUqVKsXLOcWMGTNgbW3NLysoKuL1a3cU1NXl5czy9fVBmTJJjV1Li9o4tXuxWCLk17z1DESZ+j3EEjB48BCsXbtWLP0bVlbt4erqyi+XNDTErZu3+ET2zPLw8IC5uTlCQ0N4+cSJE/x7hhBZQC0tQgghhBBCSCoUKBBCCCGEEEJSoUCBEEJItrHUujSClRBCcicKFEiOx6YlJk8v6B8Uhm/fklIREvIrPvqGipckVFUpz3xG8uXLByWlpBS4gSGRfF0PQn4H9v2eHHu/EUL+HfoEkhxPXV0DuskmXN5/+BRX7komXxPyK1iO+V2HpVNOVqueuTUy8ipVVTWUKVtWLAHPXr3D1fv0eSS/LjY+AWt3OIglCTZ5mBDy71DWIxmXF7IeMbNnz8b69evEEmBQWA/LZg5F84Y1oKiQsx4ryfnYl56vfwg273XG1r2OP4bOsKD03DkXVKlSmZezIq9kPWKv1Zw5c6Q+j3qFdLB2wViY1akMJYW0020Skp7Ez+O6Xcdge+gkvn37xutVVFTg5nYV5ctnfy2K34GyHpG8jAIFGZdXAoVPnz6hSZMmCAjwF2skq5ZqF9Dg+c8JyQr2pRcdE4ewsHBJhahfv/5CA3j9jxVxsyKvBArM+w8f0LxZU/j5+Yk1QH7hO0NLU50+jyRb2Ofxa6rPYz9s2LDxnw8/okCB5GUUKMi4vBIoMM7OpzBkyCBERkaKNYT8PiYmtXD02DFoFSgg1mRNXgoUmFOnz2DQwP6IiooSawj5fUxNa8PBwRHa2v9uYclEFCiQvIxO/RCZYWnZGra798CodGmxhpBfx86Ed+jQEXZ2dtkOEvKiNsLncedOWxga5qxgiMg2FmR369Yd+w8cyBFBAiF5HfUoyLi81KPAsLcre8wnnZ3h4uICXx8fvHv3Vrw2a+Li4iAvryD8MIkVuQx/fgrC8xPLuU18fDwfkpCdYUJKysoobVQahqVKoXev3qhRo7rwXvi1sfV5rUeBYZ/HkJAQ4fN4EufPX4DXly/4/PlTttKlxsbGQlF4TLkV63lRFt537L2RG7HPI/ssZmeYEJsgz87Uly9XHl27dkGNmjVz1G8Q9SiQvIwCBRmX1wKF3yUhIQHz5y8QGnYjoa+vL9bmLsuXL0eXrl1RSvhhy412794NQ+G5mZmZiTX/Vl4MFH4XNnl1zNixWL1qFW9M5zbRwvd01y5d+Hh7Q8OSYm3uwdbS2LhhA5o2bYqKFSuKtbkHBQokL6OhRyRP8vcPgK3tLpxzcRFrcpew8HAcsDuAI4cPizW5Czs7e/DgQaFxvk+sIbLs2bNncHSwx40bN8Sa3OXxo8e4e/cO9u/fL9bkLuyE05Ytm3kDmM49EpK7UKBA8iRHJ0eEh4dhx44diI6OFmtzj/NCAOT5+TMOHTqI4OBgsTb3uHX7Nu7cuY3Tp0/BPyBArCWyiDUsd+/Zwz+He/fu4UNYcpPv37/zoJ0Ft0ePOiEsTHpBsdzAydER3t7esLe3p2QThOQyFCiQPCc2Lg6ODpJFfZ49fcIbnbkJe35sYi4bzvFZCBZYHvLcxtbWljcwWePLUWikENnFUqyePXuGXz5//jzeeLzhl3ML1nvpfPIkv/zx4wc+lyM3iYmJxYEDB/hlNl/s1q1b/DIhJHegQIHkObeFwODFi+diCdi1a1eu6i5/4+7+//bOAkyKownDRXB3CcE1BAju7hYkuAW3H0IIJLgHCZYECAQIbsHdCe5OcLfg7p5k//nqZo+93T0Bdo/du+99nrnb7h3pmZ3uruqurjLu0aezhrIA2/mQNEp74eIlWbvmTTTlRQsX6Fod4n2g3m3YuFGdEgAofrNnz9HPIYVFixfJ/fs+s3qojzP/mKmOBkIKO3ZslyNHDpspMZSGmTQ/IiQEQUWBhCpgBoDZBNuOev26P+XosWNmyvvB6N6TJ0/MlMimTRvlzJl38wzliYwbN8aPYnDw4EHZu3evmSLeBOrhH4bgbCtYzpg+XR48eGCmvBt4cpo2daqZ8mHH9m1y0lDmQwIYgJgwYbyf9vTPP9fIpUt/mylCiLdDRYGEKq5dvy6rV68yUz7ApnbWH3+EiFEw3MucOX5HZOHhKaQsorx9G2Ycy8yUDxDGFi1erEog8S7OnTuvHmRsuXPnttq6hwS2bdvm61HOinUhfkgAnr22bN1qpnx4/PixLDFNrQgh3g8VBRJqgCKwccNGuXHjhpnzBnjruHnzlpnyXpYaHfTdu3fM1BsWLpyv/u69Gfx+K1askMuXHUcrlyxeJHec3DfxbDCb8OrVSzP1hlmzZnn9oliYGUFBd2b2N9dQ5p8+9e6I1qiPs2bPlodOZn/mz5/rZ1aTEOK9UFEgoQaMOMMlqjMQJApBo7x5VgEj61OmTDFTfoFytGKlz4JRbwXmRhMnTnD6G926dUvWr/Pxc068g8ePn8iChQvMlF8OHz7k9a5SL1y4oGZ/zrh9+5YhTPs4VPBWHj1+JFMmTzZTfjl29KgcOHjQTBFCvBkqCiTUcOr0aTlwYL+ZcmTSxIlqpuOt/PXXIWP7y0z5BUrS9GnTvHrR7759+w0B8s2iSXvgWpN4Dxs3bpTr166ZKb/A5n3ylMleuwgfyuzCRQvl7t27Es4ueKU1+vTs2bP82PZ7G0sWL/VdpG0PfjfMCtEckBDvh4oCCTVg9AsdV5QoUTRyrhV05BEiRFBPSNu8dBQT9zVjhs86hAYNGkqyZMn0M/jyy6qSI0dOOXTorwAFbU8G9zdm7Bj9HzVqVDPXB0RI/eijj2T/fkOROHLEzCWeDBTymTNnqHkOfr+wYcOa34iEN+oi6uTGDRvk3PnzZq53oetmFi6S0qXLyFK7NTWdu3SV9u07yKlTp2Tvvn1mrneBmBeYnUU7GjFiJDPXh2jRomv+iuXL5OHDkBczgpDQBhUFEiq4e++erF69WooVKy5LliyVbNmym9+ICp6//DJCcubMJePGjlXhxdtAUDUY5CxfsVIGDBgokSJH9vnCIFPmzLJy5Urp33+gbN+xwytH+eC1aeeO7dKoUWNp1ryFmetDjx49ZfCQoRI3bjyZF0IWwYZ0zp47J/v27ZXKlavI/AWL5OPEic1vRFKmSCkjRoyUpEmTqQckb+TixUvStVs3mTVrtmTMmNHM9SGe8Z727dtXFi1eIo+8VJDesmWLxmhp3+E7qVWrlpnrw/gJE6XDd98bn8LI4iWLfDIJIV4LFQUSKjh69Kh89/336hEob968kit3bvMb0UV3GNVctmyZVK9eQz3reBsxY8aUoUOHSq6cOdA/O4BZlKZNm0izZs38zKZ4C7D3njtvvvz0009y3MaVLWYSMGrbqmVLWbVqlaH0RQsxrjVDMidOnJBhxm+JGCb58uaRLFmymt/Ak84ZyZo1myq3KVOl0tF5byNdurRSqWJFiRAhvJnjF9TBLJ9/LmXLljFzvAcMNLx6/VqWL18u7b9tLwcOHjC/EYkVK5YULJBfevboYfx+q+T+/Qdebc5JCKGiQEIJhQsVkgZffSWRzZH2OrXr+ArMmEEY9/tYTVerVlUSJkyo+d5E+PDhJXIkvyYA9uD+ohsKkTcqCmXKlJacOXLInj17ZNu2N+4Ycxh5adKk1s8pU6aUzp07qdJEPJsqlSsbWxW114eyV61qVfMbH0F09OhREidOHGnSuLGaBXobuKeg4I11EWX+okIFyZAhg6z9c40ctTH3w4xt9OjR1ZQsU6aMhiLxrR+zMkKI90FFgYQK0LnZdsroxHLlejOrsGf3blm4yGea3Bs775AOfhMsxP7p55/UPtpKfUP5s/297H9n4pnY/05ly5aTRIk+NlNw87tEdu7axd/TA7H+JoiXMHjwYDPXZ21JgwYN/CgG/P0I8X6oKJBQCUYp237T1rdTw/R43z595OKli5omngVGmX8fP0E2rH/jAjVd+vRq4068n+jRo0nzFs3NlKg5YMfvvw8RsU1CImgve/fuLadtIkzny5dPChQoYKYIISEFKgokVIJRrrJlykoZY7Ny8+YNqV+vvly6dMnMIZ7AP//8K3PmzjUUuV6+C7HDh48gXTp3lbhx4miaeD/Nmjbzs1bh6NEj0q7dN1xz4mHApeuQoUNlypQ3MRSwxqtXz16+pp2EkJADFQUSaokUKZL069dPEiZMZOb4BHqqU6e2HKGbTY8A/th/HTVK2n/bzo9P/Tp160rlypXNFAkJYE3CwIEDJUqUN+5vV65cIfXr1/daN6khjWfPn2ubOWzoED+LlL9p963kyZPHTBFCQhJUFEioJl26dDJu3Dg/wgmUhPLly8mvv47ycTvqxdGavRUIIcdPnJCGDRtKn9495enTp+Y3omtLBvTv769HGeK9FCpUSH78cZBvkDLUvc2bN0m5smXljz9mqUkS62PwAy9HO3bskIpffCEjRgz3VdoxM1urVm1p9803miaEhDyoKJBQT7FixdRve9y4cc0cUXOHbt26SNFiRWXgjz/Kvn375M6dO14Zg8BbwGLlK1euyNJly9SNa7GiRWTZsqV+nnnu3Hlk0qRJ6oaRhDwgeDZqZCiHfX7QGT8r169fk1atWkjJkiWNujpCDh06pK43WR/dx9Onz+T8+QvqUrpunTpSqVJF2bNntx9FrUaNGjJs2DB1v0wICZmEMSo9h2e8GAhXiRIlkocPH2q6UaNGOhIeVHBciRIl5NSpk5ouVryELFiwQMKbI3qhBQgcu3bvloYNG8iN69fN3DdEjhxF4saLKzGi+0Qd9WT+/fc/o4M/p7bEIEGCBBI/fnz97Mm8evVaHj56KHdu33YqANaqXVsGDhio9+OJTJs2Vdq0aaOf8Y6cPXtWUqVKpWlPoWvXrjJo0CD9HCFiRDl58pTEjxdP054EZpTQDqG8t287LmhGkMR48eIb//1GWfdE4H755Emf9hUkTpxYYseObaY8lxcvXsr9B/flvpNZVTiBQODDH/r+YCgJIX9dQpUqlWW96UghRcqUsnPHTl2XEVTOnDkjxYsXlwfG8wRLliwxFK9K+pkQT4eKgpdDRcG13Lx5U/r17y/z5831Y+5CPhzJU6SQrl26Sa1aNX1NUjwRKgquBV3TuXPnNMLxxg0b5OXLF+Y35EOB9zpz5szSq1dvnd0JLTESqCiQ0AxNjwixAcHWRgwfLouXLJXadep6xUh8SAQBqzJk+Ex69+kr69dtkHr16nq0kkBcD4TSNGnSyMyZM2Xu3HlSvnwFiREjhvktCU5QH7FY+edfftGIy2XKlGEgNUJCCZxR8HI4o+A+YDJw48YN2bN3r2zZskXOnjkrd+/dNb/1XP55/VpOnz5tlN/HK0nMmLEkWfLk+tmTwTuXOPEnkvnzzPpOZvg0g/rX93TTEiucUXAvWEB7+fIVXS+0fv06+fvyZd92z5N59fKlb/sKPv44scTzggEIuDqFmVSe3Lklf/788umnn4batQicUSChGSoKXg4VBWIPglQVLlxQrl27pmksOJw06Y3Pc+IeqCgQZ+AZ58qVw0yJ9OzVRzp1/N5MEW+AigIJzdD0iBBCCCGEEOIAFQVCCCGEEEKIA1QUCCGEEEIIIQ5QUSB+FotiwaCFQYwIIYQQQkI9VBRCOREjRvSzKOv+vfsa7IgQQggJ7cDfCyOAk9AMFYVQToQIEfzECrhw4Zw8efLETBFCCCGhl+fPn8v9Bw/MlEi0aNEZQ4KEKqgohHIQSCdb9uxmSuTZs2dy5MhRM0UIIYSEXjBwdvvWbTMlkiB+fAZ/JKEKKgpE8uXNK+HDhzdTIjNmTDc/EUIIIaGXI0eOyNWrV8yUSM6cOf30l4SEdKgoEMmWLbskTZrUTImsXbtGzpw5a6YIIYSQ0MncuXPNT6ImR3ny5DFThIQOqCgQiRkzhnxZtZqZEnn06JEMHjxYXr16ZeYQQgghoYsLFy7K/PnzzZRIsmTJdUaBkNAEFQWitGjeXGLHjmOmRBYvXqgjKfD4QAghhIQmMFDWq3cv4/9LM0ekXv36EifOm36SkNAAFQWifPzxx/Ld99+bKZGXL19Kp86d5M8//zRzCCGEkJAP3KFOmjRJli9bauaIxIsXTxo3bmym3g44CXn58oWZ8vE2SIi3QEWBKAi61qRJEyldpqyZI/L40SNp1LiRzJkzR169phkSId4OvJxZwWwhY6YQ4hcoCTNmzpSePXv61g/Um+7de6rHo3cB5rxws2olcuTI5idCPB8qCsSX6NGiyfBffpHPPsto5vgoC23atJa2bdvK2bNnGXiGEC8Go6JWEIH97p27ZooQAmF+xMiR0qH9t/LixRvBvmKlylK/fj0z9fY8ePjQ/OQDZxSIN0FFwcvBTIBto/Po8eP3Eubh/Wj69OmSNm06M8fHDOmPmTOldOlS8vXXX8umzZvl8WMGZSPElvv33wRlAp4oDBQsWFDbDPDvv//KpUsX9TMhoZ29+/ZJ7dq1pW+f3trnWcmeI4cMHTJEIkWKZOa8PVeuvHGvCmLHjm1+IsTzCWPhalWv5vXr14ZQn9bo8C9puljx4rJo4aL3ihyJV+Lq1avSvkN7WbtmjYPiAUEjYsSIki7dpxI7Dhs8TwPvxIH9++TFCx+b2Bo1asikSZP1M3Efvfv0kZ9/GqafYapw48YNP1HPPQEILMmTJ/et0x07dZZePXvqZ+IeTp48Jbly5TBTIp06d5VvvmlrpsiH4vWr13Lz5g3ZvXuPLFi4QHZs32ZnihdGcubKJTNnzJDEiRObeW8P6lqrVq1k1qw/NI2++cGDBxItWjRNE+LpUFHwcvDzFS1aVLZs2aLplKlSyf59+10SEAYLsMZPGC8jR4yUW7dumrnE26CiEDw0bNhQFhoCB4CiAEXN0wIzwZMLBBQok6Bw4SKydOnS9xpYIAFjrygkSJBA4sSJa6bIh+Lp06dy7dpVnVmz5yOjPtStU1f69OkrCRMmMHPfDUR2LlasmPEenNA0BvZOnDjBOke8BioKIYAePXrIgAED9DNG+w8fOSopkifX9PuC0ZDLl6/IlClTZNq0qXLnzu33Mm0iwQ8VBffz8NEjKVqkiJw9e0bTyZIl853l8zSyZ88uBw8e1M9Ys7Bx4yZJkSKFponrsVcUiOeC/jNFypTSq1cvqfhFRZ05f1/27dsnJUoU9+03W7duLaNGjfI1ASTE06GiEAJYtGiRVKtWzTfmwZix46R+vXdfeOUfGIHZtWu3bN6yWY4fOyYXL16g1xQPBCNkMDGx/jZUFNzP3r17pVy5cr4uEJs2bSoTJkzQz57G5MmT1cOZlR9/HCRt2rSh4OImqCh4PtGiRZeMGT+Tr75qINWrV5eoUaOa37w/HTt2lLFjx+hnzDRi9r9AgQKaJsQboKIQArh7964kSZLE1ya9ePGSagLh7qlNXO/1ayoKnsat27elXNnScv36dU1TUXAv/xlNaL8ffpBhw4aaOSLbt2+X/PnzmynP4s6dOzrjYXXXmOGzjLJh/XraTLsJe0UhVerUGuGXfFgiRoggqY3fIlOmzJItW1Y1CXLFDIItqGu5cuXSmXgAs7OLFy/SPSrxKqgohADwE0Io2bVrl6YxGrJi5SrJkT27pkno4ubNW1K4cEG5du2apqkouJd79+5JocKF5W/TgxAit0JJ81QXiGgvGjVqJNOmTTNzREaM/FWavGMwKRIw9opC9x695LsO7c0U+VBgdN+dg2moZz/YDSDATLhfv35mihDvgO5RQwAwGejatauZ8jER+n3cON8Fi4QQ9/HHrFm+SgJA9FZPW8RsC9oL2GDbjp7+ZAgz8NJE3A8EVLwf3D7s5u4Z96NHj8qUKW8GaFDfvvvuOzNFiPdARSGEULJkST/BlJYsWSx79+4zU4QQdwDhesSI4WZK1Nd6+/btPd7eP1WqVPLFF1+YKZG///5bfujXT70iEULeD5jldu7cWU2PrLRr105ixYplpgjxHqgohBCiRIkiP/74o6+AglmFb79tp/6aCSGuB8JAt+7d5Ya5FgQgYNP7+FwPLtBOjBkzRtsNK7P+mClTp06jVzNC3oN//vlXBgwcKFu3+rgsB1DMezJeCfFSqCiEIGB3nCPHG1vYEyeOG41TL99FzoQQ1wBhetLkybJ40SIzB55Toskvv/zi8bMJVjAD+dtvv6kpDICXrO7du8rq1as1TQh5O1CHUKdGj/rVzPGJ0A5PY3QWQLwVKgohiHDhwsn48eP1v5Xp06fK4CFD6MaUEBeBRYpLliyVXj17yOvXPqY6UA6GGPXMm0wLUOb69evrLIhVuYEnJESRXbxkCWcWCHkL0C78NmaM9O3b23d9IOpV8+bNpVChQpomxBuhohDCyJo1q/pvty7Ugk/9YUOHSLdu3eTZ82eaRwh5NyAATJw40ej8m8rLly81D8JAy5YtVcD2NtBOTJ06VXLmzGnmiNy/f09aNG8mQ4cO5WwkIUEAJr7du3eX7t26+q7zQbtQqVIlGTFihK8iTog3QkUhBPLVV19Js2bN/DROCPjS3Mg7f/68mUMIeRsePXqsCnfnzp18lQQAc7+ff/7Za4UBzECuWrVKMmTIYOb4zCz0799P25HjJ07oaCkhxJEdO3eqC+pRNuZGaAtKlCghc+bMcbt3JULcDRWFEAhsjkePHq1rFqzCCzr6pUuXSvny5WXipIny5MkTdv6EBAEoBavXrJHyFcqrwm07YpgtWzbZtGmT1wdQihs3rmzdulXjsdgqPPCeVqZ0afWIhLgcNEcixGem/szZs9K+Qwf5skpl2bVrp29/ivqDKO0rV650eQA3Qj4EVBRCKBjFgAnSN9984yfw09WrV+Tbdu2kSNEiMmbMWLl85Yo2eoSQN6DTR4TrhQsXSaXKlaVG9Wpy6K+D5rc+wkCFChVk27ZtGuAwJABlYcuWLdKiRQs/65wePLiv5ou5c+eW1m1ay9o/18rNW7eoNJBQBfrJq4ayvHjxEo2VUrBAfpkw/nd59uyNSS/cI48aNUqWLVumsRoICQkwMnMIBz/v2rVrpVatWvLw4UMz9w0JEyaSTJkzGUJAHsmZI4ck/iSJx0aUJUHj7t178lX9OnLz5k1NlylbVgYOHKSfif9A8L1544YcNBSCA/v3y/79++SKoUjbC8SoH3379pWOHTuGSLMCtBkbNmyQOnXqyG1DWbIHSlKSJEklVaqUkvnzLJIwQUKJFy+ur/ck4hdE6e7Tp7eZEqlcuYrO7BLP57///pVbt+/ob3j40F9y4cJFuXHjutPZ+KRJk+qsfZYsWfzMyhHi7VBRCCXA1KhJkybakNnaV9uCjj5cuPBs5Lwei5/f2CcSLJW/wLHoqKF/HsKgFOTNm1emT58uKVKkCPH1BO9Qp06dZMqUKfL48WOnwhEhoZ1EiRJpjISmTZvS1IiESKgohCLwU1+4cEF69+4t8+fPp0cTQoIAFITChQvLgAEDJE+ePKFu5ByzCrNnz9YYEZcuXaLJEQn1oA2ApzB4O8PMm7evUSIkIKgohELwk8MsZfHixbro+cSJE1ynQIgNmC1IliyZxhmAUwBEVg3tpjWYacFAAwYZ5s6dK8eOHfP1F09ISAdRzGFWhDU8BQoU0DaBHo1IaICKQigHPz+8uNy4cUO37du3U2nwcrAWBe464eISYOSrZs2a+pkEDOKQQACIHz++RI8enWZ4/oB2Axv8x2MxJ2cn/efw4cNSrVo1MyXqYKJt27Zming6UBDgsCBGjBiaZptAQhtUFAgJYWCUF3az9+7d0/Svv/4qX3/9tX4mhAQvmL1FfbQyadIk9ZpDCCHeAN1UEEIIIYQQQhygokAIIYQQQghxgIoCIYQQQgghxAEqCoQQQgghhBAHqCgQQgghhBBCHKCiQAghhBBCCHGAigIhhBBCCCHEASoKhBBCCCGEEAeoKBBCCCGEEEIcoKJACCGEEEIIcYCKAiGEEEIIIcQBKgqEEEIIIYQQB6goEEIIIYQQQhygokAIIYQQQghxwGsUhadPn0r69Onl448/DnDLmTOnDBo0SB4+fGgeGfz8888/kj9/fmnbtq2Z84Z///1X/vvvPzP1hgsXLmj5Dxw4YOZ4Dzt37tSyX7161cwhhBBCCCHejtcoChaLRW7duiXRokWTr776yulWr1493adr166SNm1aOXr0qHl08HPnzh2nykrevHnl66+/NlNvgAJx48YNef36tZnjPbx8+VLLjnvwNPDevHr1Sp4/f+5nQ5mdKWyEEEIIIcQHrzM9qlOnjgwZMsTpNmzYMDl//rysW7dOHj9+LJUrV5YnT56YRwYfYcKEkWzZsknq1KnNnMCJFCmSzkJEjRrVzCHvApQVzGyMHTtW/ve//0nhwoUlVapUkjx5cj8bfpvMmTNL06ZNZdSoUXLx4kWdCSKEEEIIIT6EuDUK4cKFkxIlSsicOXPUnAdKQ3ATNmxYvX7v3r3NnMBJkiSJbN++XTJlymTmkKCCWQP81s2bN5c4ceJI0qRJpXXr1qosbNu2TRWH27dv+9mQd/z4cZk0aZJ88803qkxASYMievDgQSoNhBBCCAn1hNjFzEWLFlUBcvny5frfHow83717V65fv65mM1gDERg4D2YqcAy2e/fuBZu5Da796NEj32vfv3//rUxnYGpz8+ZNPRZmUYEJwrgeZmOs18OxL168ML/1DFDGTZs2yRdffKGmZhMmTNBnhBkdrGf5/vvvZebMmbJhwwa5fPmy3rd1gwIxb9486datm2TMmFEVTJgozZ49W9e5ZMmSRVatWkWFgRBCQijov619XEDb2/a37gD9XVBlFSvo91F+TzQLDoxnz57p/dJE2AMwXj6vwBDQLbFixbL07NnTzAkYo2JAO7CUKVPGYrxoZq5FPxuCoyVTpkyWmDFjWhIkSKD/48WLZ6lXr57FqITmnn4xBE09F/bDMdiiR49u+eyzzyyGMuLnGoZwaalWrZqlT58+mjaEbEuuXLl0ixAhgiVatGi+6WXLluk+OD/SR44c0bQVnNeoLJbKlStbYseOrdePGzeulhn7//XXX36uDXDvderUsfzvf//Tz+PGjbMkS5bMt+xRo0a1GIK0ZenSpQ7HgosXL1qKFy+u18EzxzEoc8KECS0//PCDxVAYzD192Lhxoz7rS5cumTnuBWVGGcuWLWsxBHy9dtiwYS3p0qWzzJgxw3L79m29b2f35gzsa3QEloULF1ry5s1rCR8+vO85DYXBsnv37iCfyxMwFB5LnDhx9B6w/frrr+Y3hJDgBu23tS5imzRpkvmN94N2ERva3BMnTmhb2b9/f+2nsfXu3duyatUq7deuXbumfaMntaWGEO3nt/FvixIliiVbtmwftC8wBGeVOX7++WczxweUZ+fOnfqe2bN+/Xot/99//23meA+///67yh0PHjwwc8iHIsQqChBaUUH69etn5vhUqO+++84SKVIky4ABAyyPHj3SfDRex44d04YAQvGpU6c03wqE+MiRI1saNGigDaKVK1euWL788ksVVteuXWvmWiyvX7+2pE2b1vLVV1/5pk+fPq1bihQpLCVLlvRNP3z4UPc5c+aMlnfXrl2atrJnzx4V7KtUqaL74B6woRzt2rWzRIwY0TJ48GA/jRcE38yZM1sKFSpk6dSpk6VChQp6D9Z9rl69qkI2rgch3xZ8h8oJReH8+fN6LvD8+XNt8KGsVKxY0c/1glNRwLOE4GsrzOM3wO9nLev7gPu6cOGCpWHDhvqe4BofffSRpXnz5tpQewNUFAjxHEKaooA2Ev3WmjVrLKVKlfLT1gS2oR8tWrSoZdGiRdrX2PYjHwKrotC+fXvfPtl+O3TokKVr164qG6Cvnzlz5gcpd0CKAu7ht99+M3PeQEWBuIIQqSig4nz99dcq4G3bts3MtVhmz56tFd1+BsDKkydPLGnSpFGFwXbUvHbt2pZUqVI5jKSDly9fWrJnz66j+1A4gL2iYEvOnDl1pN8eZ4rCvXv3VDCvWbOm77ltwT107txZhebDhw+buW8UBcwglC9fXgVHe/A8EyVKZClXrpzvs8D/Fi1aWJIkSeJ0ZgXfjxkzRpUTW4UpuBQFKHa4nzBhwuj1UqdObTlw4IDT3/J9wTnPnj1rKVGihO/1MGMBhcvToaJAiOcQUhQFtInHjx+31K1bV2e0be8JG0bdMVNdsGBBHQzDhgEnzLqjH7PfH/0IZsoxyOasfwsOrIrCrFmzzBz/gWUA+kwI65iBDm7wjCD4YyDLFvwuuAdnisLdu3f1+XrLIJctVBQ8B69bowC7NaNiON0MAVldosJVqlFp5Msvv5R8+fLpcbA/N4RqKVWqlBjCptqx24PFrEuWLJFDhw7JjBkzzFwRQ4jXxa4RIkQwc96AvCZNmqiNu6tdm/br10/vCV55sEDaHtwD9oF9frNmzdSG0RbYVY4bN04MRcLMeYNRAaVKlSq6cBd2jMBoiNR2v3Tp0mI0+ppnC65XqVIlLROeSXBiCOjqpWjlypX6LDp27CgnTpxQ71LOfsv3BeeEZ6Q1a9bogmd4pTp9+rR8/vnncuzYMYdnTQghIRG0dadOnVInIVi79ccff+haPUP4177WEF7VOQTWtKFN3rJlixjCqW5wJoI+GevCbt++rXGCEF8oRYoU2o+gvy1btqwYyoS2tejHPZUECRJoX4B7h4wQ3KDfMxQvfXZBBc49IPNEjhzZzCHk7fE6ReGnn37SCuNsg7AOYXLu3LnSqFEjXcj60Uc+t4gG7O+//5Y+ffoEKFh++umnuhB2+PDhZo6oF53du3fL/v37nQqIbdq0kR07dqgw6SogtOM+atWqJfHixTNzHYES0KpVKzly5IgurrYlfvz48sknn5gpR9DgQEnAtQCeH+5z9OjRmnYG3IiiMYfgHlzA5W2uXLnk0qVLEjNmTFm2bJkMHjzYqQLkavBe4V3C7wvFAcpXgQIFVFkghJCQDIRieJODw4eNGzeqcI/2D0I9lINp06ap8Jo4cWLtV/3b0A+jH8PAzsiRI3Wg6a+//pL69evrYBsGYcqVK6eDV8HZt7wtefLk0f/og+xBvwilCE41fv75Zx3gg6IUmBMQfA+HGxjcxHFjxoxRJx32A4+QPRCbyXZg78GDB9onAfSPSGOz9unWffxTwHANDA7++uuveu3ff/9dlTn8zvbg+nAWgjhEAIOvUAatx06fPl3Onj3r7yAa8q9duyYLFy7U/a3X27t3r295iWfidYoCKipeSP82eDmCYInKGjFiRPMoUUEaLypG3wMCDRpcZGIEBRUB9O3bVysnfPIjWNqePXt8K6e7QIWE4J87d25taAMCMySo8FBkbIEiENCxaKBtKzX2xUyDrcIDDwsYDcLzmD9/vs6eBOeoDxpGeLCC16VYsWJpw1umTJlAn4mrQQeH3x3PFGVCZ4n3jBBCQiIYDMFI/8SJE1VwhLIAAXbz5s1SsmTJ9xqlxqAUzgdFA30LYh6hL4IAbh3s80/g/JBY+z77/geBXtEPw2MeFCrMPuC+qlevLhkyZFDh29n9wEV3unTppEGDBios4zjMyKCPQ59z48YNc08fhQKDllAoAPp7zOrEjRtX0xg8Qxrbrl27NA/nQhpKnT3oz7JmzapWAleuXNFrQwFEUNgiRYr4uTaAPIR7gdt3CPzZs2dXKw2Avrlnz576m3bq1MlBRsD78+2336plRq9evfR7XA9KQ7FixaRgwYLqnYl4KMbL6xXApv5tFjPbM3LkSNTSIC14nTJlii6StbVDhL16o0aNtAxGI6FrHT755BNLy5Yt1aOD8eKbe7pmjQI8ROAaWMwcGIYgrwtvUW6Ae8QaBaMCato/DI1e7wfP1gruY9++fRaj8VA7d5QBz8JobPScWBiN9Jw5c8wj3LdGAes/8ufPr+eGXejRo0fNbz4cWMSH3xZl+vjjj516mvjQcI0CIZ6Dt61RQB+A9h1rCFBerEdYsGCBS5xF+AeuCW+EWCOI/hXrCzt27OjWa4K3WaMA4BkP++/YscPM8Vm7ED9+fEu+fPl0XaG9LAC5Ac8S92cLro1+zRCg/dwnjkdfagjSlk8//dR3/Yb9YmbsZ91QJrTztnnAv8XMWLsJmaFDhw7qqMS6P/5D7oH3P/T5tv0b1mgmTpzYd90J+n3rcQD3AC9XkA+wWN2W8ePH60L2xYsX+zkGn7HeMWXKlJbSpUv7eQ5co+A5hNg4CvbAhAQYL6L+DwjrPrajBjA7mTx5smremF7D9CDMYTAiArvNESNGuHQExHptjF4HhvW69qMcb4tRadWMCbM2GK3ACABGeDB6ALMtTBVjdOl9rxMUcE8IhAaTH4xcYaYIo1sfmhgxYuioGkZxMAKCtSFBeacIIcTTQbuLkeF69erpLDpmtE+ePClVq1b1NeN1B+hTMLKMkXfrrPXQoUOlZcuWvqYuHxqY9rRo0UJH6K2BUfG8MGuAGRKY4eA72/4R+YaQrOswqlWr5udedu7cqaZdsFiwfbY4PlmyZHocnv25c+fMb/yC/WyvBRnHmmebbw+sBGDSjPWbeMawILDuj/+YHcDMAsx8MdOB38IWBIb98ccfddbB9jq4h+7du4uhzKicYJVLMFMyYMAAqVu3rs5e2B6DzzBJwywFzos1qMTzCDWKgtXOH/Z6AYGXG40V7N9hhmMPFjxj+gwCIqbNEBG4UKFCOgUHQdpVoPLCdArTl4EBIR6mR5gWfB9w36jgaNCgDPXo0UMbOEwR4lm4s6OwB1OmWDiGhgQNKZ6xbQMD8FtZG6PgBPa4CMyG8qxYscLPwndCCPFG0JZCAMSGwQ8I7miHEyVKZO7hfiBkQkDGWkL0N+iPsPjZXlh1NTAXwuCYsw3PAOvU4MgCgv3UqVN9ZQMMFkHgHzhwoFN5AUBZwNpKCOhTpkwxc31MiYB1zYE9xYsXl8WLF+taQ1eCe8XgHwY7/evTMSCGe8JCdazvtAWyFOQC+/4YQG6Ccgm5xfqb4f5gTobAqM6OATCzwvOBMkY8j1CjKEB7xkuMSh8Q0H4XLVqko+rQ0GGfD0HQmYKBlz5hwoRamWG/Bw9CrgLaPOzhMZIeUCOJxh1rB+ClCIuw3wdrg4CG0HaUwRbY5bt7BB1KT+3atfU/bGG/++47LQuuC1vLP//8U9egwKsVRij69++vMx8of3AtikK5rJ6mWrdurTaqhBDijaAdmzVrlo7sAow4Y4Tcdp1fcIG2HnbsY8eO9VUW2rdv79ZBISyqxfoCZxtGzuGdCQIwBgMrVqzo2zfOmTNHZ7zRFwUE+vI0adLowJL1PuA4BTJGhQoV5O7duw73B8UDazcwS+EqcI0hQ4boYCfWRgQEFpdjf4z024K+z5kHSCsYWMTMifV+MLi6dOlSXajuDMg3UA5BYAu/yYch1CgKGAXG4hs0hBBA/WPVqlWqbWNEA6ChwnQjPCj5B4RqYDVvCoygjI6gIYIACm8ImH70D5gmQWiGCzSMxrwvuAf/RhlQ8WFqZd+guRosSsfiZSg/GIGB8D9v3jwddUiePLm6b4UnDjTeUKQwVQ6FAQupoCxhOhWu+twNPGPBqxSmS/G+uPu5BASuDWUW7mMxE2R7/3iemP3CAvwPWUZCiGeCRbVoU9HWon3FYBFGwj8U6P8wEIPZZABPSXDL6i4weo72078NA1RQnCDc2wIvgBDonbkTtwX9KmbFoWhY5Q+YLKOPx0x+kiRJdAEzPCXhtwiKyfG7AlMmmFIHBgYrMZuEvsO23wjICyMISH7AjAyeGfokzGhgtgiOQfCZeC6hRlFARUUlhBs2CFL2wjpeYoxIwy807DPh4QjAXg8C6qBBg5yOGuM4jGZDw8YLHxiY0oPdfVBGvps2baq2itDE4QXJHkzpYcQBsxmuWDuAUQY0YgsWLHAQKJHGGg3MmqBRxDSh/T6uACMR1lGt//3vf+qvGiMfGOGC5yo0QhDOMQoD+1U0NDCVwj4Y/cKMB7wu4F6g9AVFKXtX8BwwpYwyoWO19xIRHOA3wPQ3ng86G0zvYsQI7wLKh2cC93Owo8X3eG4wl3PHb0cI8T7Qf6CPwYAH2lHMkAc0YhxcoA3r1q2bKjDWgTMIme4gZcqUKhj7t6Etdda/oh9EfxQUpQoDeej3rX0S+g2sbYTgjj4LyghMmGGmg3PCvMcdbTUGkWDWFBR5AUoQhHtb/FMEAgKDr+h7cF8YzGvXrp0O6CG2BjxJQhEknkuoURQAphExBQbtFdOImFKzarjwBYzFyVAKbG338B+zCTB7wRoAfMZLj+NwPGwXoVzANVlQtHSMfGPEAAt7oLjY2//ZAiEPLsxQWXFuBE+DKRTcpmIKE2XFbAMEYig07wvcoiGoDu4JAjAqMUahMZIC128Y0YESAZtJmAN17drV5Y0YRi+wYBwd1datW3WaF3aLaGQxHY37RRozCZiaRgMD0yvkw/82Fk2hfCg7hGY0Qu5UFrDID50MOlkI6MEpgOOdxDPBtDZmXGLHjmP8do1l0uQpsmXLVtl/4KDxDLfpLFCLlq0kfoIEsnr1ahUGsFA8oJk1QkjIB+0VZkMhrKKNRftga24EwRaDNxAu0eehnUO7EVztHITZX375RWeLMVgGZxvuNn19G2BWAwE/KAN/eIb2M/a4P8ySY+YE7mghW2AwrmHDhtr/YV0ElAVXAnkC6xSC8huizIHNlgQGBlgxe4IBUgRKxf1gcAuDeljrh4FZzLYQD8Z4WbwCuHycPn26Zf/+/WbOu2EIjRrW3BBy1dUXHkG4cOHUHRhcnxmNoLmnX4xG0jJ8+HBLpkyZ9BhscI8JF6hwbYrzWjEaMoshuFk2b95s5rwB3yEfLvImTpxoOX36tObD7SbSRqXStC0oE9zV4dpGQ6PXhjsxo3FxGkoeZYF7spUrV5o5zoG7UTxTPFsrRqdgMZQEi6GY6HWMRs1iKEi6n/XZ4DiUFfeIa8HNG9J4Ru8DzmU0jL7PF5vRkFrKli1rMZQHP8/YP7DPgwcPLIaC4XuOFi1a+HG75momT56s14kZM6afZ+lOjI7JUr9+fb1u9BgxLL1697Fcvuz/M0L+NeN3Gj58hCW26ToV7uj8e98JIe8P6t3hw4fV1aQhoKl7y2HDhrm1PXobDMHUYgi72s6OGDFCy4s2wRBW1XUmXEGj7IbyoH1PDKOtMQRbiyHcWVasWKEuO4ODnTt3al+EcsLFpqtA34W2MKjuUe1BX4nfFH1OQKC9hkvR8uXL+9tG24J90M/it0FfBvCscS2re1Qr2Bf38Ntvv5k5b7B3j4p9DaFc3dAGVg7IFnjmY8aM0bTVPSrc1gZEgwYNLEmSJPHtWwxFzxI+fHh1yerfNQ8dOqTlhGt2K3SP6jl4jaLgavDC2m9B4V2PcwXBee3guo4taMzQEaDBwAYFDr6h36VTRZnR8eEcOCfib7jrPtCAoyNFmYMS9+J9QaeDjhr3hc5n9569Dvc2b/4CS46cOS0TDAXOFux39NgxS/bsOfR4KGHBpdwQEhpAHYMAOnjwYBW00TZA4LJuEJrgI79Vq1YqDH4opQHlLFWqlLZbGKB59OiRDv4kSpRIy2nbDkeJEkWFtggRIvi20fiPwRHcp7sVBpS1Vq1ael2Uz1UDHO+rKKDPwvOZNm2ameOcc+fO6XuAeE4Av/knn3xi6d69u0PbbQX5VatW1XcIuEJRABhExG9nHaT0DwxOQjmEEA/eVVH4/vvvLcmSJfP3PgGeA8pJRcEzCVWmR7YYFcVhCwrvepwrCM5rB9d1bIFtrPFO6mejo5J+/fpJmzZt3skmEmXG+gW4+gMwDYPJlzvAYnaYOQGYQ7kbrJeBCZzVnjh3rpwOv9G9u3dl/759uijcFuyX8bPPZOGihWIoC2pqYDTkwWZKQEhIBjbraLdgjgh7c7iuTpUqtRQqVFjNOuFyNGOmTPLi5UttK2BaAq86MLcMbmAyA/eXADbrNWrUkJo1a+paK5h+Yt0TPCHBLAnlw4ZjYL7boUMH9caDRbe4T5jBuvMe0G7BBAltLdo0mN56Alj3BScpXbp00d/eGYZSoG0sTLqw7hDgfmByBI+K/pktGYK1nDlzRj0rBgb6SJglBwV4LYJnIqwBxDWcATMz3BPeTWvMiHcF5ll4TwzFwczxC76D9yjiwai6QIgHYB3dwmY0Zi4ZNcLoe8aMGfWcWbJkCXBU431YsmSJXsMQ3t06QogolhiZih49hmXbtu1mriPjxv2u5RkwcKCZ48jRo8cssWLH1hHOCxcumLmEkHcBdShFihRa7zDS3qlzZ8u+ffvVhOP1a5/oumh/Hj9+Yjl95oxlxIiRlrRGe4H9YdKDEVx3tU/OMARBvTZGxDFyi8+GAKsmjYjIG1BZfO7jsaVPnz6+s6mIBr9p0yZzD9eDa8KMFNfKkSOHb8Ti9+F9ZxQAzGJhnlWwYEGH0W+UsXnz5joTs3r1ajPXB0Q2xoh9kyZNHO4FfciUKVP0t4HJDghoRgHmYJhdhumw7e/mX2TmtWvXapkMJc/y8uVLM9cHmEEXKFBA30lDMTRz331GYdeuXXofvXr1cninLl++bMmfP7+auaGco0eP9p3h5oyC50BFgXgEaCjjxYunjQUE1zt37pjfvD+YYkVDhen0kydPmrmuBR0OGn1M0SOMvztAI9usWTN9Rt99/32ACklQFAWc78dBg3S/MmXKODTihJCgcezYMVUO0MZUrlzFcu78efMbHy4ZgtrsOXMt+w8cMHN8ePzkiaVnz16WSJEiaz2cMGFCsNRDCJQQ7HFN6wYlZ+vWreYeQefSpUu6Zg7niBQpkh/h0tWcPXtWBVxs+Py+uEJRALjnYsWK6f1j3eLs2bMt7du3t8SKFUuF5mXLljn8rkj/8ccf2u9BAWjbtq0e165dOzWvSpgwoX5vPc4/RQFgfWXcuHF9zcKsv6N/igLYsmWL7xqUbt266bVr1qyp/S8UsRMnTph7+vCuigLK/9133+lvhvcEZlpQCHAN3CPWumBf67rIcuXK6XFUFDyHMPhj/DiEfFAQcAbTuAi4And48PCE6VlXgFccPqoRqA1eF+CdyNXAVS1c2WL6F94r7P1tuwKjo9DpalRYeNxKn87/gDm//z5eWrZsIYaiIN26djVzHYEpQb58+Y1y31aPG67wnkVIaAJe6GBChLrUsmUrGTZsmESLFtX81oeFCxdJtWpVpX2HDvLzTz+ZuT4YgpRMnzFT2rRpLa9fvVJzQJgouRN4oIELcJjFAJhKwcNeYD7y/QPmQPAaCM9zMIk8fPiwH+9JrgLlzZo1qxw9elRNkb799lvzm3cDz94QRNUTkCHImrnvBs4FF954tjCnwf2jHyhatKgGZfMPeBbavHmzRjN+Zfz+MK8yBHg1B7M9Dv0Yyoo87GMLvoN3KvSfAG7Yw4ULp+Y+MCNCu+7MhBffoy9BLAdc21BE1DukIcQ7uHzFNXBfeE4BeUKCCRbOC7ey1j4cx8KMCp6c4JEQ+fDkCG+K1nOh7OjjDEVFy4E+FWmU3VWyAHlHjB+QkA8ORqUwGocREXjccDUzZszQ0Yr06dO7xKTJHsyIYOoX15g5c6aZ61owSoTngwVugZk3BWVGAWC0xxBu9LwLFiwwcwkhQQH1p3LlylrX6tatZ3n+/IX5jV8WLFio+xiKgpnjF9TnCRMm6mguRmPdPYrav39/LQ82Q/DUxbbvC86BEW+0JfDIh2fjDuCYAuXOnj27265BCHlDqF3MTDwL+FbGiAxGFxCvwtUgGB5GSDDyhZEKVxM2bFjJkyePfsYCYywSdPWG+B5GnZVcuXO/0wJvZ2CkBiNIOC9GwwghQQej8FhYiyBSQ4YOkUiR3m0UHfW5UaOGUrt2HV0U7I5ZTytoZxF3BaD+I54PZhTeF5zD6jwCcXj8W9z7vtSvX1//Y1bhnyDELyCEvB80PSIeATyAwAsDTGvOnj0bpEiXbwOmX2HahKlMmAdhWtTVIAjdzz//bKbcAzr2ZcuWS4UK5WX0b2Pk4sVL5jd+OXLkkKxZvVoKFykiuXPnNXP9kiBBfOn4/XeyfccOKVG8uDRu3Jih9AkJIug6GzRooIEoR478VU2H/CMg0yNbTp0+LbkMxR0CMMwxAzJZeVdgYpIoUSINpokI9jCVtDdleVdwbrSzMC+ZNGmStimuBiYq1ucCc5Y0adLoZ0KIm4CiQMiHZvz48TqdDPMdew8QruDJkye+i/fctdgYi9FwfnduMM/auMknkF/RosWc7hPULXPmz/U8e/ftU/MDo1PXNCEkcNCmYAEzYiLcDsT5QmCmR1ZgFlm7Th3dF55p3AGCesI8CNu4cePMXNfxzTffaPmzZs3qFtMgnDN+/Ph6jR07dpi5hBB3QdMj4hFYF765eibBCqb2YR4Erl+/rv9dDULVuxujzsrDBw/0c58+fdSEwNnWsmVL3adO3bpOv8f200/DdJ9nT5/pIsGAFqgRQvyCkXgs7ixSpJjEixvXzH0/0P6VKlVaP8+fP18Xhbp6O3TokLYjWDRauXJlvZYrscYKgCmju0yDUqRIof/dGbuBEOIDTY+IR4BgaBkzZtSpcHh/cLXCALtceCZB575kyRKpVKmS+Y1rQIf42Wef6VT4V199pcFqXA08QY0cOVJ++KGf9OzZw8x1TlC9HoHfxoyRNq1by4ABA6Rbt25mLiEkIBYtWiRVq1Y16mJPo07+YOY6J6imR2Dvvn1SpHBh/QwTIVfz6NEjNWuKayg3CK7m6rYWypPVexrWhCG4lyuByFKxYkVdG4KAnFhjQQhxI1AUCPnQIGiN0WFpkBf7ADCuAqY1eOURtMfVU+IIHIPy4/wInOQOEAMCsRpKliodqHlWUL0e/fPvv5Y6deuqGcLOnTvNXEJIYMAfPOrY3LnzNF2zVi2tn842mAxiX9QzZ99jS5cuveXJk6dGPT+lvu2xvzs3BOlyB2ibrNdwR0wFtN0VKlTQ8//vf/8zcwkh7sJrTI+MsqppB0Yogrph5CSkAlMR3CP+AzwfLE7DSBE+exsI8w7/zPjNcF/uAD6bwdy5c13q+QjPe8GCBTqrYHT4GtLfHWChd/z48WXvnt1y2EUeii6cvyDr163T548ZHUJI0EBdB69ev9b/H3+cWD7N8JnTLUmSpLpP3LjxnH6PLUXKlMHqL95d18J50Z4A+PZ3B+jrbP8TQtyH15geIShJ0qRJNeBIUGnSpIlMnDjRTIUsYGcP7xLnzp1Te038jAjSA2UK5jXB2eG4ApgG4X5wX3AFimAzrgbKAabE4TVj/Pjx0qxZM/Ob9wOelGAiAM9KCNwDu1l3eFUCXbt2lUGDBknTZs1l7Jjf/DUbCIrp0X/GO9OlcxcZOnSI1KpVS2bPnm1+QwgJDJgwVqlSRbp16y4DBvTXduCff3wGbuxZtmyZ1K9fT9p8/bUMHDDQzPUL2mwEatu7d68GQ4NnH7gudjUIDHfixAntT//++28z13WgLce5EcAR6yFg8ulK0NdhUAP3gDYcbTkhxI1AUfAGDCFMw6F/+eWXaoIRlA3h2UMqRiOs09kXLlzQNKZjixQpYsmQIYNbPE0EBxUrVnT7dDLC3+MaUaNGdcn7gWddvXp1PSe2TJkyufX5P3r0SM2zwoYNZ1m0aLGZ60hQTI+2bNlqiRIlisueBSGhCUMI1jpWsWIlM8d/gur1CIz+bYzu26VLFzPHtSCgJc6P4GiGcmPmug60f/nz59drdO/e3cx1Ha9evfI185w+fbqZSwhxF17n9cgQxDS4TVA2dywE82QGDx6s8Qi8lRYtWuh/jGwbnY1+djXwBoTRLgQDqlat2ntNjRv1R583FjVawUigO2dzENp+8uTJxrX/k5atWsrOXbvNb96OQ4cOS4OGDXR2BcGREiZMaH5DCAkK6dKl0wXBO3bs0NFzVwCvRCtXrtTPaJ/cgbVfxLUwC+Jq0P5hhhIsXbrU1zzWVWCWwupNKW3atPqfEOI+6B41hIDGGZGB3S2oupNcuXKp3S/sTuH5yB3ABSg6L0zr79y5U0qWLPlOnSU6qqFDh8o333zjpyNs3dr/oEuuAuYOCO525/ZtqVK5knpUsXacVrCe4cuq1SStIczYgrL++eefUrFSRbl08aI0atRImjdv7rXvDCEfCrh0rlChgty9e0emT5+hAwfvy+HDR2Tduj91QCBLlixmrmuBcgNPRAiOdv78eTPXtcCrHNacwTzo9OnTZu77gwEkW89srvaoRAhxxOvWKLRt2zZQV3T24BYxggxhCIusICwdOHBAN4yowm4dtqAZMmRQf/vOwDkwarRt2zZ1KQcwmpEvXz493j9BC6M2u3fvNjqAw/oZtus5cuRQV5rWxXDOwPWwqHfr1q16Xdii43oFChTQe3C2RgECL/7DTt4K7ht5OAb/EfZ+z549mo/OKGvWrNoh+VcWNMwnT55Uu1msD8ExRYsW9Q35D7t8dJjWOAjvA8qHBcerV6+W2rVra8RTdwmwGJXH7AJ+EzzXWbNmSbZs2fz9/a2gjHjmEK43bdqkefhtIKhjpO7y5csudzfoDPwu3bt3lyFDhmiZGzRoqEpK5syZjQ46vLnXG1C+4ydOyoTx42XcuLGaRlRZrOEJ7J4JIc5BFHm05RBYN27aLGnTpDa/8UtQ3KNiDVVVQ7lfuXKFjB492m2DDmg7SpQooe0XZqE7depkfuM6cI0iRYpof1m2bFlZvnx5gP1dUNm4caOULl1a2y/0affu3VOF5F1Bn/m2axxwX+g3QyKIqD1nzhzt39Cn43ecOXOmOtHA70hCKYbg4xVY1yj07NnTzAk6hmJgMYRAiyHU63mKFy9uMYRDS//+/S1TpkyxGIKy2jxi/YMhOJpHvQHuOlu1amUxGiQ9B47p16+fxRDQ1V7cENac2qVv375d1wwgInDnzp31OEMQ1vOgDHf8ieaJc+GcsB3PmDGjZcSIEZbffvtN7d8RBRS2sUFZo2DNM4RHvW+sAUCZ8QxRlsKFC6tbvlKlSlmeP3+ux9hiNBqWcuXKadRelBfH9O3bV8vQu3dvjUwKO9eBgbjgfBsMJUFtT3Hv7nCtZwXPZunSpXodXC98+PAWoyHU3wzPyh68A4ZiaalRo4Y+DxyDd6ZMmTL6DJAeO3asuXfwgHtYuHCh1gtcH+UoVKiQpUePnlqWP9et08irvXr3sZQoUdLYz8flItYlTJ06VesFIeTdQR2sWbOm1quSJUtZnvpj8x/YGgXUxYEDf9Q2HW5LnbXHruSnn37S8mAtgbvaAbhbxv2ECRPGMmnSJDP33bl//74lYcKEWm5sefLk8e3r3hWszbKeL6jb8OHDzaNDHujjIJ88ePBA05CHPv30U0utWrU0TUInoUpRyJkzpyVXrlzaaNk2MPg8efJkFfwgCNsCARHCV9KkSS2HDx/2cxzOC4Eex40cOdLM9WHTpk0WQyO3dOrUyfLixQvf4/AfIfQR3h6N3t27dzXfCr7v0aOHHrtkyRI/18PnXbt2afj6YcOGBVlRQF7BggX1GNtOAd/jGhCSGzRoYOb6ACUgZcqUlnTp0mmMA9tz4n6++OILS/369VXQdqWigIVq6dOn1wbZHfEO7Pn7778NIbqE7+I4dGpoKHHv+N2LFi1qSZMmjSVSpEj6vLEP/n/++eeWrVu36vuIY2LGjKmK1YcAvxXe29SpU/veh7Wc1s9QCJMlS2bp2LGjdgLufq6EhBYg1KM9QD2rVr260b47tgMBKQovjD5m6NBhlsiRfRwLHD9+3PzGfRw9elTbBAx6uMuRAdqYpk2b6n2jXVq/fv07tzsPHz7UNtnanmFzxUJmq6KAc6FsQd1CKvaKwj///KMKWZMmTTRNQidepyhAoIWgHdgGoc0qFFsVBQjEgwYNclrRsQ9mCyAYo3IA7If9UXHgRckZ2KdkyZKWJEmSqAAN4JkmUaJEKkzbCua2QEHAPlWqVPGzz4kTJ7QBHzVqlL8N0ubNm/VZBFVRQCPdtm1bp+dDXuXKlXVmBEK6Na9du3YqHENJcAY6xxw5cqiQ7EpFAWCU3Cqwo0NzN3j+e/fuVcUEz8G2M7Ld0KlCqUCHh5GWGzdu6GwRygrvHs6eb3CC3+/s2bOWP/74Q0e9EGAOSueMGTP0vbK+n4QQ14L2HCOvaCdyG4LVps1b/LTrmAHGDKZ9e3bu/HlLw4aNtM3H4NDMmTPNb9wL2goMHKC8mHV0FxhoQ/+I66A/GT16dKDBIm1Bm7pjxw4dqLO2w9jQFt+8edPc692xKgqzZs0yc0I39ooCnv/Tp0/dPsNFPBuvUxRsG4uANphXQGAHaLChKECgs1YAZ2BUFhExMUIL0JhahfmAhMB169ZZihUr5juiPHfuXL3WeaMTCAg00BDiIdxZgbAK0x5rGZyBhhYjWEFVFFCWS5cuaZ4zMJuCxsE6uwGBMlq0aJb27dsHeN/jx4/Xc7taUcD94T7wO2I0/206lvcB94p7R2e+YcMGVVgWLFhg+fPPP9WlIFwJ2j5bKIIoI94RfOdpQEmAgEIIcT8Y9YZ5KNrEqFGjWarXqGFZumy50ec81D7IuqGN+euvw5Z2336rA0zYP27cuNrGBNTeuhrMdqP9Spw4sVOTW1cBQRMz2rhP9FkYbLGfnbcH36E/+uabb1TBQDnxHzO3+AzlwxXPytWKAspkuwWVdznuXY6x4t+x9orC2+DsfIHxLseQ4MfrFIVKlSqpIBfYduzYMV8B06oowD4/oBcSo/iw80aDD/bv36+NCBrwoILz582bV2cmAnv5MSKChtM6hQrF5JNPPlFlITAmTJgQZEXh448/1mfgH4sXL1aFBSPkAFPfuG+Y1gQE1lhgFMzVigI4d+6cKnvoXJo3bx5g+YMbPFeM0uMZYSRw+fLl5jeeAxRNKL0dOnQI9D0khLgG9DkwbYXwjfYBG9rpz7NktRQsVNiSI2cuS+w4cXy/g6kRZm+drYtyN2i/IRSiHJiFdCdQRL7++mvtL6z3jrUYMN3dtm2b9tnod3bv3m2ZP3++70AY9sP/AgUKWH788Uftp5DGWjJX8D6KAvok9J2YjUYbi/JjLZ9VscGMDQZrrAOW9uAYrLvo1q2b7/sCqwesHVyxYoW/A2S4LkyQIWdgfxwHhRNxN/xb92gFsg0GRPHscZx1/aFVSbVXFHAt9G/4jaxgP+Rt3LhRP2NAFOs70V/jnJA3vjWU4IDWYKJ/h+mydfAX9w/zbSjRmIXC+wizYOIZhKo1Crlz5zZznIMFw7aKwsqVK/UlfhsbTlQCq9kRPgcEyoV1ClB+gPUesVA6MFBRg6ooYEE0ruUfmBK3VRTQCOG+/TO3soKRIlevUbCCsmMRN+4RjSFG9gN7nsEFFCjrIuhGjRoF+Gw/FHg/oGRhdorTxoQEL6hzECIhQNkqDdhg3oj+CM4hYCb7odo1XLd169ZaJtj/u9s0EdeDQAqh3/Z5BLRhcA9tP8oGARp5WIvlqmf2PooCBFooA7DfhxVBqlSpLPPmzdNZXAjJv/76q86AYNDQ2Qj92rVrtb/HukkI3ffu3bOcPn3aMnjwYBXg4VzDfqYa14S8gP4HAv/Fixd15mXZsmU6axMvXjw9lzNQLvzOcG6CdxNlhGkxBr3QT0ycOFHNvGwVBWeLmaHAQKaAExRYU+A3gnOMy5cv6z3gvUY5sFllCiv43bBWEvdXr149XfCOYyBrfPXVVzrbdOTIEf1NMKNPPINQpShgDUJA2CsKixYt0hfWarsfFHAtmO3YL252BvZF4wJhHhXIGnU3KMeigQiqooCG4W0UBTQWuO/AFCQ03rhXdygKAA1StWrVtCxovNAoWe/tQ4Fng/cQQvhnn33mkSZHeG7ofPDcUE5PnPEgJDSA9gptLwQ8zO6hb0H6Q7djVtDmQ5hFOwFPdsFRLtw/zG0h6EK4xcwn+hFs+Iy+GmZRME+yjqpv2bJFZ2/R50G4dBWuUBTQ52IQErMDtuBZ7tmzRwe6hg4daub6gJF7q7MT+74Zx8H0FfeKQUPrb4L9YAYNARyj+Pa/FeQUCPR4jpAPbIH8BAULz9bZwBHMpmHmCyUkqIoCFCCY2jmTE06dOqXlaNOmjZnjAwbZcN8DBgxwuG+k8U5Y+y4qCp4DFQUb7BUFaOlBEZhtQeXFLAFckdpXZHtQLsw+wGUq9n2bGQVMTbpLUbBq9Pv27dO0f6BhxMiAuxQFgMYPnodQHjQwKGtgz9Ud4JrooND4oSyYXrUfLfEU8Pvh3UA5sQU2o0QIcS8QKrEgNzg8Gr0NaNesM7doXyGcBzcQPDHggs2qGNhi6xYVjjdc2ZZZFQWMjo8ZMybQDWbC1jJaFQWYGtmuM7QFzxftLwRq63H4D2EYMklAa0PgbQj3bT0OQjaUDvSB/oEywawILt9tnxNkCvy+/jknAbgH7BNURQHvDMyunIH7rlChgj4flAmgL4cygpkh/35D5GfPnl1/EyoKngMjLQWAIQzqfwQ+CwijMmngHUNT13SKFCnkzJkz+jkgECzm1q1bUrNmTQ0sZlRQjRx89epVcw//MYRU85PrQWC7sGHDyo4dO8wc5+CejUbATLkHo2GUVatWSfHixfVaNWrUkClTpojREJl7uB+jnmg05zJlymjgv8SJE8uuXbvEaMTNPTyLYcOG+Xk+iI7qrgishJDAQcBKtOuom54E+h0EdjMEP21fEYjtzp075rfBA/qayJEj64bPtqBvRf+IPhgRpd0VIBLR6v/3v/8FuiEqtCHMmkf5gICdKc0ApPbg+SI426NHj7QfAX///bccOnRI+vbtG2Bwzvnz52vQURyHbdy4cdo3lytXztzDEcgQOC/Of+3aNc3DsaNGjdIo4ui7/AP3YCgvZipwEDzWv/1x34bArwHtDMVC8yAToR8aMGCAv78h8tu1a2emiKdARSEAEOUWjdOgQYN8K7kz1qxZo9E5b9++rRXk66+/1rD1hvZu7uGcFStW6P558+bVNCo5oh8uWbLEV+lwBoTAMWPGmCnXEyNGDClYsKD0799fI1c7A40lImQH9FxcRaRIkVRZgKCOzqxp06ZSqVIl7dDcfX3cf4sWLaRatWra2KdPn14jWydLlszcw7N4/PixzJ4920z5gPcFvyUhJPhBG9WlSxethwsXLtR2xJOAsIoozbFixdI+rGrVqm4fAAoK6GMaN24s69atUwUCzw79sTuwDj4Ftl26dEkHr2yBIhCQ8hI9enQVlq19FZ41PqOPDYgkSZLoABl+HyhMiEpduHDhQCP/lypVSvexDvQ9fPhQf1f0mZA3/AP3ULJkSTMVOOnSpQsw2na0aNH0N7TeNxQFPMNUqVJp2j8KFSpkfiKeAhWFAECD8M0338iiRYv8HZFFAwAhDI3FJ598onlffPGFxI4dWzVj/wRZVN7u3bur8IsRCSvt27eX69evy/Tp0/09FqNTx48fd8vICkBj8uuvv2qHhhF8e6UFlR9h/3HvEOKDAyhRy5cvl5YtW2rjBCULDdW0adO0EXU1aNC2bNmiisGECRP0t4CycODAAd/f2RNZvHixvHr1yky9AZ0slAhCSPCCAQ2r0PbgwQMdKfY04sSJo20ERvW3bt0qFStW/KDKAvoWjODPmjVL+yMoWu4UICNGjKjXCepmCwbW3ga8D+i73+Y49Ll4dyBnBAZ+S4z2Q04AGNVH/4X8wECfGlSgWL4N1v4HslFAvO3zJO7H6xSFv/76S44ePRqkDaP6/gnbQQENAgRiCIsQ6O3NidCYYRpt//79OqVs1a5RSTFFCsG2X79+DoIsKjzOhwo8adIkPwI/poAxIwElY/369WbuGw4fPqxTiGg4ITy7i0yZMqmChCnZnDlzyuDBg/WZzpw5U0csDh48qPcY2OiGK8G1MJOC54pG6v79+9KoUSP5/PPPZd68eS5RGPCbooHFyApGczBNDGUIv9OcOXPUNMxTQdmHDBni9J2HyRTMpwghwctPP/2kAw9WMAgDwc/TKFq0qK9gjnYfJi4fYnABzwbtOvoXtGWtWrVScxp7Ad1bQTuNPv9tB/rwXBIlSmSmAgbntip61v7AfibEGfHjxzc/uR6rrID7D4jAvifBj9cpCsuWLVOToKBsaOje96WDkAhTE9jbQXguVqyYjgjBHAn2fiNGjFCBGlOCVtCgVa5cWcuKKU3sB4UBx2GEHpUd5cJ57e3ccSzOCQUFU4WwAUSDiRkGlAHCKwTlNm3amEe4B5QDZlAQxjGrAmXo+++/V2ETaXQkGKFAIxScDTiuBSUL9pcYccL05smTJ6VWrVqqPGDGAaP+GFW37Zz9A+XHvseOHZNffvlFEiRIIHny5NFpXjRsdevWVWWhYcOGAU6zegJYi4DNGbhPmIqxESYk+MBsLGYkbYH9ONp+T8Pab6E/Q78HE5nUqVPLkSNHfIVNd4JrYDYdpriwzUd50NdAsfL0tvdtwIg5hP6nT5+aOYFjnYHYtm2bmeM/UBCg4GGtJLAOKGKAMjDQd7oL9K0gsDUwd+/eNT8Rj8GonF6BIfSpv2DjJQvyBv+8OA4bPCdYV/L7B9yG4TijEps5b8A5ECQE0YjhQQAb/Dtbr+EfcCG6Zs0ai6FY6DFwfQrvOa8D8HYAcE54NELwHhwHz0JwmYbYBQBlRFkNwU/T2B/3h/u0LY+zPHuMhsXf+w4InBtej+Av+kOAe4JvaPgCt3ojsm5w+Ydo2Xh2hqKlfqMNxc13g69n+KvGPvHjx/dzrNGwajAYZy7oPBWUs3bt2lp+BO0zOnrf+8H9we+20dlqYCNCSPBg9U5nrYvWrXjx4uYengfakvXr16sHPpQVnnB69erl1jgL6HsmT55siWMGo8M1R48e/dZ90tti9Xr0Pu5R7V2A2tOqVSuNpQGvPwAuttEWB+ZhCvIGgqih/8ZzKFSokHpuDKxPghtx3NOJEyc0DVkD/XTHjh0DPBbf1ahRI8hej8qUKWPmOAf9K9zdIvgngKyEciDIXkB0795dy0+vR56D1ygKJPhAg3H16lVVHgICvqDR4AXkri04QHmhQCFwTM6cObWTcdY5+7eFCRNGG0e4loVi9iGDIL0rcOkLl61w4YfyWztcbPDhjd8SAXwQAMrb7o0QbwTCHaLn2rY11i1cuHAqAHoqaCPQZiBWDNpHbPDDP3v27EAHud4GXAduuOEyE9fAs4FLUAT9DI526kMoCuirMHhTp06dAO8RAckQCM36vOG+HX0bYhT4B84HV6+ItYDyWYG7duRZBxqdgT4EA2zuUhRQHxAHIm7cuP66FsfgHAa68JtQUfAcvM70iAQP5cuXl/z58/trvmO8O7puIWrUqFKkSBEz98OAKWqsHTAaVp3Sh4cHmODANrht27a6CBmLtGw32OPC9vXHH3/UxXtwNwvzI3jZgJ0mzulNYL0L1tDgnuwXmcGMAN5CVq5cKX369AmSSRYh5P2AyaIhBJspvxhCk4wePdpMeR5o/9BmYE3g8OHD1XPPuXPnpHbt2pI8eXI1h4XL0ndpS9B3YM0UzFexOBdr4OA4AiYyMCe9cOGCmn96WxscVNBXoR2GKTL6HjwPe+A8BWvisFbRanaFdRv4TeCFD+ay9uA8MFHesGGDjB071s8axpEjR+oz79evn9Pr4X2Em9y3XaD8NsB8Cu88/hcoUEAMhcf3/cH1YeIG0+6OHTtqHvEgjJeGEAcQih6zBf3793eY/sWoBcyuMPIA0x6kPRmUDyMjtpunl/l9wMiV7YzChzINIyS0gvalWbNmvnXQ2ZYuXTrfUWZPBveCkfcmTZpom28tP8wbEVkZAdswEgzTEttRbCsYgcZoNUxpJkyYYKlevbqONFvPg9lfQ3BUU5zgbpetMwoIiGYI4EHaEFUY5XzXGQWAPrV58+YWQ2nQmQLrSD/6JkOB0qBpiPaMIHS2nD59Wkf9EYQUwfusfTOeL9p5mPY0bdrUaZ89d+5cDdgGMzLMGCAPG2aga9asqWa4MJN214yCFQR9QzA2lAXB1fBMEXwOsywwm4KJOX4Tzih4DmHwx/hRCPGD0YDogu2BAwfqCBIW82LkB4uIMVqBxc1ffvmlTJ06NUjeFEjwYTTuumAeAf0AFgPCkxYhJHgwhEgd/YUv/Dp16ugIshWMmt+5c0ddGSMGD0ZRvQGIClhoCnfg8DKHGQWMBAOMEsPFKEax48WLp/eOfgEztXAFjkXdiElj3R+zBZilQDC1zp0766LpDzGDgN/B1hFJUICjFMSqMQRmdawBByM9evQwv3UETiQwyo94ELZeAtHHwjEJZg0w2g9vifiPdwcu1rEIHs/UHpQZzk6w6BzOPPDM0dbDuQi8MOKZ4vewB7/f5s2b1eEHAr3CTSnKgA3HYHYd/TucqGzfvt03DgIWuMPzI2boAfZHHvqY8ePHa54zMOuE7+EYBG53bUFZ8P5g9gj9Fd6FDBky6P3inYEDGMSTQlnIh4eKAgkQNEowWUHchqeml4ZPP/1UG8gP1biTgKGiQMiHBUoAhD54Y0M9tHVrCVfLMCNBdHcoCr179/a6dhRtDExHIOhig+e5gLzV4P4geCIGDYRMuJ+GdyPkhXYgjOPZQZGCgA8BHia9gYE4R9gguMO8FIqCrSLiH7ge3kkobzBrgqktlA1PAe8VZAx43frQZs3EByoKhIQwqCgQ8mGBMGa1LcfIqb2igLVQAPtBOPTmARcIqhhdx6ASRqSxXgruOZEPRQCjyRBiMTMNQdb6XEjoAu8IXJDD5XtAEaAxK4K4GRcvXtSZBfLhoaJASAiDigIhnkNAigIhoQUoxZhFwkwbYok4m8WAmRosFWCGhBkFKpWeAb0eEUIIIYQQtwGhH8FkMVNQpUoVXYuAWSeA/5iNqlixoppgTZ48mUqCB0FFgRBCCCGEuJV8+fJpdGksYk6TJo1kyZJFF/PDTW7atGnVfA1rdzCrQDwHKgqEEEIIIcStYC1Ojhw51DnK5cuXNZYEYisgZsSVK1c0llGmTJnoJMXDoKJACCGEEEKCBSgC8O4Et6ufffaZrklAmgqCZ0JFgRBCCCGEEOIAvR4RrwSvLbz7wOUa8QtcE37++efqQQJ06dJFA/QQv2D0Cp43uGjONVjrI7sUv8AvfPbs2c2UaBBLBNkifkE9RJA2Z8HCCCEfDioKxKvA63r+/Hn1noDIlAg4w1fYkVevXpmfRDveoATiCW1AMEmYMKG0b99eI48jaBF5e2BrPG7cOI1We//+fVUYyBvg0cUarBJYIxgTv0SJEkVNURCMrkGDBlTgCfEQqCgQrwGvKsLI9+zZU12oEeIKMLOAYFCbN2+WZMmSmbkkMFAfx48fr6PjrI/EVaA+ZsyYUaNWM+AWIR8eKgrEK8BrOnLkSPn222/NHEJcS8yYMeXMmTMSP358M4f4B+rjtGnTNHAYuxDiDpIkSSJHjhyRWLFimTmEkA8BFQXiFSBIC0aZnj17ZuaIRIsaTfLnySPRo0Y1cwgJGv8Zzd454506fPSImeMDAgEtWLCAdtKBgOBIMBNBlFUrMKfJliUrzWrI22NIIdduXpdz586ZGT7UqVNHZs6cSW84hHxAqCgQjwevKBbkDhkyxMwRKVKgoEz/ZbgkTsDRX/JuwHZ88br10qR9O3li2pBjMSV8fCMYEHEO6iNm9jDDZyW7oSD8MWqUpEma1Mwh5O34599/ZdqiRfJdnz7y+MljzcN6DqxJowkSIR8ODpsRj+dfowOZN2+emRKJFi2a/D5oEJUE8l5g1qBq6VLStllzM8fHc8+OHTvMFHEGFAU4ErASK2YsmTRsGJUE8l6ECxtWGlWtKi0aNDBzRF6+fCkrV640U4SQDwEVBeLxYOT3wYMHZkok2+dZJNnHH5spQt6PL0uXNj/5cOvWLfMTcQYUhatXr5opkcwZMki6FCnMFCHvDpT3WhUrmSkfbty4YX4ihHwIqCgQjweCCTYr0aNEoQ05cRlxYsYwP/lg+64R50B5txI9SmSJED68mSLk/YgZPZr5yQfWR0I+LJS2CCGEEEIIIQ5QUSDkAzNtwQJZuGatmSKEuJtnz5/LknXrpF779pKmcCGJ93lmSZA1i6b/WLZMHtsESCOEkNAMFQVCPjCzDMFk2YYNZspzmb96tXQbOlReMfIu8WJOnr8gVVo0l5adO0v4cOGka5uvZeyPg+SnXr0lVowY0qlfPylVr578dfKkecT70XXIEJm9YoWZCl4uX78uDTt0kAs2a0oIIeRtoKJACAkSJ8+dkw07d/qxTyfEm7h07ZpUb9lCbt25K3/Omi0TBw+WprVqSfUKFeSrqlXl1969ZcPcuRL2o4+kZquWcuL8efPId2fDjh1y7MxZMxW8PHryRJauXSsPHr+Jd0EIIW8DFQVCCCEhHsyEdRw4UF68fCFLJ02WzOnSqkJgC5wkwIPTwvHjNabGN716yYtXr8xvCSEk9EFFgRAP587Dh7Jq4wZZuWGDnLxwUf4NZET/9v0HsnHnTt0fI6Kv//nH/IaQ0MuhU6dk+do10u2bdpI0UUIz1zkJ48aVfh07y7bdu2Tz7j1mrvt48fKlHDh2TOvs9v375SHXSBBCPAQqCoR4GLAnzl6unOw6fER+mjhR8lWqJNVbtlSTiUJfVpaabVrLjTt3zL1FDpw4Ifm/rCLX7tyVwb//LjnKlZHKTRpL9VYtpXDVqlKpWTM5e/myubcPR06dls/LlJazV66YOX7ZaQgraQoWlOt378rwKVP18/Dfx8nho0ckY4nimj52+rS5NyGez6zFSyRhgoRSvmhRCRMmjJnrPyXy55PkSZLK7GXLzByRcbNmSWWjPj0zBHtn9B8xwqifbeTZixdSpUULrSdHjh+T3yZN0M+FjPoI4PKzXKNGsvjPdbJh124pXKOGlK5bR+ts+QZfSf7KlWXWihV+XIPuPXJE24WL16+bOX5Zt3WrfGbUzdsPH8qpi5ckU4kSUu6r+vLk6ROp3LCBXr//yBHm3oQQEjSoKBDiYfzzzz/y97VrMnnBAlm9aaNMGT5cnhiC/d2jx2TMoCGywRAIOvTr5ztT8PLVK7lkKBcDR4+WFevWyZyx4+S2oWQ8OXlKFk6cJK+M78s3aCBn//5b9wcww/jbOMa/2QaMcF68cllnLwrlzCFdDOGnUJ688nGiRPK9obQgnTA+I2MT72Hf4UOS9bPPJEGcOGZOwMSMFk0K588v23fv8l3A//DxY7l265a/vv3vPXgg182AfY2qV9d6kihhQsmfK7d+bt2woX4Hrt68KVsNhbzZdx2kVYOGcmrLNnl2+owc27BJKpYpI607d5aJ8+bJf+a1UM/RLvzz77+atufZi+dyyVD8sYYofuzY8p1RT5vVqSMRIkSQRrVr6/VLGMoCIYS8DVQUCPFQdu7eKdN/GS4FsmXTEdDIESNKtTKlpdPXbWX1hg1y9/6baNUPHj6UI8eOyWxDWciXNatEDB9e7a0L5cguM0aMkDCGsPGj8Z1/QkZA5MiUSQWOHFmySPx48aVxzVqajmcII4R4AxjhP33urKROleqtgjUmNoT8R08ey50HD82coIFrVCldWutJ/LjxJGvmz/VzncqVzT18mDlvrgw3lP4m1atJXDPwX5KECaR/hw7SoGZN+eHnn+WaoVC8LQgi2Ng4vlr5ChIhfAT5slx5vX6+7DnMPQghJGhQUSDEQ2lUo6YkihfPTPkAhSGvoTg8evxIbt67a+aK/GsoALUrV5LETkb5Pzbyvm7cRP7csllu2pgsERJaePbylY60R40cxcwJGjGjRjWOs7yTgh0UMqRJI6ULFDBTbwgXNqx8a9TZ5y+ey8Zdu81cQggJfqgoEOKh5MiS1fzkl3gxY+p/W+OHqIZAkz9HTjPlSJF8eeXa9ety5uJFM4eQ0EOUiBF0lP/p82dmTtC4//ixKucQ3N1BoXz5JFLEiGbKL4kSxJd0qVPLxh3bzRxCCAl+qCgQ4qGECxfO/BQ4CBwVPXp0M+VIQtMu+97DR/qfkNBElEiRJG3qNHLuwoW3igNy4/ZtiWHUq3ixfJRzVxM3gPUSkSJEkFjRohl19u3MngghxJVQUSAkBIDFlTA/8g+r6UTYII6M0qUqCWlky5hJDh07Jrfu3TdzAubhkyeydccOyZcrl0QIH97MDZhXb1lvXgcQ5VzrtKHUBHU24/Vr1llCiOuhokBICODZ8+dy7uIFM+XI+StXNYAUFkr6YhF/R1ev3r5tfiIkZFC3ShW5fvOmrN68yV+vRbZs2LlLPX/V/qKimeMDvBD5d/zb1ptjJ0/6WwefGnX65r17kjJJEjMHVdbif53l+iNCiBugokBICAAjkwtWrnQajA1CzaJVKyVl8uSSMlkyzYsAm+2wH8m1Gzc0bQvcs27cvsNM+QXnCoKMRYjHkf2zDFKhVCkZMHKEXDVdmPrHbUNA7zV0iLo1LZ4/n5krEiVyFLlz9466HLbnweMnsvfgQTPlF/8Ui3Vbt8jNu2+cEthy4tx5OXnqtJQoVEjTkSJGUiXhlhNlBO5bN+/caaYcCYpiRAghzqCiQEgIAELETkNIWbh2rR9lAYLF+p27ZMLMGdK0Tl2JE8PHBeMnCRNKnFixZPrChb4+4q2s27FDtu/bKxHtFlnC/OL+gwfqr50QbwPv78BOneSjMB9JxcaN5djZsw6j80ifvfS3fNm8hb7nP/furWsFrHyWNq3cuHlT1mzdZub4gDo0eOwYjVlgD2byrt+66dRzUtSo0aT7sGHy5JnfRdYwj2rXu5fkzJZNCubwcWmaPMknEjlSJPljyVIH08Cl6zfIoePH9Vq2fPRRWF3EfdmfIG2EEBIYVBQICQFEjhxJurT9RnoOGSKtuveQWUuXyIJVK+W7gQOl3tetpULpMtKqbj1zb1GFoXn9r2TeksXSrEtXmbl4se7fZ8QI6WQc06vDd8Y5I5t7+5D50wxy5eoVKVu/vpSqU4celIjXkS5FClk4foLEjR1bStauJW0MRWDy/HmyaPVqmWnUhXb9+kmxmjUMQfy1zB0zVrKkT28e6UPuzz+XogULSruePaTX8OEyf+VKmb10qTTt3EX2HjokbZs1N/d8Q87Ps8icRQulRO3aUvfrr81cH+pXryF379+XCo0ayZg//tByjJgyRco3bCC37t6REX37SrQoPi5d4xuKfROjDk+dPcus40t1FrHHzz9LvxHDpUf7DhIxgl/lPmG8eJL0k0+kTdfOWmd/mzbV/IYQQoJG2D4G5mdCPBIs0h02bJi8ePFC02lTpZbaFSvKR2HCaNrbwehgpvTp5LM0aTQNMwEsYCyUK7fEcuLJCN+HDx9OiuXPL9GjRpUrN2/KHEMx6GsI99XKlZPNu3bJBEPomL9iuUiYj6Rd8+bSvU0biWon+EPo+ThRYtm0c4dMnTNbNuzYKbENYWSE0SSkNQSqS9evyxfFi0vUSJF0f9hKF8qXX8J/9JF8nDCBFMiZS6JHi6bfeTMPHj2SkZMmmSmRUqVKSQEnvu2JD3j/fvjhBzNl1MeUKaVO5SpmyvNJEDeOVCtfXtKnTSv7jxyRPxYu1PqzetMmjaL8vwYNZUDH7/2sDbCCWYnShQvLy9evZN6y5TJ78SI5euaM5MueXX7q0V1evHwlFqNZKp43r6/jgAI5c6jHJbhoTZEkqRTIlUvzx86cKflz5pQfvv1Wbj+4L7MMZX2KUQ+Pnz0rpYsUkVH9+stnqVPrvlZwnXjx48u6bVtk2tw5smXPHokXJ478NmCAJEmUSK7cui0VihfT4IwgcqSIUqpIUYlr1OvYMWNI5vSfSrpUqfQ7T+W+UR9H2dTHYsWKSRHjeRBCPgxhjEafxovEo3n58qUkMjrBBw98IhGXL1lKFv3+u4R9iwirIZmdhw5J1aZNZOeyFZLi40RmLgkqWLCapmBBMyUyZMgQ6dixo5ki9kBxt3XdW95QJpdOmmymSFBAt5vFUFaa16snbevXN3MJOHfliqQv+EZRh1Las2dPM0UICW4oaRFCCCGEEEIcoKJACCGEEEIIcYCKAiFeToyoUSV/jpx+vLMQQjybXJ9/rt7HCCHEk6GiQIiXkzFNGlkwbpwkihvHzCGEeDJhwoSRiYMHS9VSpcwcQgjxTKgoEEIIIYQQQhygokAIIYQQQghxgIoCIYQQQgghxAEqCoQQQgghhBAHqCgQQgghhBBCHGBkZuLxuDsy87Vbt2X8zBlmKmCSJ00qjapXN1Ou4cLVq7Jw5QppXreeujr9EDx88kSGjx8vtSpXkU9TpTRzA+bl69cybOwYKVusuOTIlEkeP30q42fNkvLFSwT5HJ4AIzO/He6OzPzg8WMZMWGCmQqY+PHiSeuvvjJTruHqrVvyx6KF0rROXYkTI4aZG7y8fPVahoz5TSoYbV32jJ+ZuQFz+ORJWfbnWmnXrLlEixzZOMcrGffHH1IwV+4gn8MTYGRmQjwLziiQUM/1O3ek34jhMs8Q1jds3xbgtv/oUfMo13Hx2jX5xRCMHj97ZuYEPxDy8QxOX7xo5gTO63/+kYGjRsmBY8c1/cQo//CJE+XUW5yDEHsemu/irKVLnNZB223XwYPmUa7j+u3bMuz331Vh+VC8MurWgF9Hyl8nTpg5gXPk1Cmtj09fvND0K0ORHzV1qhx8i3MQQog9VBQIMRnYtbtsnr8gwO3XPn3MvYk94cKGlexZs0qM6NHNHELenU5ft3VaB223aT//bO5N7EGshqyZP5e4sWObOYQQ8vZQUSCEuIR4hkCyYNQoKZIzh5lDCPlQRI0cWWb98rNUKlbUzCGEkLeHigIhLuDOg4eyadcu+XPrVrl886bYLv2BWc/2/ftlzeZNatrzz7//mt84guNu3bsvm3bulLWbN8uZS5cC3B/ARMJ6/oPHj8vzly/Nbxz577//5LRxTuy7Zc9uufvwkfmN/+CYS9eu6zEo181798xv/ALb9Rt378kz0/TBnqfPn8v2ffv0PAeOHQuwnDgHzC6s9wSbbUKCyn2jTmzdu9d4fzarad9/NvUR7+Guv/7Sd+vY2bPyzz8B16+7Dx8adWWP7n/y/Hl59fof8xtHUFcu37gh64x2YO2WLXL+6lXN8w98d/HqNT032g/U/cBAvUGdwDEwhXxi3I8zcM+oj/59j/PAdAvn2Xv4sD4X/3jx6pUcOX1G99135EiAdZcQErKgokDIO4AOvkKTJrJ0/Qb5Y9lyyVe5olRo0EAqNm4keSpUkB9+/VX+NfZZYQgqeSpVknL160klY/8CVapIo++/lwePHO2fYfP/6/TpkrN8WanQsIGxf2Pdv3rr1rrg2h4I5r/N/EPyVq4kZevV1fMXr1VTShmftx844EdZwWcoHdX/11oKGufEvuW/+soodyUZPmWKXtsZV27ekoZGefNW+kKPQbnyVPxC+o0eLS/shIU7Dx5IhUYNZcvefWaOSOVmzWTU9Bmydtt2KVKjhpQ1n0PxmjWlcPXqhsDj134a5VyxabMUNvYtXrOG7lvCuKeKTZvIBUOgate7t/yvRw/j+dMHA/FLvW+/lakLF8nyTZskf+XKUu6r+sb701jyGu9r50GDdHHvZkN5KFD1SylT16e+FK5aVWq0+Z8hoDsqv68NBWKKcb6c5csZdQXnaiKFjGOrNG+udckeOARo3KmT1g+0A5UaN5b8lSpKsy5d5O6Dh+ZePuA9h0LxVYcOks/YR+tWg6+MtuILGfjbbyqY24NjNhjKRBGjXqCe45iStWtJUaMurTKUEtv6Dp4Zgn/Vli20jbKCutxv1GjZtv+AlDKeQRmz3cB5Cnz5pVF39/o5Dz5v3L1bShr7Fq1Rzdy3tpQ12o6jZ85Kn59/kvrGc8d6CEJIyISKAiHvyOXr12XOiuXy27SpMnHYz/LAEHpvHz4iLYxO9MeRI6TzkKHywy+/yOgff5RHJ07Ko5On5NcBA2X1hvXSb+RIPyONEHxHTJoss5cslgk//yL3jh6XJ6fPyKwxY+T2nTtSzhAi/jauZwUd+I/jfpcegwZKo1q15cKu3fLy3HnZv3qNpE6RUqo2byZb970R2HFs2fr15drNG7J82jR5ZnTyd48ek5H9+smEmTPl9zlzzD3fcO/RI+O69eXQsWMywxAunhnlwT1OHzlKlq1dIz+OGSsWG4EdZbp3/74fpQPPaMvePdJj2BDp1KaN3Dh4SF6cPScrZsxUwa3m/1oZ1/FRmnD84nXrpZ4huOXKmlX2GfeCezqxeYvkz5lLarX+nxw9fVpu3HZUmgi5evOmoWRulP4jRsjwvj/IvSNH9X3t1OZrGT15knQeOlTa9+0rA7p00++enDptvNejZKdRTzoZdRSKtxW8i1MXLJBfJ0+UEf36a73Ge7to0hR59c8rQ1Cu70dZuG/UlYqGEH3w8GH5fehP8lDr+0mZNvJXOXrqpArsUKSt3Hv4UOvjUWOfP34b41u3pvwyQhatWiVDf/9dy2DLn9t3SGVDAfksbXrZt3K1lufCzl3yv4YNpVXnzrLr0CFzzzfcN66JemblmvGM9hhl7DigvzSpU1eu7N2vdWzTgkUSKVIkqdGype+sBq4PJaGGUfZkSZLIjqXLdN9zO3ZIhVKlpM7XbeSw8QxxTkJIyIWKAiEmO/ftlQUrVwa4QSCwZfvuXTLRUAgK58op4cOFlehRokiXVq0kc4YMMtYQTvp+950Uy51b940YPrzULFdWO+i127b6Eajv3b8n6zZvktmjfpPS+fNLxAjhdXFwibx5Zfbo0XLX+P7nCeN9lQuYMP1mCDE/dOwknZo3l3ixYml+qk8+kXEDBkiZosWk66BBvvv3NwSiqFEiy5zffpPcmTOra1mUp2yhQrJwwgRZvma17mfLzxMnypMnT2S2cQzKEdYoT/hw4aRQjuyywFBSdhnP63UQRhI3bt0iP3buIjXKlpWokSPpIssC2bKqknLz1i3ZZigS4IHxbHsPGypflC4jI3v31nsBCePEkV5tv5aSRlkh1JHQwX5D8HVWB223G3fumnv7sH3XTvn1hx+kTKGCEsF4vyNHjChfG4p7oTx5ZcykidL5f62lQpHCxrv8kb7L5QoXlm9btJTte/bojICV58+fy/xlS2TGiJFSqXhxPQ/e24LZs8n04SM0/YOhkFjNAmcsXiynzp2V+b+Ply+KFtFrYytdoIDMGf2b/H3lisxYtMhX+B9m1LkXL18Y9XGMFMuT27duFTHakQWGkrB1504/igvMC7sPGSzlSpSUsYaQnzppEi1PrOjRpWn16oYy088o71Jz74DZvmuHfG8oBI2rVZXoUaNoXrYMn8poo914/fqVrDbaIYBZgm6DB0uBXLnl94EDJX3y5JofN2ZM+b5pU2lYo4asMRQzQkjIhooCISYYdWzRuVOA26XrN8y9fShoKAFpkiU1Uz5EMoSITBkySsL48aRQzpxmrg8fGQJ6hrTp5MLFC34EgX8MpaFZvXqSNFFCM+cNSRMlkv81aCgr1q3XUX6waO1aiR0zljStWUvPaQuu387oyCG4HL9wQW7euy9LVq6QxrVqS7KPPzb3ekM6QwCoX9VvbAjYeM9bslhqV64iGVKlMnPfgDI1MxQeCWNmBEB+4xkUzpVLBRtbshjKVARDITpnjszu/OuQ/H31qnQyFC0ITbbgHts2bCjRo0czc0hIZ9rcOU7roO2GNQa2ZPkso2Q13itbILBnzpjRUJSjSLmijgt7P0uXXq5evyZPbdwTQ8HGu/9pSsd4IB/HiydtmzSVDdu2yTVD0X3+4oXMMhQF1K+0yZOZe70hhaHwYnBgzrJlWs9Rh+ctXSJ1qnwp6VOmMPd6A+po0zp1zJQPew4dliPHjhmKzv+0fttTvkgRyZs9aE4EMqZPL18UK+5QH9MZ9xo3dhw5ff6Cpv86dUqOnTwh3xmKVDTj2dmC+ti6fn2JZQ5QEEJCLlQUCDGZMXqM3D1yNMAta/p05t4+ZM30uY4G2oOAVJ99mkE9j9gTLlxYeWEIF7amBdGjRZfi+fI5dN5WiubPLxcuXZSLV7A40iLbd+/W4G+HTxyX3QcPOmz37t2Tj4xzwRTi4pUrgnmFEgUL+Xv+4gXeBDgCN2/flrv3H6iJgX/HFDZnGQIDz8he8Aexo0fXfOtT2Lprh3FPSSS5OZNgT5yYMeVTQ8kioYMRAwY6rYO2W4m8ecy9ffg8Yyan7xry0hvvTgxzBN0WzNy9evXKd/YNRIgQQcoYwre/9TFffrl566YcNxQVzIQdPXFCEsSNJ3v++suhLiIvQvhwxj7HNcbBjVu35d6DB/JFAHWriNEW2A4AnDh3TlIbCnu6FI6KBYAyVDC332fhH59/lklnLO3BbGgk47596+POnRLfuKdP06Q2c/yCWZXsmT83U4SQkAoVBULeg8iRHEf3rIQ3Ou+gEiVKZIllCML+kdD0hQ7Tp5evX6kgv3bjBinwZRWnGxZPY73AtZu35PKVyzp7ETOG//ENEsSNY37y4ZZx/kePH0ncWP77YI8XO5bDbIYzbKP4BsTNu/d05BLCijPChwsv8QJ4RoREjhTJ/OTI29RH7JswXjwz5YhvfXz4SD2ePXv+TDr16+u0LmLr/uNANWe6/+ixKhgw6YsTQN2Kb5wfir6Vc+fPSowYMQKsS/Z12D+CWh+xwBvtm7PBDisfx4trfiKEhFSoKBDiAWA003ZE0x54UAIQzD8K85HaWDeqXUfuHz0W4PZtk8YqPOG4gM5v7/UoYoSIKlBYr+sMmFG4kphRo8qrV6/ltY1Jli0o/zO6ZSTBAGb7AnKb+u9/Pt99pGsdfGbVlk6d5rQO2m7JP04kESKadcuf9xygbtkuZY4aJWqA9Rf457nsXYlh1EecMyCPRk+e+e9SlRASMqCiQIgH8OjxY7XP9w/4Y4c5ROL48dVsIFXyFHLjzh2JHi2a0y1c+PDy13FDOHn4SJJ8kkQFn8sBnP+y3dqL+PHjSfTo0eXcRR97ZWdcvXkrUOHlbcieJatcuXFd7t537kv+yfNncuaC/+UhxFW8NBTSMxfOmylHzl+9psJ+0oQJNdBg3Lhx1QWqs7qI7dGzZ3Lg2FGtLwnjJ5BohhB+/tJF82yOXLGLxZIqZSq5dv26PH/uPEYJgIcxV5I9Sxa5c++eXL3ht22w8u+//8mhkyfNFCEkpEJFgRAPAILJotVr/BW8F69aJenTpJUk5mLn3Fmzyq69ezSYlDN27D8gFRs3ket370iaZMkkdsyYsnz9en/PP3vpEvOTD4kTJJAUSZPKQuO6/s0qwOuMK2cVchuCCcwz5hnndcbSdevl4t+O/usJcTUY7Z9vvIf+jfovXr1Kkib+RNIZAnx0Q+jPYNTNOUYdcla/UH+GjBsn3w8YqJ8/MZQLuBtdYNQt/+rjvOXL/HyX/bMMcv/Bfdlx8KCZ45dHT5/KynXrzJRryJEpk85ezly82Gk5127fJqdOnzJThJCQChUFQjyAaNGiyepNGzUwmW2nDMFi9dZtMm3uXGlev76v95HalSpLlMiRpU33HnLXxj87uHnnrvwwYrgUzp9fsqZPry5JWzdqLBNmzjDOtdXPSCVGBWevWCEbt21TG2grWCcAzy4LDYEF39sqC4j4igBPc5ctkbhxXGejnDpZUmlR/yvp+9Mwmb5kiTw2vdAgSvOyjRvl599/lxxZs2keIe4Es3cHjh6ReatW+1EWUDc379snv02ZLA1r15a4sWLqQmLEMvjTqL+jZ8xwiKS+bd9+mblgvrRt3Fj3jRzRp27B89Fc4/y29R2fV2zaJAuMOhcnzps1B5nSpZOyxUvI9/1+kPNXrpi5Prx8/Vp+GDlSI8A7W8j9riSIHVs6tPqf/DpxggZNtLqPRVTmP3fskM4DB0rRAgU1jxAScqGiQIhJ32FDNXJwQFu9b9o6jZr6vsSJFUs75ZZdOkm7H36QeYagsGj1avluwAD5qu3XUqdaNWlctaqvl5SEcePI6B8Hy679++TLFs1loqFILP1zrYydNUsqNG4kd+7elcFduvru37xWLSlWsJA0aPeN9Pj5Z1m8Zo2OmLbt20c6GsJH/86dJVpUv65Ha5YvL9UNhaRtt27SwSjH4jWrdRS08+DB0rxjR+na9htDUQjaAsqgAO8zPdu2lca168o33btLkerV9Zkj8uz/unSWH77/XlImTmzuTUI6v4wb61D/7DdEXobg6mqiRIpsvN/tpOuggdKqRw+Zs2y5LF27VroMHSa1W7WUogULyreG4I/6ha1yyZLSpkkz6dy/n7Qy3l3Mti006m/PX36R2q1bSaXSZaVa2bK+9bHOF1/Il+UrSOuuneU7Q+C21q2OgwZJS6Mu9vy2vbo/thLRUFwGdOyk/xEd/ZdJk7Q80xYulLrt2skaQ5FGfQzqQuWggLK2N9qSb5o1V+W9UPVq+syL164ljb5tJx3/9z/51Il7V0JIyCJsHwPzMyEeCUb0hg0bpi5FQdpUqaV2xYp+vIK8DxjFg5CaOnlySZQgQYBbUkNQLZArl14bEU9zfv65JHUSmwALAFMnS6axAuzB/cSMHl1KGsIG3Ivi+nA1iJgIhfPlk407dmi05/krlstHYcPJd4Zg0rlVKwePLulSJJcSRYrIxatXZeIfM+WPxYvlyMlT6up0VP/+OkJvFUwgYJQvXlwSxEsgqwyhAiOim/fslrQpU8lPvXpJgRw5dOFifuN/fFP4R1C2MoULSwrjPjbt3CkjJ0yQDdu3S4L48WVYz54arA1uJXNlySJJEiXSmQrMNuAcCcxzvDCEuOyZM0uqpH5jTViBD3rEWbC6REU5SxYsIBVLl5Z4xjkiR4wkRY37QcC2HBkzqWAEP/LVDSXGem/vC9xbjjQELyulSpWSAnbuYskb8Dv/YCizVtKmTCl1KlcxU+8Pzm8x6gT8+jurg7Zb4kQJ1ZUo6i8UeNQ3vPf2IDAg6mkuo77ag1m1KEbdKmH85qhjqI8Y+W9gKOZlihSTrXv3yLgZ02XWksXyyqgjbRo1lj6GcA53olZw/WL58kqa1Glk2769MmbqVFm4aqXx/r+S1o0aSY82bXQG0ArqfVmj7iZLkkw27twhIyeibu2Qj416NKxHTylt1AHULZgYwlQJwMtYlTJl5PHT5zJ3+XKZNHuWHD93Tgrnzi0j+vQ17i+RBlEsnCeP/geo03lszoE2K3P69JLeSWwUgPqKNi2N0bYAzFAUMc5XpVw5+ThBQj0voqQP6NRZihjtICLTY91EvS+/1PbCFcCz2yib+lisWDEpYjwrQsiHIYzRKNs6VyDE44D9fiKjA31gmtiUL1lKFv3+u8s6JuIZYDEoTJpK5s8viZy4XYQpUqHq1aWaIbRg5sFVXLxyWdIYSpuVIUOGSMeOHc0UsQeKru3INRTQpZMmmykSUoBHo8Xr1mnQyOSJHQdD8B4UrlVbcmbOJCN69zZz359zV65IekNRsgKltGfPnmaKEBLcUNIihHgE//z7j3QdOEB+nz3bzPHLqs2b5ez5cxrojRDiXj76KIz0+WmoDJ88SZUCezbt3St/HTkkRfNz9o2QkAwVBUKIRwBzpa5ft5Wfx/6mazMOnz4tt+7ckbOXLsnoGTN13ULV8l9I3ixZzCMIIe4C5pA/fN9Rps6ZresuDpw4ofXxwpUrMmHePGn87bdSvFBhKVOIC5oJCclQUSCEeARYc9CiTm2ZOnykbN65Q0rUrCGJc+aQzCVLyG9Tp0jLBg1ldL8fdB0DIcS9oD7WqlBBZo8ZK8dPn5Ly9etpffy0SGFDmR8r1StWlOm//KLrOwghIRcqCoQQjwGLQisbisGW+Qtkz7IVcmDVatm/cpVsX7hQ+rT7Rn3WE0KCB6wDK12ggKyfNVt2L1uu9fHAqlWybdEiGdatm8SKHt3ckxASUqGiQDwejGzBS4iVqzdvujTQF/E8MEqZMmkS+TxDBvksbVoVSFzl5cieM39fNj/5EN70GEP8x/YZ3bp/X2NdkJALPI0lT5xY62PGdOklTowYLvM6Z499lHjbtp8QEvxQUSAeDzqKxDb+848ePybrduwwU4S8O3AfOWbaNDPlQ8qUKc1PxBlQ2Gyf0dETJ2Tz3r1mipB3B8Hjxk6baqZ8SOWPK1dCSPBA96jEKxg1apR88803vlGFEehrUPeeUrFEcYlBcxTyluA9unD1mgwZM0ZmzJ8n//3n49UlZsyYcunSJf1P/Gf06NHStm1b3/qI2BojfugvZQsXlsiRImoeIUEFcTOu3bkjA412fvKsPzSWBUDE+osXL0rcuK6LAE8IeTuoKBCvAMHWPv30UxXiCHEHGCnv27ev9OjRw21mTiGFhw8fSpYsWRzqI+IrpEiRQsJ+RHMREnTuP7gvt27dMlNv6NatmwwYMMBMEUI+BFQUiNdw5swZyZ49uzx58sTMIcR15MyZU3bs2ME1CkFk+/btGsX6+fPnZg4hriNr1qyyd+9eP8H9CCHBD9coEK8hbdq0cvjwYe1APmJUZuIiIkWKJJ06dZKtW7dSSXgLChQoIDt37tQZBM7AEFcRIUIEadGihezZs4dKAiEeAGcUiNcB+9Xdu3fLihUr5Pbt2772rMQvZ8+eVdve2LFjmznEFigFUD7r168v8eLFo7D7jrx69UpWrVola9as0VkGZ1F8icjTp09VKaUXH+ekSZNGcufOLQ0aNJBPPvmE9ZEQD4GKAiEhlF9++UUaNmwoceLEMXMIcS9Q2tmlOGfs2LFSsGBByZQpk5lDbMEsMZUDQjwPKgqEhEBevnwpqVOnljZt2kjXrl3NXELIhwAKVIkSJdTV54QJEygQE0K8BioKhIRANm/eLMWLF9cpfJggwe6XEPJhOHXqlGTOnFmiRIkily9fluiMaEwI8RK4IpSQEAZ0//79++so5tWrV9VzCCHkw4D6OHnyZHn9+rU8evRI13MQQoi3wBkFQkIY169fl2TJksk///yjaSwQ3LVrF80dCPkAwJ1z/PjxNRYMwKLd48eP08MWIcQr4IwCISGMYcOG+SoJYP/+/U6DGRFC3M+MGTN8lQRw/vx5OXr0qJkihBDPhooCISEIKAjjx483Uz7AXSWUB0JI8ALzv5EjR5opH5DXp08fM0UIIZ4NFQVCQhCILeEscjVGNeHvnhASfGA27/Tp02bqDcuWLZP79++bKUII8VyoKBASQsByo9GjRzv1Yw/TIwTEIoQED6iHmN3zLwDd7NmzzU+EEOK5cDEzISGEc+fOScaMGTWGgjNy5cqli5oR2IgQ4l7u3LkjKVKk0IjMzkiePLnONtB1MSHEk6HEQEgIAPr+Tz/9pEoCfLTbelSJFi2ahAsXTg4ePCiXLl0ycwkh7mTJkiWqJCB2gm19jBw5skSMGFHjKRw6dMjMJYQQz4SKAiEhgOfPn6spw7fffit//fWXn4BOXbp0kR07dugI5oABA5yaJhFCXAfMjXr06CH16tVTV6hx4sQxvxFp3LixKggIwNa7d2/WR0KIR0NFgZAQwLVr12Tnzp3y888/S9KkSc1cH2LGjKlmRzBzKFy4sHpdIYS4j9u3b8vKlStl+vTpGtPElhgxYkj69Ol1hq9Fixaq5BNCiKdCRYGQEACCOEH4CCioGtYmNGjQQMKGDWvmEELcQaJEiSRbtmwB1kd8V6VKFTVNIoQQT4WKAiGEEEIIIcQBKgqEEEIIIYQQB6goEEIIIYQQQhygokAIIYQQQghxgIoCIYQQQgghxAEqCoQQQgghhBAHqCgQQgghhBBCHKCiQAghhBBCCHGAigIhhBBCCCHEASoKhBBCCCGEEAeoKBBCCCGEEEIcoKJACCGEEEIIcYCKAiGEEEIIIcQBKgqEEEIIIYQQB6goEEIIIYQQQhygokAIIYQQQghxgIoCIYQQQgghxAEqCoQQQgghhBAHqCgQQgghhBBCHKCiQAghhBBCCHGAigIhhBBCCCHEASoKhBBCCCGEEAeoKBBCCCGEEEIcoKJACCGEEEIIcYCKAiGEEEIIIcQBKgqEEEIIIYQQB6goEEIIIYQQQhygokAIIYQQQghxgIoCIYQQQgghxAEqCoQQQgghhBAHwlgMzM+EkBAAqvSNGzf0P4gZM6ZEjRpVPxNCghfUw5s3b8p///2n6WjRokmMGDH0MyGEeDpUFAghhBBCCCEO0PSIEEIIIYQQ4gAVBUIIIYQQQogDVBQIIYQQQgghDlBRIIQQQgghhDhARYEQQgghhBDiABUFQgghhBBCiANUFAghhBBCCCEOUFEghBBCCCGEOEBFgRBCCCGEEOIAFQVCCCGEEEKIA2EsBuZnQgghxKv5999/5cWLF/L69WtNhw0bViJHjizhwoXTNCGEkKDDGQVC3AAElRo1asjcuXPNHEKIO3n16pVMnjxZsmfPLp988onEjh1btwQJEki2bNmka9eucv/+fXNvQgghQYGKAiFu4J9//pFFixbJiRMnzBzvZOnSpSpo4X4I8UQwKb5v3z5JkSKFtGjRQmcQOnTooHnYRo8eLcmSJZMRI0ZIkiRJZNSoUXqMKxk+fLh8/PHHLj/v+/D5559Lz549zRQhhLwbVBQIIf4CBeHZs2dmihDPY8+ePVK0aFEJEyaM/Pnnn7J3717p1auX5MiRQ7cmTZrI8uXL5ejRo5IvXz5p27atCvauFOph5uRp9QTlwSwLIYS8D1QUCCGEeCUw8atYsaJEiBBB/vrrL1UYMKNgD5SIVKlSycqVK6VUqVLSrVs3OX78uPktIYQQ/6CiQMgH5L///pOXL1/K8+fPVejBQsyggNFQjBa+7XHuwLYs2DC66kkmGCTk0qNHD7l3756ayMWPH9/M9R8oFNOnT9f/derU+SD1BnUedRZ1BXX/Q9YV1l1CSGBQUSAkGJk1a5b07t1bBZSTJ09KpUqVVMCJEiWKLrzEosvVq1c7dNZTpkyRYcOGaf61a9ekWbNmumATx0WPHl3tkWfPnu10LcH27dvl+++/V+HEP548eaImGceOHdNr9OnTR9MDBgzQ42D7jfTQoUP9lA024BjRTZw4sZYFW5o0aaRz587y+PFjcy9CXA+EbNSn3Llzq0lRUEmYMKG0a9dOZxQuXrxo5oquKYLiEdB6nBs3bmg9uHLliu6HmQmkJ0yYoKY++Izt999/1/0heHfq1EnrCerN5s2bpVChQhIrViytKyjLF198oWWxr/NI//jjj7qmIiA2bNig18DzuHPnjm8Zrl69KnPmzPFNHzx40DzCB1yzWrVqum7DWnexzuPbb7/lom9CiC9UFAgJRtCpT506VRYuXCjlypWT1q1bq+APxeHs2bNqHgHBG4qBLWvWrJF58+bJxo0b1atLpkyZ5NChQ3rcw4cPpWPHjioMFClSxEHQgfA/bty4AO2VMZoIgcQqOJUuXVq+/PJLyZIli5pyQJhBulixYvo9hJj169erqQfKc/r0aS0LhKUhQ4bI+PHjJU+ePCq8EOIO8M5BcG/QoIFTc6OAaNSokb6vEKStbNu2Tb0mId8/MHuBegKB/KOPPtI6jHoB5RhlqFKliqbz5s2r++NcqAs7duyQLl26yDfffCP9+vWTu3fv6ncQ1hMlSqRrKbCfrbKAz1CEFi9ebOY4ByZXOBZKCYR9XB8bXMImT57cN42BBSu7d+/WMqZMmVLbB5QFAwJjxoyRmTNnSs6cOXXwgBBC0BgRQlzM48ePLYbgYOnTp4+Z40OzZs0sMWPGtKROndpy+fJlM/cNhpBvyZgxoyVhwoT62Urt2rUtKVKksCRLlsxy7tw5M9cvFy5csESLFs3Srl07y3///WfmWiyGkqD5hkJh5jhy69YtSCiW5cuXmzk+LFiwwBI1alSLIYSYOT4YioXFEHAsTZo08XMtK9u3b7dEiBDBMmHCBDOHENdiCMdax5zVo8BA3UI9LFCggJljsXTo0MGSOHFiiyEwmzmOGEK11pODBw+aOT4YyrElRowYDnUB9SRWrFgWQxGwlCpVymIo6+Y3b8AxOB73cvjwYTPXYjGEd0vmzJktJUqUMHOc89NPP+k10ObYgjamU6dOZuoNqMuGAmGpWLGi07qLMkSMGNEyaNAgM4cQEprhjAIhwQxmAGDagyl/ezAqiZHHmzdv6mipLRjtx+gpZh2cgdFDjFhOmjRJbt++bea6B8xOGMqFlC1bVheK2gNzEJgxrFq1yswhxLXgHUcQNUORNXOCDt5ZjLAbSoafUXx3AY9LY8eOlfDhw5s5b0BZUG/hwrV9+/ZuLw9mHGE6Vb58ead1N2PGjJIhQ4ZAZzIIIaEDKgqEBDORIkVSkwX/SJ06tf5/+vSp/rcFJhP+gU6/TZs2ajIAMwp3AoUmWrRoviYP9kCAwxoMmEsR4g6spnQwAXoXIkaMGGzraNKnT6+KvH+gLC1btlRXr+42+cHzihkzpq6rcGaOiO8PHDig5lKEEEJFgZBgBouWsQDZP+CRBfz333/63woE84CEDYCgTxi1hC95dwJb6Lp168q6det0XQRGHx89euTHvhuKi7MRS0JcAYRrYF9PggrWz8SIEcNMuRes+YFyHRCYncMaH/uZRFeD9qFVq1a6uBnriObPn6+Ll23XNrHuEkKsUFEgJJiBIvAunTAUjMCOw/eIpIzRQHeaMOA6I0eOVC9IWJBZtWpVVVKwyBoekhD4KqDF04S8L/AWBuH2XWYF8G7C7AjmPsEhEMeNG9f85D+otxjNh5mSO8H99u3bVxCx+u+//5aaNWuqGRbMjeBNDcHpAvKQRggJXVBRIMRLeNeR06DwLkoFRia/++479QQDj00wQ8qVK5cKGhhBxRqM69evm3sT4loKFCig/xcsWKD/34YLFy6oggEF9214V+XbdqbN1bxLuwDTQMwqwHvT+fPn1RMbnufatWvVZTMUB+QTQggVBUK8BLhUDGyUHoIMFhmj03+bkVKYPLwrGAXFAmuYIk2bNk3OnTun7l1xTigMtiYNhLgKmOFhpH7GjBlv/Y5NnDhRTYEqV65s5gSNd10/gDoRGKi3EPoxK/c2vE/MA7QRcDpQo0YNrbNQ+OEyFs+zcOHCTtcfEUJCF1QUCPESYA5w6tQpM+UcjOCjc7cVNiAQQQAJSJg6cuSI+SlonDlzRn2xOxthhf92eGfq37+/7sfgTcQd4D3DqDjiCMDULajAexjiBSB2ge2aH8yQoe4ENGuAd/5d2LRpU6BCNwItwtGBbYRp1N2ATKtQVgRzexswU+Bf3YVZZPXq1eXXX3/VtRKcESSEUFEgxIvo2rWrv4IM8tHBw11kyZIlzVzRoEpYuAmh3Rk4DgHZ/MPZ9bBYGgGbYHbkDIxUIlgbjvWvvIS8L927d5d48eJJ7dq11d4+MBBYsF69evpOYibC1mNSunTpVKn1TzjGMQFFSQ7oPb906ZJGZfYPDAKgDsKtMDwSAdQh1F14D/PPdAnl3bVrl5kKGhhsQN3FGg1n4LqZM2fWz6y7hBAqCoR4CVjsiIWOMA1w1oFDGIEg07BhQz+jkhg5xUgl7JCdHQcBxj97ZIwwQoixnxWAoIFzYjGzs3MiD4IYos7GihXLzCXEteD9hOctvG+IJgwPPs5mzvA9IpnDnAYL/aFQI5qyLVYzOf/q1x9//OHvegDUBbgz9s80EEoIZj8QH8UeXGvEiBGq6Pzyyy8qqAP8h0kQzJ3gocgeHIf4C7Z13RZ4JoO7Vft7yZYtm36HGT9n94k8RGfGPgkTJjRzCSGhFqNRIIS4GERJDetPZObkyZM7jdBqZd++fei9LSdOnDBzfCIzIyrzhg0bLPHixbN07drVYigGGmEW10IE5Dhx4ljy5cvncG5DuNEIreHChbP06NHDcuXKFd/jDMVCI0FfvXpVr2kfmfn48eN6HCLYrl271rJr1y49H7aePXtq9GVEZ0ZZcU5EtUVk17Jly1oiR45s2bhxo3kmQtwD3sUzZ85oFGPUOURXRj3D+4rNEIgtWbJksYQPH14jns+bN89pRGLkVa9eXd/3kSNHWgyhXt9pQ0m29OvXz5I1a1aLIcxrPbGPzLx+/Xq9dtWqVfWa1u+tkZk7duxo+eGHHyxJkiSxLF261PLo0SM9N6JKN2jQQCMhjxkzxqFcz549s3z66adat1euXKl11nocrvX1119bNm3a5DQyc9u2bfW8qPMo040bNzQf1xg2bJh+V7NmTcvRo0c1WvPLly+1HlepUkXr7qJFi3R/QkjohooCIW4AAnOHDh0sq1evNnN8mD17tqVv377a2fsHhIBvv/3Wt2MHVkUBxyG/VatWKvRAaPnoo48smTJl0nOjw3cGjhsxYoQlXbp0uj+Ow/EQJiAIQXjANY8dO2Ye4QPyt27daunSpYt+/9NPP/kKM/i/bds2S+nSpS2xY8fWc2KDMNS0aVMVqqz7EuJu8O5D0S1SpIglfvz4vu9jtGjRLIUKFVLh/8mTJ+bezoGwDKUgRYoUvscnTZrU0q1bNxXaoYSjHkDZtgXvOer6d999p9+PHz9e862KwqBBg3zrS7FixVQQx7mjR49u+eKLL1Qh96+u3Lp1y1K/fn1LggQJ9BgoPKjH06ZNs/z777+q5GPgAG2OLSjruHHjLO3bt9cy2So3uNbevXstFSpUsMSNG9f3XqFk4Vrnzp1j3SWEKGHwx2ggCCEeTJ06ddRkAiZCWOCIamsI/762y1iIifzAwDHYAPaHm0SrqcO7YggUek78B646LyHvgv37iPcQ9cN2PUJguKqewGwP8UUMRVs6d+6seSiXddE0yoSyBXZu7ItjcCz2tZbpfbE9L2DdJYTYwzUKhHghVuEHttHY0MEHBQgB1mOCIqAEBQg7sBV39XkJeRfs30dEcH4bJQG4o55YQVlQJpwb5QzKubGP9Z5wrCuUBGB7XnfcKyHE+6GiQAghhBBCCHGAigIhhBBCCCHEASoKhHgBcEf6xRdf0CyAEC8CZkZVqlSRTz/91MwhhBDvgouZCSGEEEIIIQ5wRoEQQgghhBDiABUFQgghhBBCiANUFAghhBBCCCEOUFEghBBCCCGEOEBFgRBCCCGEEOIAFQVCCCFug471iC14H/hOEOI9UFEghBDiFiZOnCjFihWT//77z8wJOv/884/MmzdPTp8+beYEnR07dsiSJUscrgsB9ezZszJ79myZNWuWXLlyxfzmw3Hnzh2ZM2eO3q8ruH//vt7bw4cPzZx3B89v2bJl+jxdRefOnaVbt25UFgjxEqgoEEIIcTnPnz+Xnj17ysiRIzXw2Nvy4sULadasmaxevdrMCTqjRo2Stm3b+hFG8RnKw2effSbjxo1TJQHXAI8ePZLvvvtO7t69q+ngBIpLw4YN5eXLl2bO+3Hx4kWpW7euXLt2zcx5d6AodOjQQX777Tcz5+3o1KmTbNiwwUz50KNHD5kwYYJcunTJzCGEeDJUFAghhLicMWPGaETizJkzmznBR4QIESRixIhm6g1t2rSRokWLyvr166Vjx46SJk0azX/27JkMHz5cFQZvB0pZpEiRPCKK+6+//ir79+83Uz5Ejx5dGjduLK1bt+asAiFeABUFQgghLgWC97Bhw6RPnz4fRGDFCPi+ffv8zGQ8efJER9lbtGjxTjMc3kKmTJnk+vXrkjZtWjPHs8D70L59e51p4KwCIZ4PFQVCCCEuZfPmzfL06VPJkyePmRO8RIkSRWLGjOlHSbGuV/CEkXZ3EjZsWIkVK5b+91QSJkwoefPmlZ9++snMIYR4KlQUCCGEuAyYkwwaNEgKFy6sJkC24DssTobpSfr06eWTTz7R/0jDtt4/UxTkHz9+XGrUqCEpUqTQ4woVKiRTp06V169fm3u94fDhw6qs4Lh79+7J2rVrZfLkyfrd4sWLNY0Ni3Tx/48//tB9Z86cqWmYJtkvLsb3O3fulKpVq0ry5Mm1DPnz55cZM2Y4LYMVzK5gzUTu3Ln1GJg7ffXVVzqa7t/9+gf2x0wJzHnwGdvjx49l+/btuiEN8yncA2ZQ7IHyNmLECFXgrM9+4MCBui+O3bZtmxw5csTc2y/4HjMy+K1Sp06tx+fKlUtnjnCPVlAe6/PFc8HMgTVtXQOCGR2so5g7d67vOhFCiGdCRYEQQojLgDC6a9cuNfGxHb2HoDlp0iTJkSOHxI0bV73p7NmzR9cGnDhxQtczrFy5UvezBeeDF59q1apJuXLlZOPGjbJlyxbJly+ftGzZUsqWLeuwEBiKCoRxzCJYFQUI0uDUqVO+gqtVUbB69UF5kIZw+++//2oegNKANQ1Y3wAlYdGiRVqGBg0a6CLoEiVK+BGWrdy6dUvXaGC9xv/+9z/ZvXu3LF++XLJly6bPAZ9fvXpl7h00unTpIt27d9fy/fzzzxI/fnwpWLCgPm88u3PnzkmZMmXk8uXL5hE+zx7KBcyR4IkKazWg9OA3uHnzpgr8Z86ckSZNmsjQoUPNo94AgR/PD888e/bssmrVKn1WVapUkX79+snnn3/uu77DVlHAdaEQWdPw8GTliy++kAcPHsixY8fMHEKIR2JUZEIIIcQlHD16FJK+5fDhw2aOD4YyYAkfPrxl6tSpFkOAN3N9MAR9S+7cuS2GAmExFAPNMwROS4wYMSyGcGrJmzevxRBENd8KzmEoEBZDGbEsXbrUzPWhTp06lqRJk1oMAd/MsVgMoVTLNX/+fDPnDdevX7d89NFHlvPnz5s5b8B1DIHcEjZsWIsh2DuU/caNG5YkSZJYDGHdYgjvZq7F8uTJE4uh/Fg+++wz/WzP2bNnLYkTJ9ayRowY0ek+9uDahlJiMRQBi6G46HFdu3a1nD59Wp8hvj9w4IDe5/Hjx82jLJaHDx9a4sWLZ8mZM6fFUGjMXB9wzOzZsy0ZM2a0GEqHxVCwzG8sFkNBsKRJk8aSNWtWi6EgWAzlw/zGBxxrKFmWCBEiWAYMGGDmviFSpEiWIUOGmCm/4NzRo0e3/Pbbb2YOIcQT4YwCIYQQlwEzHkPAd1hMi1kDjExjZsB+nQBMlMaPH6+mKTAxsgVmRBjBh7ccW3AOmCJhLQJG1o3+zPzGtWBGAqP4mL2oUKGCQ9lhbw8zp7179+qouZVffvlFDMVD/vzzT4kaNaqZ+waY72AGxVBczJygc/LkSZk+fbo+K5gO4VnjGdqXzQrczGIGYt26dRI5cmQz1wccU7NmTZ2FsB3xt8VQ/tSlqaEQmTk+4FisNTAUCZk2bdpbxYIIFy6cuqqFmZe7fjtCyPtDRYEQQojLwFqDOHHiOCymhWAI/LOBz5gxowqqWbJkMXN8wDoACOPOgK07hE2Y+LgLCMigV69e+t8ZWDeBco8dO1aF3v/++09Gjx6t5jUff/yxuZcj8FBkddH6NsCcBwpCqlSpzBz/gVnWihUr1PQJCpwzIPBDmbD+RvbgHmBe5AwcmzNnTjU5sjXXCgrJkiVTJQTPixDimVBRIIQQ4jIg7GME3d4FKYRJjGZjnQFs42HTbzuSDMUCaxfChw9v5viARcv+jZQDCL9va+f/NiDgG0bs48WLZ+Y4gnvFOgXY7aMsmIW4ceOGjtQHVHbcc/Hixc1U0IFAX6dOHTMVMJilgbKAtQUBlQXKDhQ8Z0ChCciLEmZ13iWyNK6HtQ2cUSDEc6GiQAghxGU8fPjQacCvRIkSqYKA2YFKlSqpMgGTFSw8xuJheL9xJjBCCP2QYPT+/v37Gs0Zi7H926z3APMqLMAGUHwCA56H3hYsqHYWUM4ZiJCNEfukSZOaOc6BgubMRAr4p0C8LzCXgmJFRYEQz4WKAiGEEJfhnxkJFAeMusP06NChQyp4Q1CESQ/yEydOrHbuniY0wpwGswm4L8yC+LfVr19fBg8erAK89Rng/gIDI/lvi38mQs7AbAeefWDPFd8HtwmQO2eCCCGugYoCIYQQl+GfHbwVjFzD3h3uPGGqAx/+WNAKRaFp06ayYMECc0/PADMaCGAGl6Jff/11gFvz5s31/qwKAmZXAgOuZN1JtGjRVFm4cOGCmeMczIRYXZwGF7geFKuATKIIIR8WKgqEEEJcBsxUMMJuO4KNzxCa7eMdQECEUA07fSgNME/q37+/+a1nkCFDBhWyA1uoC7Mjq709TI5wX1ioG9BIPr7zb3G3q0BZMCOC4GYBlQXlQFyD4OT27duqWFJRIMRzoaJACCHEZcB+HkqBvWANDz1YgOufsIqFzghohoXAngRmCa5cuSJnz541cxzBPVWsWFGDv+EzRsnhNhQRmTFS7x/wFLRp0yYz5R4wm4DZDng+ggtXZ8AE6Pvvv3dYgO5u/v77b/V2FdzXJYQEHdZOQgghLgPKANyVYgGwFYwYly9fXv34YxTZGfCas23bNo1YHNygfNiwcNkeeF3CgmNEIbafEQFQDBAPAQJ/3759fdcEQEnAvVpdptoDRapdu3ZqGuRuOnTooPdQunRpNXWyrkVAuaCsQMGBwA53pa4EsyqIn+Hs/jHrhOjRxYoV44wCIR4MFQVCCCEuAzMHEJZhdmOLdaFvgQIF5PTp077uNCG0YsS+cePGOpvw66+/an5wEiVKFBXY+/Xrp3Eg4OLVKtyizAgid+3aNRW08d8qaGMkHmsq6tatq4oEFmVbgUtRBF3r2LGjKgsQjAHOCxMl3O+5c+c03oK7wWwNlDAEqCtYsKDGfOjevbvUqlVLUqZMKfny5dOyBuQC9V3AM4CnKygnUJpsFy9j1gnPMXfu3GYOIcQToaJACCHEZWDxLwTRiRMn+hlJRtCugwcP6qJlLGZGoDSMJmMkG+sAYIYCO/lPPvlE98coM9ysBubhB6PW2M8WCPf2edbzOROGoSRMmTJFlQSUBWWzujgFcOO6f/9+FXYxMo80yo74Cg0aNFDzpFmzZvkxocH1Wrdura5Tu3btqt6NYFoFkyR8xn0hajPOZ1/WgHB2v7agDPje3pwHawF+//13VcqGDx8uuXLlUmUFzxzrQlAeCPL2zwfnwjUDAgu4nZUJ6yJwfyVLltTZiq1bt5rfiKxZs0bLlDlzZjOHEOKJhDEacucGo4QQQsg7AHt4jLJDsHYmZMIsCd9hVgECavz48SV27Njmt54LukvMNiCIGUbDMRORIEEC/R8QWKdw/fp19fAEoRpCM5QZTwIzHlhf0rBhQxk2bJiZ6x7wHDE7ky5dumCZUSGEvDtUFAghhLgUCMRp0qSRRYsWqVkL+bDMmzdPFTKYR/m3HgCzPZhlwCxA1apVzVz3AGULsyoHDhxQZYEQ4rnQ9IgQQohLgSkPzG169+7tx/yIfBiwTgAzBZgJcQZmR7p06aKzHTATcid4H2AClSdPHjXdIoR4NpxRIIQQ4nIQVyB16tSydu1aXYdAPhw3btzQtQAw77IGt8NaBHT/+J2wiBuLzREtu1mzZuZR7gFrP6AgbNy4UdcvEEI8GyoKhBBC3ML48ePVlAULV+0X15LgA938+fPnpUmTJrJz5071RgTlDSZimzdv1hmFkSNHSv369d3+O8GFLBaNY5E33aIS4vlQUSCEEOIWbLsXCoUfHvweWB8AF6/Pnz/XPCwkx+JqrGEIjt/I+k7wfSDEO6CiQAghhBBCCHGAc8GEEEIIIYQQB6goEEIIIYQQQhygokAIIYQQQghxgIoCIYQQQgghxAEqCoQQQgghhBAHqCgQQgghhBBCHKCiQAghhBBCCHGAigIhhBBCCCHEASoKhBBCCCGEEAeoKBBCCCGEEEIcoKJACCGEEEIIcYCKAiGEEEIIIcQBKgqEEEIIIYQQB6goEEIIIYQQQhygokAIIYQQQghxgIoCIYQQQgghxAEqCoQQQgghhBAHqCgQQgghhBBCHKCiQAghhBBCCHGAigIhhBBCCCHEASoKhBBCCCGEEDtE/g9JcuQ+x1SoNAAAAABJRU5ErkJggg==;" vertex="1" parent="1">
          <mxGeometry x="490" y="410" width="778" height="987" as="geometry" />
        </mxCell>
      </root>
    </mxGraphModel>
  </diagram>
</mxfile>
